<mxfile host="app.diagrams.net" modified="2021-06-19T08:33:54.194Z" agent="5.0 (Macintosh; Intel Mac OS X 10_15_7) AppleWebKit/537.36 (KHTML, like Gecko) Chrome/91.0.4472.106 Safari/537.36" etag="P9bSZ-fZMa1RRHpr7TwI" version="14.8.0" type="github">
  <diagram id="BFBbz4WTsSfmZkJWPCKn" name="第 1 页">
    <mxGraphModel dx="2039" dy="2874" grid="1" gridSize="10" guides="1" tooltips="1" connect="1" arrows="1" fold="1" page="0" pageScale="1" pageWidth="827" pageHeight="1169" background="none" math="0" shadow="0">
      <root>
        <mxCell id="0" />
        <mxCell id="1" parent="0" />
        <mxCell id="4E65rjWqwYdcSZP7xWTO-1" value="&lt;p style=&quot;background-color: rgb(250 , 251 , 252)&quot;&gt;&lt;b&gt;&lt;font style=&quot;font-size: 14px&quot;&gt;EurekaClientAutoConfiguration&lt;/font&gt;&lt;/b&gt;&lt;br&gt;&lt;/p&gt;" style="rounded=0;whiteSpace=wrap;html=1;glass=0;shadow=0;sketch=1;fillColor=#f8cecc;strokeColor=#b85450;fontFamily=JetBrains Mono;fontSource=https%3A%2F%2Ffonts.googleapis.com%2Fcss%3Ffamily%3DJetBrains%2BMono;" vertex="1" parent="1">
          <mxGeometry x="-300" y="-1520" width="290" height="40" as="geometry" />
        </mxCell>
        <mxCell id="4E65rjWqwYdcSZP7xWTO-2" value="&lt;pre style=&quot;background-color: #fafbfc ; color: #262626 ; font-family: &amp;#34;jetbrains mono&amp;#34; , monospace ; font-size: 11.3pt&quot;&gt;&lt;span style=&quot;color: #000000&quot;&gt;EurekaDiscoveryClientConfiguration&lt;/span&gt;&lt;/pre&gt;" style="rounded=0;whiteSpace=wrap;html=1;shadow=0;glass=0;sketch=1;fontFamily=JetBrains Mono;fontSource=https%3A%2F%2Ffonts.googleapis.com%2Fcss%3Ffamily%3DJetBrains%2BMono;" vertex="1" parent="1">
          <mxGeometry x="280" y="-1620" width="330" height="40" as="geometry" />
        </mxCell>
        <mxCell id="4E65rjWqwYdcSZP7xWTO-3" value="" style="shape=image;verticalLabelPosition=bottom;labelBackgroundColor=#ffffff;verticalAlign=top;aspect=fixed;imageAspect=0;image=data:image/png,iVBORw0KGgoAAAANSUhEUgAAAgAAAAHaCAYAAAB2NfEuAAAgAElEQVR4Ae2d59scxZW38T9DxuzaLEswxotNBpFzNsYkCxOMeRcThJCEACthGzAZS4BhwQgMFsIIZJKEEChgCVB6EKwQIBDg3f1i73X1e51hz1BTT3V39XRPPzVV94e5uqe76lT61Tl31cz0bPP3f/xvxos+QANoAA2gATSQlga2YcDTGnDGm/FGA2gADaAB0QAAwA4IO0BoAA2gATSQoAYAgAQHHfqH/tEAGkADaAAAAAAgfzSABtAAGkhQAwBAgoMO+UP+aAANoAE0AAAAAJA/GkADaAANJKgBACDBQYf8IX80gAbQABoAAAAAyB8NoAE0gAYS1AAAkOCgQ/6QPxpAA2gADQAAAADkjwbQABpAAwlqAABIcNAhf8gfDaABNIAGAAAAAPJHA2gADaCBBDUAACQ46JA/5I8G0AAaQAMAAAAA+aMBNIAG0ECCGgAAEhx0yB/yRwNoAA2gAQAAAID80QAaQANoIEENAAAJDjrkD/mjATSABtAAAAAAQP5oAA2gATSQoAYAgAQHHfKH/NEAGkADaAAAAAAgfzSABtAAGkhQAwBAgoMO+UP+aAANoAE0AAAAAJA/GkADaAANJKgBACDBQYf8IX80gAbQABoAAAAAyB8NoAE0gAYS1AAAkOCgQ/6QPxpAA2gADQAAAADkjwbQABpAAwlqAABIcNAhf8gfDaABNIAGAAAAAPJHA2gADaCBBDUAACQ46JA/5I8G0AAaQAMAAAAA+aMBNIAG0ECCGgAAEhx0yB/yRwNoAA2gAQAAAID80QAaQANoIEENAAAJDjrkD/mjATSABtAAABAQACxcuDDjRR+gATQQowYAjvCAAwAAAIAOwAsNoIGBawAAAAD4nKkAOJT6/+eLkYwXfYAG0EAMGlC/BgAAAAAAAADcAHhoICENAADhBX6FMT4CKAjI2kltHXWixED9tIHVKxpAA6IB9Wtt+VHK8QcOAAAAYDWW0GqMoExQblsDAIB/QG4bXgAAAAAAAADQABoYmAYAAACAz/49QEMnStuETnmsCtEAGhiUBtSvtb26pbxy8GAHwCMwtyUknSiDmojYxcmjATTQtgbUr7XlRymnPPBrHwEAAMDAtv7adjSUR3BDA+FpAADwD8gamNs6AgAAAADA579oAA0MTAMAAADAdwA8QEMnCquY8FYxjAljggb604D6tbZWtZTjDxzsAHgE5rYEpRMFR9Ofo6Hf6Dc0EJ4G1K+15UcpBwAYyh0HnSg4sfCcGGPCmKCB/jSgfo3A7B+Y2+ordgDYARjYZ384zP4cJv1Gv8WkAQAgvMCvgAEAAAAAAF8AQwNoYGAaAAAAgKHckldKauuoEyUm+qctrGbRQNoaUL/Wlh+lHH/gYAeAHYCBkT+OP23Hz/gz/qIBAMA/ILcNLwBAZADwnx+/kb02Mjf74+rfZg+vnJ7dv2xy5yXnck3uSRqcM84ZDaCBNjQAAAAAfATgARo6UfqZlO9sWpg9snJGdvcb13m9JK3k6acs8hA4UtXAEeMOzbbddtvOa++992T+eHx3Qv1a26tbyisHD3YAPAJzW0LSiVLFuX6y5a3siVW3egV9FxxIXrFRpcxhSbv45XldZ61Ou+x4z52zouwL15hNu2lit3+emvtAUO2+6t8v7dbNHrOFzz2eW1c7rf3e1Q++17Z8uHpUnZYufja3Lr52Y0+nfq0tP0o55YFf+wgAGGIAGNm8OJuz7Ma+g78CgdgQW7E5IgCgeKdi6pRrugEtJACwg7br/SEHH+DUqyutea2Oxrd+/G63v9TmsiULnPWoU07bebUtchxE2QCAf0DWwNzWEQAYUgCQgH3fm5NqB3+FALEVGwQAAMMHANttt11PkN1nn72zGdMmZbIjsMMOO/Tc+80tN44KWGYwc53XDXDjLzynW4cTjj96VPl17Y9FfrOfBlE+AAAA8B0AD9DQiVI2CWXLvomVvwZ/PYrNmD4OMAHg2qt/HoWzLtNGlfuh7QBseHdJN7hKUPpgw7JRYzZl0lU9aXzaO+gA51OHkNMMun/Ur7W1qqUcf+BgB8AjMLclKJ0oZc6izmf+GuzzjmK7rHzz/oqNz2Rzlk3NZi2+PJu56LLOLw4Wb3g8++/PN1SyY9ps6hwAGK4dAHN1/ZMLfpSrHzNgffbRO7npVEdmer3G8WttDLp/1K+15UcpBwAYyh0HnShFzkm+uZ8XvJu67vvrgOUb52XTF13ifL26/rFSx1zUzibuNQUAv/nVTZmsluX1+SdrctulaeSYV39Nc+MN13bSiD3zm+Xf+tY/Z1U+jxfQmnL9L3pWxQfs//3spReezK2D1k3qos6/qMwvP13bbX9R29TuzOmTs6OOPKxje+edd8p+etF52Z/++FBpfXbffbduff66/MXc9NI+rfdrr8zLTaf10bRy1Gu+Rx0v1/GmqV+Noa8tSVdnvOY//XB3HDZtXNFpy+z7bs122+3b2fbbb9853jD56sI23nXHzK4NbZPZP3rNPspcqtJOM636NQKzf2Buq6/YARiyHQDfn/oddMx3MtfLBxKkDHMC553PWX5TJ/jril+cm5wLFNy5dIKXjTzbTVxvCgD23XefbsD5ZNOq3HaZjjSv/maa5+Y/2rVrXtfzsl2UCddcUZhf7Pzts/W59RUnr2UVAYCmkeO4ww/JtXf+uT/s2jPzmOerVuQHdjNdXv/J9Q83rsjWrFrUeQ16B8Csk+u8qJ72vbrjdfqpJ3b7d/XKl7vnrnrNffR+5zi50vpcq/PrGAAgvMCvgAEADBEAyAN8fAK4pLlk5hnZcece1IUAOZdrvvl9HhZ065IrO8F+69avt2G/3Lquc23GokudDsh2ioN8HzoAlDneXXbZObcP7VV/ka28PvYBgAvPP7sn0OTZOuvMU3rSFdXnw/dXOttl5skrp5/rdeyaeV3nvvVpYrxMADjwgB+U9rfs3Nj1c7XB5xoAEG4Q12DezxEAGCIAkKf4+QZwTae7APre9yhl2c7Dfi+f+ctq376uHwvY19t+PwwAsHTxn3v678nHZ/c49lf+8lTPfe1D02k/8LvbetLIzoHAg6Y55aTjeu6rjTIA2LDm9a4NsbU5J3CLPS1Ljg/Ovr2nvM8+eruzRW2m0TqYx7L7Ztoq503b7ceemaff8TIBQOwdd+yRPf38xZa1PeOw44479tzP6zOzbnlp6lxnByBceAAAhggA5FG+vgFc0/ULAFJW2aSXVf6wAIAExL322qPw9ey8R5xtHtRHAPfedYuzvB+fc0bXkR9/3FGj0tx396+692Ul6Bqn/9q6vptGHLwrTRkAmIHhmqsud9oQu5Mnfv0dBPkYwFWWQIlpz5Wm7L4rj8+1pu1WtdfUeNkA4Gr7x5tWlfazna9qe+z8Ze8BAABgKL+U18+WSp08OlHyJpTv5/8a/OXYLwD4fA9g+qu9AKArf99jXjubum7uAJhOLu8873PwQQFAXjvLgqW5/btm9SJnwBXbZjtdZRUBwH777dvNL18wc+Wveq2sPmX3q5an6Zu2W9VeU+NlAsD0m6/PHZOq9auaXvvV96h+rY5vJO9gIIIdgCHaAfjdsimt7QBIWWUT3N4B8A38mq7Mft37wwoA0u4ip1x0z+yzPfbYvWvH9YXCPACQnRCzDFdesxzfc9OmK0/ZfVcen2tN261qzzd92XiZAPDaK8/kzk/f8rTvqqbXfL5HAGAwwbsJKAIAAAAnVPgAgO0ANLD7Hu38Tb83AaDOg4Da3gGQfpCPB/Rl94vpsA8+aP8s77XTTjt1A7kriJsAIE/Zk/RmHilHvpNgl5/3Xn5x8PCDd2byEYbr4xaz3i4bZfddeXyuNW23qj0zfd5YyXWz713jZQKA/Aogr+1meXlpzOtV05t5fc4BAACAjwA8QEMnSt6kCu0jALuevoFf09n5m34/zABQ1Bemw/Y9dwUUEwDy7BTVw7z3o7NP78JGni3zuplXz8vua7qqx6btVrVnpvc9d40XABBuIG1iNT4WNtgB8AjMbQ1MGQCE9iVA2xFrYPc92vmbfp8CABx7zBGZz8vVtz4A8PQT5f8S+POfjR8V/I884rBR9TKDn6s+ZfddeXyuNW23qj0zvc9YSRpXuwAAAKDpWAQADBEAhPYzQNtJ+QZ+TWfnb/p9CgBQp89MADC/AClPKTSDVlkZZtr317/pDF5iw0znsll235XH51rTdqvaq5o+r00AAAAAAAQUsJsejLIdgCoPArrslrOyE847uPsrADmXa+YvBIrOfR4EZDsqDey+Rzt/0++bAgD5fFad+PKlz/cd4KR9akeO/ba37LNiX7t5AGDXUz7Pz7NpPitgzz3/NTedbdNlz2yX64+ANM9pp5zQ7ccFz5Y/crqJPteyfdphppVzs12urX07fd57AAAAaDrmsAMQEFCUAYA4Bt/vAejP/+xjUdDXez4/AXQ5Kd/Ar+lcNpq81hQAXHLx+d2AM2t6/q8jfAKNT5qyPpAtYrXz+qL5hUG3yFYRAMgjdrUMOb764tPOcuQjAk137jlnOtNoHTSdHPWaeTzm6HFdW/bDhMx0pp2Rta87beWlN6/3e26W72OjqfECAAAAACCggN30YPgAQEh/BmQ7Pw3svkc7f9PvmwIA+7nrrnpOuu7KbvDKC3CSr2rwcJW1cMFcLztlZRUBgJRrf7bvqsunm9/2qov8OqCsPs8/+4fSNOveXlyaxq5nWbl2+rL3Ve01NV4AAADQdMxhByAgoPABAHFOIf0dsOksfQO/pjPzDuLcBIATjj86e2jOHaWvD0ZG/we91M10+nKuf2oj/+Ynj9o178//k/uJgradOm02y9t1129m8uQ/tWcDizzUR++ZxzIAkLRmOfIvfGZ+PTfT2I+nlTTm3/xqWs1rH/W+HvVRyF9sWZP98sbreupz+GEHO+tTZlN+EnrHbdNGvQRmzLyuNHJN6yZHVxrbjtg08/Q7Xm0AgNRz2k0TR7XL7Jeq5+rXmg5e2KsPRADAEALAJ1veyuYsu9H783zd2i87ik2xXXWCh5reBADTARed5/3pyUcfvNXjxPNsyDMDivrDzFeUruye+dm7adN1nmfLBwDk+f+mTdff9ApYmWnyzs3PwvPqtNZa4efZkut5NuzrWz5c7VU/0YuZt6jsonu2HbHZxHgNCgDki5tF7anS12b/6TkAUD9QDwp2AIAhBACZWCObF2f3vTmpMQgQW2JTJ20MxyYBQPrD3u62neZll1xY2n9mnrp9bAdn07acF/11r5TtAwCS7uwfntYTIFz1ls/s7fL1vTxKWHYofABAbMu/BWpe1/G73/1OaT/bdSwbOynHDtyusn2u2Xa0LnXHa1AAIPVbveKlwj7XNvRzBAAAAB4E5AEaOlF8J5kE7CZ2AsRGbMHftw/7Sfe3z9Zljz1yb2ebVHYMVrzxQuWA1E+5eXm+/L/63DJjSvbIQ3dlsorOSzvo6/IRivTNzOmTsxeffyJz/SWtbx0EGuR/7WdMm5T99tZp2V8WPDFm7fKts0+6kMbLp75106hfG9QqFrv9AwY7AB6BuS2B6USpMuFky77OdwIkb0zb/lX6jrQjUQRUxjHscVS/1pYfpRx/IAAAhhwA1PnJrwN8fyIo3wWQtJJH83MM24kyPozPsGoAAPAPyG3DCwAQCQCoc5AH+MgTA+WxwQ+vnJ7dv2xy5yXnck3u9fOQH7XPkUCEBtBAFQ0AAAAA3wHwAA2dKFUmF2lxxmgADYSsAfVrba9uKa8cPNgB8AjMbQlJJ0rIk5m6EWzQABqoogH1a235UcopD/zaRwAAAMD3AL7AoVdx6KRFL1U0AAD4B2QNzG0dAQAAAAAAANAAGhiYBgAAAIDvAHiAhk6UKnRNWlZjaAANhKwB9WttrWopxx842AHwCMxtCUonSsiTmboRbNAAGqiiAfVrbflRygEAhnLHQSdKlclFWpwxGkADIWtA/RqB2T8wt9VX7ACwAzCwz/5CdkrUjaCJBtrRAAAQXuBXwAAAAAAAgC+AoQE0MDANAAAAwFBuySsltXXUicLKpJ2VCf1MP6OBwWtA/VpbfpRy/IGDHQB2AAZG/jjXwTtX+pg+Dl0DAIB/QG4bXgAAAAAAYPsXDaCBgWkAAAAA+AjAAzR0ooRO9NSPVScaQAO+GlC/1vbqlvLKwYMdAI/A3JaQdKL4TizS4YTRABoIXQPq19ryo5RTHvi1jwAAAGBgW3+hOybqR/BEA4PXAADgH5A1MLd1BAAAAACAz3/RABoYmAYAAACA7wB4gIZOlJNPPjnjRR+gATQQgwbUr7W1qqUcf+BgB8AjMLclKJ0oMUx62kDwQgNoQDSgfq0tP0o5AMBQ7jjoROG4sOs06Av6Ag3EoQECs39gbquv2AEIcAcAhxeHw2McGUc08LUG2gpqlOMPGgBAQACAcP2FS1/V66tF77+WyYt+rNeP9B/9N8waAAAAAIJAgho49MFDM3kNs/Oi7gRfNFBPAwBAgs6fSVNv0gx7/8nK/xsTv9F5sQuQthaGXcvUv55+AQAAgFVgYhqQlf82E7fpvNgFqOdACUD03zBrAABIzPkPs1ipe31nq6t/BQDZCWAXoH6/ok36cBg1AAAAAOwAJKQBc/WvEMAuAMFrGIMXda6vWwAgIefPhKk/YYa5D+3VvwIAuwBp62KYNU3d62kXAAAA2AFIRAOu1b9CALsA9RwpgYj+G0YNAACJOP9hFCd1bs6p5q3+FQDYBWiur9EtfTksGgAAAAB2ABLQQNHqXyGAXQAC17AELurZjFYBgAScP5OlmckyrP1YtvpXAGAXIG2dDKu+qXf/ugUAAAB2ACLXgM/qXyGAXYD+nSmBiL4bNg0AAJE7/2ETJPVt1on6rv4VANgFaLb/0TP9GbIGAAAAgB2AiDVQZfWvEMAuAEEr5KBF3ZrTJwAQsfNnojQ3UYaxL6uu/hUA2AVIWzfDqHXq3J9mAQAAgB2ASDXQz+pfIYBdgP4cKoGIfhsmDQAAkTr/YRIhdW3eafa7+lcAYBeg+TFB5/RpaBoAAAAAdgAi1ECd1b9CALsABKzQAhb1aVaTAECEzp9J0uwkGbb+rLv6VwBgFyBtHQ2b7qlvdb0CAAAAOwCRaaCJ1b9CALsA1Z0qgYg+GxYNAACROf9hER71HIyTbGr1rwDALsBgxgn9068haAAAAADYAYhIA02u/hUC2AUgWIUQrKhD8zoEACJy/kyQ5ifIMPVp06t/BQB2AdLW1TDNAepaTasAAADADkAkGhjE6l8hgF2Aao6VQER/DYMGAIBInP8wiI06DtYprvt0fbb203Ver/HzLsokuMvRJ4/YZvwGO370L/3btgYAAAAAx56gBq5+4ZoOAMixbadDeQQ6NBCGBgCABJ0/ky+MyTeW4wAAoIGx1B9lh6E/AAAAYAWYoAYAgDAcMIGQcRhLDQAACTr/sRQcZYfh8ACAMMaB+cA4jKUGAAAAgB2ABDUAABB4xjLwUHYY+gMAEnT+TL4wJt9YjgMAgAbGUn+UHYb+AAAAgB2ABDUAAIThgAmEjMNYagAASND5j6XgKDsMhwcAhDEOzAfGYSw1AAAAAOwAJKgBAIDAM5aBh7LD0B8AkKDzZ/KFMfnGchwAADQwlvqj7DD0BwAAAOwAJKiBP69fkAkEyBFnHIYzZhwYh7Y1AAAk6PzbFhnl4djQABpAA+FpAAAAAFgBogE0gAbQQIIaAAASHHRIPDwSZ0wYEzSABtrWAAAAAED+CWqA7wAQbNoONpQXnuYAgASdPxMxvInY9pjwKwA00LbmKC88zQEAAAA7AAlqAAAIzxkTIBmTtjUAACTo/NsWGeWF59gAgPDGhHnCmLStAQAAAGAHIEENAAAEm7aDDeWFpzkAIEHnz0QMbyK2PSYAABpoW3OUF57mAAAAgB2ABDUAAITnjAmQjEnbGgAAEnT+bYuM8sJzbABAeGPCPGFM2tYAAAAAsAOQoAYAAIJN28GG8sLTHACQoPNnIoY3EdseEwAADbStOcoLT3MAAADADkCCGgAAwnPGBEjGpG0NAAAJOv+2RUZ54Tk2ACC8MWGeMCZtawAAAADYAUhQA/wXAMGm7WBDeeFpDgBI0PkzEcObiIwJY4IG0EDbGgAAAAB2ANAAGkADaCBBDQAACQ5625RJeaxs0AAaQAPhaQAAAAAg/wQ1wHcAwnPGBEjGpG0NAAAJOv+2RUZ54Tk2fgUQ3pgwTxiTtjUAAAAA7AAkqAEAgGDTdrChvPA0BwAk6PyZiOFNxLbHBABAA21rjvLC0xwAAACwA5CgBgCA8JwxAZIxaVsDAECCzr9tkVFeeI4NAAhvTJgnjEnbGgAAAAB2ABLUAABAsGk72FBeeJoDABJ0/kzE8CZi22MCAKCBtjVHeeFpDgAAANgBSFADAEB4zpgAyZi0rQEAIEHn37bIKC88xwYAhDcmzBPGpG0NAAAAADsACWoAACDYtB1sKC88zQEACTp/JmJ4E7HtMQEA0EDbmqO88DQHAAAA7AAkqAH+CyA8Z0yAZEza1gAAkKDzb1tklIdjQwNoAA2EpwEAAABgBwANoAE0gAYS1AAAkOCgQ+LhkThjwpigATTQtgYAAAAA8k9QA3wHgGDTdrChvPA0BwAk6PyZiOFNxLbHhF8BoIG2NUd54WkOAAAA2AFIUAMAQHjOmADJmLStAQAgQefftsgoLzzHBgCENybME8akbQ0AAAAAOwAJagAAINi0HWwoLzzNAQAJOn8mYngTse0xAQDQQNuao7zwNAcAAADsACSoAQAgPGdMgGRM2tYAAJCg829bZJQXnmMDAMIbE+YJY9K2BgAAAIAdgAQ1AAAQbNoONpQXnuYAgASdPxMxvInY9pgAAGigbc1RXniaAwAAAHYAEtQAABCeMyZAMiZtawAASND5ty0yygvPsQEA4Y0J84QxaVsDAAAAwA5AghrgvwAINm0HG8oLT3MAQILOn4kY3kRkTBgTNIAG2tYAAAAAsAOABtAAGkADCWoAAEhw0NumTMpjZYMG0AAaCE8DAAAAAPknqAG+AxCeMyZAMiZtawAASND5ty0yygvPsfErgPDGhHnCmLStAQAAAGAHIEENAAAEm7aDDeWFpzkAIEHnz0QMbyK2PSYAABpoW3OUF57mAAAAgB2ABDUAAITnjAmQjEnbGgAAEnT+bYuM8sJzbABAeGPCPGFM2tYAAAAAsAOQoAYAAIJN28GG8sLTHACQoPNnIoY3EdseEwAADbStOcoLT3MAAADADkCCGgAAwnPGBEjGpG0NAAAJOv+2RUZ54Tk2ACC8MWGeMCZtawAAAADYAUhQAwAAwabtYEN54WkOAEjQ+TMRw5uIbY8JAIAG2tYc5YWnOQAAAGAHIEEN8F8A4TljAiRj0rYGAIAS579w4cKMF32ABtAAGhgeDbQdSIe1PAAAAABwgDw0gAai0sCwBuS26w0AeALA/3wxkvGiD9AAGkAD4WpAd2naDqTDWh4AAAAANsAdGkADUWgAAKj2PQoAAACIYuKzKgt3VcbYMDZtaQAAAAAa/Va7CqotAVMOzhINoAE00J8G1F8P65Z82/VmB4AdAHYA2P5FA2ggCg0AAOwAsAOAM4vCmbEK7G8VSL+l228AAAAAAAAAAAAaQAMJagAAAAAAgAQnPqu+dFd9jD1jrxoAAAAAAAAAYPWHBtBAghoAAAAAACDBia8rAI6sBtFAuhoAAAAAAAAAYPWHBtBAghoAAAAAACDBic+qL91VH2PP2KsGAAAAAAAAAFj9oQE0kKAGAAAAAABIcOLrCoAjq0E0kK4GAAAAAAAAAFj9oQE0kKAGAAAAAABIcOKz6kt31cfYM/aqAQAAAAgOAEY+HsmeHxnJ5qweyW5bOZJNW/bVS87lmtyTNCpijvQFGkADaKC6BgAAACAYAFi5aSS7feVINvUNv5eklTxM/P764Ihxh2bbbrtt57X33nvSj+wEDbUG0HN1PwAAAABjDgCbt4xk9696zzvw24AgecVGjCDww7NO7QZpDdbm8fDDDs42vbe8ctu3fLh6lN2li5+tbCfGPqdNxXPpqn+/dJR2VJMLn3s8V0OaJu9Yp9/Rc/GY5fUtAAAAjCkAvLt5JJu1zG/Fbwd+873YEFt5Qh/W66efemKuszUd6b/8y26V2r7143dH2V22ZEElG8Pap9S7/3liai7v/JCDD3DqKC+9Xq8zLrHqWftGjnX6Jy8vAAAAjBkASMC++c3+V/4mAMi52IoNAnwBQBzEdtttV8lJjL/wnC4EnHD80ZXy5jkUrvcfXEPvO9GXGZD22WfvbMa0SZnsCOywww49935zy42j9GTmdZ3XbX+Mejb7qW7/uPIDAADAmACAbNk3sfK3IUBsxvRxgAkAq1e+PMqpPvbIvT2O95c3XjcqjWvicy3eQD2Isd3w7pIenX2wYdkonU2ZdFVPGp96DDrA+dQh5DSD7h8AAAAYEwCo85m/HfTt92K7yqResfGZbM6yqdmsxZdnMxddlt2/bHK2eMPj2X9/vqGSnSpl+qYtAwCx88QfflfZ8fqWTzpAQTRgrq5/csGPcueFGbA+++id3HSqKzO9XuP4teYG3T8AAADQOgDIN/ftoN30e99fByzfOC+bvugS5+vV9Y+VOrBBOysfAJA6+DiKqVOuyfJeN029tnJbX3rhyez0007sfPSg5e+66zezi396fmV4kvLVhhzly4//8fu7K9Xpv7auz6679ooeO9/f73vZc/MfLbTz4vNPdPvl1RefLkwrfW32YdH4C0BOuf4XPfU5YP/vZ9JvRfn0npZz4w1fjc3nn6zJzG+6f+tb/5w9NfeBXFtmu26eOiE3nV2elKvX9Lj77rt12/HX5S+Ouq/ppH06jq+9Mi83nabXtHLUa75H7R/XsR891xmv+U8/3NXFpo0rOm2Zfd+t2W67fTvbfvvtO8cbJl9d2Ma77pjZtaFtMvtHr9nHxS+X92nqd4IAACAASURBVHNenwIAAEDrAODzU78pr6/Lxt/zH9kxl1yZHXjqWdm/HXNidvBZ52XHXzEhu3jOE9nUpRsKIULKyBO9eX3O8ps6wV9X/OIE5Fyg4M6l5U7TtDWI8yYBwHQmrvMq9Xflt6/9dPy5pWNw9S9+1g0Ydn59v3zp86V2BDo0fd5RAqirje+89Uo3rzhrVxq99uWna7tppRy9bh8nXNMLIq46/e2z9bn5xZ6ZRyDGfG+fu3arPnx/ZU8eu47me/ujJPOeXRf7nvn+w40rsjWrFnVeg94BsPvAfm/Wq+y87njZ89Sui/l+7qP3O8fdTFPl/J47ZzntlbVZ7gMAAECrACAP8Clb7V/34lvZUeMv7wR9Cfyu10m/mFRqx+dhQbcuubIT7Ldu/Xq78sut6zrXZiy6tO+J5TP5fNLYjiUvz0477dR19q5gIPnKnEqebfv6zjt/XVaZzYdm/za3D32Cv9p/+63R33/Qel12yYWlbVM7msc+6n052vfM9xMn/L9uWbOmT3GmtVf9pm373LRtn9tpi97vssvOzrqYeeb98SFnGinX/ILfow/fMyqdaceuZ533deyaeV3nvvVqYrzMeXrgAT/oasRVL7kmIGnXLy9t2XUAoFoQ//s/+k+/TZ3MKeRVorTFre/lKX5FADB5ydrsyJ9c1gn64867uLPan/DC8k6eCQtXZBfPnpt9df3JQjtShpSl5eYd5TN/We3b9/VjAft62+9Nx+L6EqDWxwcANK15NJ2Leb3o3Mzz3rqlo/rOXk3l2TLtyNaxmU4c5De/uUuPIzXvm+emnVNPPr7Hzsja13tsyBa6mVfP9913n26655/9gzONpDXL0rz20UzzwO9u67ElcCbBWtOcctJxPfdNW5pGj0sX/7kn7ZOPz+7akTSv/OWpnvtiS76Nr/mLfiWiaeRo1kHPy+5ruqrHpu32Y8/M0+94mfNU7B137JE9/fjFlt6dox133LHnfl6/mXXLS1PnuvrrFGJTE20EAEroSQWVJ8rZq4sB4II7H/oq+F9waTZ58bvOIH/D6+ud122wkLLy6qHXZZUPAHz1NEDtk6Lja6880w0oRx91eG7/nnvOmZm+XPbuvmNW145vYPrys3WjyrvjtmldOwJBrrLkG+tljnTZ6wu6aeSzdZcduVZm5767f9VNIytBlx35rkKZHbuse++6xWnrx+ec0bV1/HFHOdOUlfXQnDu6NvLaXmbD1U6fa03brWqvqfGyAcDV9o83rer2s9TTlca+VrU9dv6y9+qvmwiOKdgAAGoCQNnn/7r1/7NH5nsFeTvom+99vgcw/dVeANCVv++xbILVvW86lhB2AORLcuqU7NV2lbaaXxYr+pLed76zV7c815edTDt/WfBErlPVOhc53rI0sjrUNPKTN1d7ze3fNasXOdNIPrVTpz5iR3YUymzJQ6I0za9m3jCqTnpPjvYug7bRTKPXmjg2bbeqvabGy5yn02++flQfa19VrV/V9FqO7xEAqPZxAABQEwCmlzz174CTzuzsAOSt/s0AX3YuZZVNBHsHwDfwa7oy+3Xvm44lBACwA87CBXNL+9jVB6Zjc30e6srjumbakW1WVxq5ZqbL+46E+U33FW+8MMqW+Tl5ng2znLy6yPU99ti9W6e6tsrKFBApSlN0T9vgk0bTVjk2bbeqPd/0ZeNlzlPZJcvrA9/yNH/V9JrP9wgAAACtfgnQFwAmLXqn9g6ADwDYE0UDu+/Rzt/0e9OxhAAA0j77qW/qpA46cP9MtuQ/3fx2rgPU/tE8ctRr/Rx97fh8R+LVl77e3dj/B/uNqpdPWWaagw/aP8t7+dTHtFXUN/LxgL7y0pm2TOC6/55fd+HgqCMPG9VmtWfm12tNHJu2W9WemT5vrOR62Xj5zlOzPJ/+q5rex6aZBgAAAFoFAN+PAC77/bzaAODzEYA5GeTcN/BrOjt/0+99HUuZg8qrVz8ORn6+ZubLO3/hz35/DJNXN5/rZtlF6X37J8/eywv/2G2zPPo2rywzv+953R2AvLqY183nI1x4/tnd+pt13Pz+yu51M6+cm+nse3XeN223qj0zve+5a7x856lZhk+/VU3vY9NMAwAAAK0CQNmXAM+//YHORwCHn3tRNumVt50QMOGFZdnEl/7qvGd+LODzJUBzMsi5Bnbfo52/6fe+jsU3wNn1q+NgVq14MZNVv2nDPn/80fucQcVMZ9epyntfO779Iw8yUpsfjHz9uNs99/zX7nVzBW3XVfPK8dhjjvB62Tb0vWlLr9U5uuy5rrnK8E3nylt0rWm7Ve2Z6euMl+88Ncsr6he9VzW95vM9AgAAQKsAUPYzQHkA0LjzL+lAgDz4Z/x9j2XyM0D55v9Vzy7Jzrt9TnbQaWd3nhMwefGaQgjw+RmgPVF8A7+ms/M3/d7Xsfh8Pu2qW9MOxvxGudoeZLlahhxd5eg1XwBY8Oxj3UAvTznU/L7l+KZTu0XHJm1JOWYfyM8j77x9eretV1x+Ubetrjo1XRcto2m7Ve1VTa/1to++87RqeVXT2/Uqew8AAACtAoDPg4Ak4I+74NIOBLgeAiTXzpg8owMF5orfPvd5EJA9QTSw+x7t/E2/H5Rj0XoOysGU2TWDkeuPZbR+by55rvO4W3nkrWvr1bSz6b3luUGsrD5anhzttO+tXdq9Jk8cNNPa52Z9XPW10xe9t+tRlNbn3uuL5nfbIT8ZNO3LTxOLbJjtKhqv0045oWtXYKrIptwz61CW1ud+VXtmu+qM16DmadX2+PSRmQYAAABaBQARX9n3ACSQy06AfBwgPwvc/6Qzsh+ccFp2yDkXZqded3N2xdznC1f+kr+fz/+lbr6BX9OZk2kQ5z6O5ZM+fl+sdR2UgzG/Ne36OdwxR4/rOv8HZ9+eGyjk0bxaxzI7rifY9dNOeUiLlinPHjjrzFO677d+/PUTI9W2eZRtZM0rAde8V/Vc7cixat689KZN8zwvvV73HS/TpuwyaP68o5k+L02V61XtNTVePvNU2lG1flXTV+krSQsAAACtA0BIfwZkTxgN7L5HO3/T78sci6xaTCex1157lDpds45mXvN63rn5dD751nxeOtOua2UlT9sz07jsyJfSytI890zvM/Jddszf74s9Vxrzmuw2aLnyxyt67pNXfhbpk76pNGa9fc7ln/zMsuX8rt/OKO0Tn/Fa9/biHts+9THr4pO+LE1Ve02NV9k81XpXrV/V9FqO7xEAAABaBwARZ0h/B2xOFt/Ar+nMvIM4Nx3Lbb++ubsd/utZUzs/MTMdhJznbeXKz/NcLzO/6779k76nn3ywx8nLo2bNdv/nyPK+HuEr9dBH2cqvDKR9Zt2KwMZMJ+f650FSd3kaoXnfrq9Zd/PczKPnPzr79J62munNc00vR/lSoTkm8lNO8/5+++2ba9NMZ9qvc24Do5Tha8+sj5zreH2xZU32yxuv62nX4Ycd7GXXtnnt1T936tTWoUurcs2050pj25G2m3n6HS9znhb9XNcsy6ffzfRyPu2miaP6x8dOXhoAAAAYEwDYvGUkm1XyUCD7M32f92JTbOcJftium47Fdgb2+9UrXsptt53W973r6XtV/gyo6Cl/a60VY1GdisZNfo1QlFfvSb2L7Jj3zC9Van55lKuZJu98w5re/x/Q/K5jng25bqYvSlf1nmnX95n0UkZT42XWd8uHq3vaadbNPLd1aN6rcm7bkbo0MV7mPG0SAN5f/2Zp/5j9WfUcAAAAxgQARKjvbh7Jbn7zvdLP830Cv6QRW2Kz6iQIOb3pWPIc3QnHH13a5ry8ZdddDlP6a9zhh5Q6pmee+n1pvey/rLXrc/KJx5bakPpsXPdGYX3ynpOfN/aPPHTXKHt5aV3X7Y8v7HZJ/7nymdfMPOb1uuf/9E+7dtvm80U9s7yy8frud79T2i7TnpzLqtxsq+vc1qErjc81247Wpe54mfO0SQCQ+gnYF7VN29DPEQAAAMYMAESwErCb2AkQG7EF/34mdNt5ZPV9/72/zuSzctkGXvjc415PArTrKdvk8j/pM6ZNyuSnhK5/GbTzuN7Lb/Tly4DyV7133TEzq/tFPFcZVa7Jlwgfe+Te7JYZUzKBCllFV8k/iLRmMOnXvjlev711Wlb0Pwz9ljEW+UIcr0H2AwAAAIwpAIi4Zcu+zncCJG9M2/6DnPDYjmuHqOp4SrBWAPje9/YZcxipWn/SN6tfAAAAGHMA0Ektvw7w+YmgfiQgaSWP5udIX6CBYg1o8JdjCLsRjFfxeA26fwAAACAYAFCxywN85Cl+c1aPZLetHMmmLfvqJedyTe7185Aftc9xbJ0O/T82/b/143e7q38BAMZhbMYhpH4HAACA4AAgpAlCXXCSsWhAvlCpOwC+P2mMpe20wz2PAQAAAAD4wj05cBr0S0waOOmEYzJ9ff7JGnYAmPc8CfAfAAAAgCMgGKABNJCgBtgBAAAAgAQnfkwrW9rCTg0a6E8DAAAAAAAAAKz+0AAaSFADAAAAAAAkOPFZMfW3YqLf6LeYNAAAAAAAAADA6g8NoIEENQAAAAAAQIITP6ZVDG1hVY4G+tMAAAAAAAAAAKs/NIAGEtQAAAAAAAAJTnxWTP2tmOg3+i0mDQAAAAAAAACw+kMDaCBBDQAAAAAAkODEj2kVQ1tYlaOB/jQAAAAAAAAAwOoPDaCBBDUAAAAAAECCE58VU38rJvqNfotJAwAAAAAAAACs/tAAGkhQAwAAAAAAJDjxY1rF0BZW5WigPw0AAADAQADg5JNPznjRB2gADaCBcDUAAAAAAACwAqyhATSQoAYAAABgIACgwuK4MKMP6AM0gAZC1sDf/1EtEKaafptUG+7b7pBFTt1wwmgADaCB0Rrw9e+ppwMAIMVGd0xSn1DD0v5Fiz/I5DUs9aWerGjRQPMaAAAAAIJAgho49NAHM3nhVJt3qvQpfTosGgAAEnT+wyJO6jkYRyor/298Y2LnxS7AYPoY7dKvw6ABAAAAYBWYmAZk5b/NNhM7L3YBCFTDEKio42B0CgAk5vyZSIOZSMPSr7r6VwCQnQB2AdLWxLBol3o2r1MAAABgByAhDZirf4UAdgGad6wEK/p0GDQAACTk/IdBkNRxcI7TXv0rALALMLg+R8/0bcgaAAAAAHYAEtGAa/WvEMAuAIEq5EBF3QajTwAgEefPBBrMBBqWfs1b/SsAsAuQtj6GRcfUs1mdAgAAADsACWigaPWvEMAuQLPOlWBFf4auAQAgAecfugip32AdZdnqXwGAXYDBjgM6p39D0wAAAACwAxC5BnxW/woB7AIQpEILUtRncJoEACJ3/kyewU2eYehb39W/AgC7AGnrZRg0TR2b0ygAAACwAxCxBqqs/hUC2AVozsESrOjLkDUAAETs/EMWHnUbvGOsuvpXAGAXYPBjg/7p4xA0AAAAAOwARKqBflb/CgHsAhCgQghQ1GGwOgQAInX+TJzBTpzQ+7ff1b8CALsAaesndH1Tv2b0CQAAAOwARKiBOqt/hQB2AZpxsgQr+jFUDQAAETr/UMVGvdpxhHVX/woA7AK0M17MC/p5rDQAAAAA7ABEpoEmVv8KAewCEJzGKjhR7uC1BwBE5vyZNIOfNCH3cVOrfwUAdgHS1lPIWqdu9bUJAAAA7ABEpIEmV/8KAewC1He0BCv6MEQNAAAROf8QBUad2nN8Ta/+FQDYBWhvDJkv9HWbGgAAAAB2ACLRwCBW/woB7AIQmNoMTJTVjt4AgEicPxOmnQkTcj+vW/dZttbzNf6ieZkEdzn65BHbIbeduqF/NFBdAwAAAIBjT1ADV1/zQgcA5IjjrO446TP6LAYNAAAJOv8YhEsb6jlgAKBe/6E/+i8GDQAAAAArwAQ1AAAQwGIIYLShno4BgASdP5Om3qSJof8AADQQg45pQz0dAwAAADsACWoAAKjnOAk89F8MGgAAEnT+MQiXNtRzwABAvf5Df/RfDBoAAAAAdgAS1AAAQACLIYDRhno6BgASdP5MmnqTJob+AwDQQAw6pg31dAwAAADsACSoAQCgnuMk8NB/MWgAAEjQ+ccgXNpQzwEDAPX6D/3RfzFoAAAAANgBSFADAAABLIYARhvq6RgASND5M2nqTZoY+g8AQAMx6Jg21NMxAAAAsAOQoAYAgHqOk8BD/8WgAQAgQecfg3BpQz0HDADU6z/0R//FoAEAAABgByBBDQAABLAYAhhtqKdjACBB58+kqTdpYug/AAANxKBj2lBPxwAAAMAOQIIaAADqOU4CD/0XgwYAgASdfwzCpQ31HDAAUK//0B/9F4MGAAAAgB2ABDUAABDAYghgtKGejgGABJ0/k6bepImh/wAANBCDjmlDPR0DAAAAOwAJagAAqOc4CTz0XwwaAAASdP4xCJc21HPAAEC9/kN/9F8MGgAAAAB2ABLUAABAAIshgNGGejoGABJ0/kyaepMmhv4DANBADDqmDfV0DAAAAOwAJKgBAKCe4yTw0H8xaAAASND5xyBc2lDPAQMA9foP/dF/MWgAAAAA2AFIUAMAAAEshgBGG+rpGABI0PkzaepNmhj6DwBAAzHomDbU0zEAAACwA5CgBgCAeo6TwEP/xaABACBB5x+DcGlDPQcMANTrP/RH/8WgAQAAAGAHIEENAAAEsBgCGG2op2MAIEHnz6SpN2li6D8AAA3EoGPaUE/HAAAAwA5AghoAAOo5TgIP/ReDBgCABJ1/DMKlDfUcMABQr//QH/0XgwYAAACAHYAENQAAEMBiCGC0oZ6OAYAEnT+Tpt6kiaH/AAA0EIOOaUM9HQMAAAA7AAlqAACo5zgJPPRfDBoAABJ0/jEIlzbUc8AAQL3+Q3/0XwwaAAAAAHYAEtQAAEAAiyGA0YZ6OgYAEnT+TJp6kyaG/gMA0EAMOqYN9XQMAAAA7AAkqAEAoJ7jJPDQfzFoAABI0PnHIFzaUM8BAwD1+g/90X8xaAAAAADYAUhQAwAAASyGAEYb6ukYAEjQ+TNp6k2aGPoPAEADMeiYNtTTMQAAALADkKAGAIB6jpPAQ//FoAEAIEHnH4NwaUM9BwwA1Os/9Ef/xaABAAAAYAcgQQ0AAASwGAIYbainYwAgQefPpKk3aWLoPwAADcSgY9pQT8cAAADADkCCGgAA6jlOAg/9F4MGAIAEnX8MwqUN9RwwAFCv/9Af/ReDBgAAAIAdgAQ1AAAQwGIIYLShno4BgASdP5Om3qSJof8AADQQg45pQz0dAwAAADsACWoAAKjnOAk89F8MGgAAEnT+MQiXNtRzwABAvf5Df/RfDBoAAAAAdgAS1AAAQACLIYDRhno6BgASdP5MmnqTJob+AwDQQAw6pg31dAwAAADsACSoAQCgnuMk8NB/MWgAAEjQ+ccgXNpQzwEDAPX6D/3RfzFoAAAAANgBSFADAAABLIYARhvq6RgASND5M2nqTZoY+g8AQAMx6Jg21NMxAAAAsAOQoAYAgHqOk8BD/8WgAQAgQecfg3BpQz0HDADU6z/0R//FoAEAAABgByBBDQAABLAYAhhtqKdjACBB58+kqTdpYug/AAANxKBj2lBPxwAAAMAOQIIaAADqOU4CD/0XgwYAgASdfwzCpQ31HDAAUK//0B/9F4MGAAAAgB2ABDUAABDAYghgtKGejgGABJ0/k6bepImh/wAANBCDjmlDPR0DAAAAOwAJagAAqOc4CTz0XwwaAAASdP4xCJc21HPAAEC9/kN/9F8MGgAAAAB2ABLUAABAAIshgNGGejoGABJ0/kyaepMmhv4DANBADDqmDfV0DAAAAOwAJKgBAKCe4yTw0H8xaAAASND5xyBc2lDPAQMA9foP/dF/MWgAAAAA2AFIUAN/fm59JhAgxxgcGW0gIKOB6hqIFgAWLlyY8aIP0AAaQANooF8NxA4VAACgACihATSABtCAQwMAwJBujyrx/c8XIxkv+gANoAE0gAZ8NaDxAwAAAAAIIAoNoAE0kJAGAIAhDfxKbDqAvsRHOlYHaAANoAE0IBrQ+KHxJNZj9N8BYEIzodEAGkADaKCKBgAAdgDY8ktoy6+KcyAtwQQNxK0BAAAAAAAAADSABtBAghoAAAAAJn6CE5+VXdwrO8aX8fXRAAAAAAAAAAAaQANoIEENAAAAABM/wYnvszogDatINBC3BgAAAAAAAADQABpAAwlqAAAAAJj4CU58VnZxr+wYX8bXRwMAAAAAAAAAaAANoIEENQAAAABM/AQnvs/qgDSsItFA3BoAAAAAAAAAQANoAA0kqAEAAABg4ic48VnZxb2yY3wZXx8NAAAAAAAAAKABNIAGEtQAAAAAZCMfj2TPj4xkc1aPZLetHMmmLfvqJedyTe5JGh+iJA39hAbQABoYDg0AAAkDwMpNI9ntK0eyqW/4vSSt5GFy0wdoAA2EpoEjxh2abbvttp3X3nvviZ/y2NEAABIEgM1bRrL7V73nHfhtQJC8YiM0B9B0fa7690u7DkUdix4XPvd4bvs1Td6x6XqGaM9su6t+i1+el9u3Zl7z/J47Z+X2uauMYb427aaJ3f55au4DQbU7xHmx5cPV3f5SzSxd/GxQ/RaiHgGAxADg3c0j2axlfit+O/Cb78WG2ApR1E3USZ1I0fGQgw9wtr8oj9xron6h2zD7wFVXAKB47kydck03oIUEAOa45p2PxbzY+vG73f7Sei1bsmDo55q2RY6ueVT3GgCQEABIwL75zf5X/iYAyLnYihECtttuux5nss8+e2czpk3KZOWzww479Nz7zS03jpqY5qR1ndedtMOQ32y3q74AwPABQOjzYvyF53Tn5gnHHz1qXrp0GPq1snlUt/4AQCIAIFv2Taz8bQgQmzF9HLDh3SVdJyKT74MNy0Y5kimTrupJ4zMJBz2RferQZpqy9poAcO3VPx/Vx23WNcSyQtsBYF4UA9ugNFQ2j+qWCwAkAgB1PvO3g779XmxXEeKKjc9kc5ZNzWYtvjybueiy7P5lk7PFGx7P/vvzDZXsVCnTN625ivjJBT/KrY85MT/76J3cdFqumV6vxXwsay8AUBxQQgMA5kXxeA1qLpfNo7rlAgAJAIB8c98O2k2/9/11wPKN87Lpiy5xvl5d/1hpIK0r+LL8u+++W3d1/9flL+bW54D9v99N99or83LTaXlNTOT/2ro+u+7aK7rlis3v7/e97Ln5j5aW/5tf3ZRJUJHX55+syU2vaeSodc87zn3sd9kuu+zcrc+Pzj69m6esvU0BQJPt0rbfeMO1nXZIP5nfLP/Wt/45q/J5vADtlOt/0e0f6RPRzUsvPNntp7y+lbpoHxaV+eWna7vj6jNmM6dPzo468rCO7Z133in76UXnZX/640Ol9QlxXuh4uY43Tf1qDPP613W9znjNf/rh7jhs2rii05+z77s12223b2fbb79953jD5KsL+/muO2Z2bWibVANy1Gv2UeaSqz0+1wCABADA56d+U15fl42/5z+yYy65Mjvw1LOyfzvmxOzgs87Ljr9iQnbxnCeyqUs3FEKElOEjuDnLb+oEf13xy6STc4GCO5dO8LLhU06/acwJV2Tjw40rsjWrFnVebewAXPzT87sBwayjeV4U2Pfdd59u/k82rcrtZ9NeUfvtz4PNfG+/9XK3LLnustMUADTZLrMNAlXme/u8bLdqwjW9oGbnl/d/+2y9s2+kv8TJa54iANA0chx3+CG59s4/94dde2Ye83zVinzgNdO5xlOvtTkvzDq5zrVOPse643X6qSd2+3f1yl7923Wb++j9znGy0/m+r/PrGAAgcgCQB/iUrfave/Gt7Kjxl3eCvgR+1+ukX0wqtePzsKBbl1zZCfZbt369bf7l1nWdazMWXeqcGD4TuKk05qRryqbYqWP3sksu7Mlv2rLP8+rcZKA86MD9vesj9XPVKXQAsPvVfi87H652yTV71W/nNd/n2fABgAvPP7tnHPJsnXXmKT3pzPLt8w/fX+lsl5kur5x+rtexa+Z1nfvWp4nxMgHgwAN+UNrfsnNj18/VBp9rAMD/Zn8viePblCUY1vtKcLaY9L08xa8IACYvWZsd+ZPLOkF/3HkXd1b7E15Y3skzYeGK7OLZc7Ovrj9ZaEfKkLK03LyjfOYvq337vn4sYF9v+7054Zosu45dM++pJx/f03cja1/vcTayZe2qd1MAILsdZn3ks2GzvBVvvNBzX9Ka9/V8GABg6eI/99T9ycdn97Ttlb881XNf22b2zwO/u60njewcmB+bnHLScT331UYZAGxY0zvum3MCt9gz6/Pg7Nt7yvvso7c7W9RmGq2DeSy7b6atct603X7smXn6HS8TAMTeccce2dPPX2xZ2zMOO+64Y8/9vD4z65aXps51jR/DGv98650sAMxeXQwAF9z50FfB/4JLs8mL33UG+RteX++8boOFlFUmRlnlAwDl/aT9eMdt07qOY6eddnL2r/xSocxRNAUAd98xq1tW3ir4mad+300j9dK2mEcTAMTOXnvtUfh6dt4jTjtNtUvqZvbhvXfd4izvx+ec0U13/HFHjUpz392/6t6XlaDZZj2X73KYZel181gGAGb+a6663FmO2Js88evvIMjHAGYZei5QYtrT6+ax7L6Ztsp503ar2mtqvGwAcPXBx5tWlfazna9qe+z8Ze8BgJKtA1/CGKt0OoB5A132+b9u/f/skfleQd4O+uZ7n+8BTH+1FwB05e97zGtnU9cHNeH6tWt+2fAvC55wOnBpe5n9pgKlrFi1rDr1MQFA7RUd8z4Hb6pdPn0oacqCpbn9u2b1or7HqwgA9ttv3+4YyBfMmtC+2fcue2X3XXl8rjVtt6q9psbLBIDpN1+fOyZV61c1vU+fm2k0foxV/Gqr3GR3AKaXPPXvgJPO7OwA5K3+zQBfdi5lmeJynds7AL6BX9O5bDZ5bVATrl+7Zj7ZRsxrq5nO9QW1pgKlWY5vfVx1HlYA4cKP2AAAC49JREFUkLaYfWC3reiemXaPPXbv2nGNVx4AyE6IWYYrr1mO77lp05Wn7L4rj8+1pu1Wteebvmy8TAB47ZVnvObpWPSPXSYAEPkOgC8ATFr0Tu0dAB8AsAWogd33aOdv+r2vQ6habr92ffPJxwOa1hUUBgEARX2gdZGjK50JAHUeBNRUu6SOZXXWdsjHA/rSa3o0bRx80P5Z3qtsvEwAkKdPSnozj5Qj30nQcsuO8ouDhx+8M5OPMFwft5j1dtkqu+/K43OtabtV7Znp88ZKrpt975pfJgDIrwDy2m6Wl5fGvF41vZnX5xwAiBwAfD8CuOz382oDgM9HALYofQO/prPzN/1+UBOuX7u++cocVFOB0rc+ZemGGQCKNGe22/fcFVBMAMizU1QP8548nyHPhuu6mVfPzXR6rYlj03ar2jPT+567xgsAKP8mflvb/a5ykv0IoOxLgOff/kDnI4DDz70om/TK204ImPDCsmziS3913jM/FvD5EqDtNDSw+x7t/E2/N51Ak7b7teubDwDYNqv7fAPfvi7ShWnj2GOOyHxeLns+APD0E+X/Evjzn40fFfyPPOKwUfUy6+2qT9l9Vx6fa03brWrPTO8zVpLG1S4AAAAo/S2ii0zqXtMtHJco5VrZzwDlAUDjzr+kAwHy4J/x9z2Wyc8A5Zv/Vz27JDvv9jnZQaed3XlOwOTFawohwOdngHY9fQO/prPzN/3edAhN2u7Xrm8+ACA8AKijHxMAzC9AylMKfTUh5Ztp31//pjN42elc9TbtuO73e61pu1XtVU2f104AAAAIEgB8HgQkAX/cBZd2IMD1ECC5dsbkGR0oMFf89rnPg4DsCaSB3fdo52/6vRlIXX8EpOWddsoJXee64NnyRxj362jM+mx6b3nfDlw+x9Q6LF/6fN925PfLaqdOfZr6CKCpdsm4arvkqONc9WiOl2ur2NdeHgDY9ZTP8/Nsms8K2HPPf81NZ9t02TPbFcK8cNXRpx12PrNddcYLAAAAggQAEXzZ9wAkkMtOgHwcID8L3P+kM7IfnHBadsg5F2anXndzdsXc5wtX/pK/n8//pW6+gV/T2RO46ffHHD2uGwjsh6aYZZnBQh7GY95znZvpXffzrpn1efThe3LLKbN/ycVfP0p41vQpfdu56Cc/7vbPY4/c27edpgCgqXZJ/5f1Yd4Ymddli1jtvL5ofm7/mHlc50UAYD+M6dUXn3aWIx8RaF3OPedMZxotW9PJUa+ZR1OHIcwLs27meVk7zLRy3tR4AQAAQLAAENKfAdkTUAO779HO3/T755/9Q9dp5jnDdW8vLk1j16uqY9L8zz3T+0x6vW4e5ellZfbt55Ob+fV80nVXltp5/NH7StP4PKK2KQBoql3SB2V9qP1UdFy4YK6XnbKyigBAyrc/23fV6dPNb3vVRX4dUFaf0OaFq71yrawddr6mxgsAAACCBQARfUh/B2xOQt/Ar+nMvIM6N52InOsjX7/Ysib75Y3X9TiZww872Llisutm25SfvslT/uyXOO2yvLqFL2llZWfa/s0tN47Kr/bMdHKuf/4ifyJkPuBH7s3/k/vJe2LLtvPByLJOmfKEO3kEqn1fyzePJgCccPzR2UNz7ih9aTmmHVd9mmiXXUaV92b7d931m5n0i+a3gUUe6qP3zGMZAEhasxx5YJSZX8/NNPbjaSWN+Te/mlbz2ke9r8exnBf2vNH3Wjc56jXzWDa/+h2vNgBA2jTtpomj2mWPU5X3+h2yut9FCz1/sr8CUDFs3jKSzSp5KJD9mb7Pe7EptrWcGI5rrRW+6VTsc9/2bvlwdY/Dtu3oewmMtk0JaHq/6Ch/72rnNd9/9MFbXnbkJ4NmPvtcPkIoqod9z84v700AsNPnvc/705Om2mWW66qz7zXzs3fTpus8z6YPAMjz/02brr+vFrAy0+Sdm5+F59UppHmR146y66751cR4DQoA5IubZW3KGy+f6wBA5M8BMEXw7uaR7OY33yv9PN8n8EsasSU2zTJiOZd/RSuaeN/97ncqt9veknXZdzko6dON694orI/rufSusSirg/zzoCuffc21ctT2yJep9FyOdl553yQAiL0m2lVWZ1c78q7Zwdm0LedFf90rNn0AQNKd/cPTSvtaPrO3y9f38ihh2aHwAQApL5R5ofWvesybX3XHa1AAIH2+esVLueMn7Zc0/b4AgIQAQEQiAbuJnQCxEWvwNyeTOEf5/+4Z0yZlv711Wlb0/Hsz36DO5W9E5cuAsgq/646ZWb9fNPvbZ+sy+RKfbI/Kylr+xa+fOssf/0z/5fXZIw/dlfl8GbKfMqrkaapdVcosSvvl//XzLTOmdPpIVtFF6Qd5Tz5CkTGfOX1y9uLzT2Suv6T1LT+0eeFb77J0IY1XWV2buA8AJAYAIhrZsq/znQDJG9u2fxOTCRv9r0ToO/oODbSvAQAgQQDQiSa/DvD5iaB+JCBpJY/m50hfoAE0gAaGVwMAQMIAoBNXHuAjT/Gbs3oku23lSDZt2VcvOZdrcq+fh/yofY7D6yAYO8YODcSrAQAAAGBFX+NLNDjHeJ0jY8vYxq4BAAAAAAAAADSABtBAghoAAAAAJn6CEz/2lQ3tY/WOBso1AAAAAAAAAIAG0AAaSFADAAAAwMRPcOKzOipfHdFH9FHsGgAAAAAAAABAA2gADSSoAQAAAGDiJzjxY1/Z0D5W72igXAMAAAAAAAAAaAANoIEENQAAAABM/AQnPquj8tURfUQfxa4BAAAAAAAAADSABtBAghoAAAAAJn6CEz/2lQ3tY/WOBso1AAAAAAAAAIAG0AAaSFADAAAAwMRPcOKzOipfHdFH9FHsGgAAAAAAAABAA2gADSSoAQAAAGDiJzjxY1/Z0D5W72igXAMAAAAAAAAAaAANoIEENQAARAIAJ598csaLPkADaAANoAFfDQAAAADgADyhATSABhLUAAAQCQDoQHJcmNEH9AEaQANowF8Dfx/yOFhW/23KEgzrfUTuL3L6ir5CA2gADYzWwLDGP996RwsAvh1Auv/N6AP6AA2gATSQngYAgMi3eJjU6U1qxpwxRwNowEcDAAAAwA4AGkADaAANJKgBACDBQfchQ9KwgkADaAANxK0BAAAAgPzRABpAA2ggQQ0AAAkOOlQfN9UzvowvGkADPhoAAAAAyB8NoAE0gAYS1AAAkOCg+5AhaVhBoAE0gAbi1gAAAABA/mgADaABNJCgBgCABAcdqo+b6hlfxhcNoAEfDQAAAADkjwbQABpAAwlqAABIcNB9yJA0rCDQABpAA3FrAAAAACB/NIAG0AAaSFADAECCgw7Vx031jC/jiwbQgI8GAAAAAPJHA2gADaCBBDUAACQ46D5kSBpWEGgADaCBuDUAAAAAkD8aQANoAA0kqAEAIMFBh+rjpnrGl/FFA2jARwMAAAAA+aMBNIAG0ECCGgAAEhx0HzIkDSsINIAG0EDcGgAAAADIHw2gATSABhLUAACQ4KBD9XFTPePL+KIBNOCjAQAAAID80QAaQANoIEENAAAJDroPGZKGFQQaQANoIG4NAAAAAOSPBtAAGkADCWoAAEhw0KH6uKme8WV80QAa8NEAAAAAQP5oAA2gATSQoAYAgAQH3YcMScMKAg2gATQQtwYAAAAA8kcDaAANoIEENQAAJDjoUH3cVM/4Mr5oAA34aAAAAAAgfzSABtAAGkhQAwBAgoPuQ4akYQWBBtAAGohbAwAAAAD5owE0gAbQQIIaAAASHHSoPm6qZ3wZXzSABnw0AAAAAJA/GkADaAANJKgBACDBQfchQ9KwgkADaAANxK0BAAAAgPzRABpAA2ggQQ0AAAkOOlQfN9UzvowvGkADPhoAAAAAyB8NoAE0gAYS1AAAkOCg+5AhaVhBoAE0gAbi1gAAAABA/mgADaABNJCgBgCABAcdqo+b6hlfxhcNoAEfDfx/TywD6FgkPVwAAAAASUVORK5CYII=;" vertex="1" parent="1">
          <mxGeometry x="-140" y="-1070" width="345.65" height="320" as="geometry" />
        </mxCell>
        <mxCell id="4E65rjWqwYdcSZP7xWTO-8" value="" style="rounded=0;whiteSpace=wrap;html=1;shadow=0;glass=0;sketch=0;fontFamily=JetBrains Mono;fontSource=https%3A%2F%2Ffonts.googleapis.com%2Fcss%3Ffamily%3DJetBrains%2BMono;" vertex="1" parent="1">
          <mxGeometry x="250" y="-900" width="440" height="310" as="geometry" />
        </mxCell>
        <mxCell id="4E65rjWqwYdcSZP7xWTO-9" value="&lt;b style=&quot;color: rgb(51 , 51 , 51) ; font-family: &amp;#34;helvetica&amp;#34; ; text-align: left&quot;&gt;&lt;font style=&quot;font-size: 14px&quot;&gt;com.netflix.discovery.DiscoveryClient&lt;/font&gt;&lt;/b&gt;" style="text;html=1;strokeColor=none;fillColor=none;align=center;verticalAlign=middle;whiteSpace=wrap;rounded=0;shadow=0;glass=0;sketch=0;fontFamily=JetBrains Mono;fontSource=https%3A%2F%2Ffonts.googleapis.com%2Fcss%3Ffamily%3DJetBrains%2BMono;" vertex="1" parent="1">
          <mxGeometry x="313.5" y="-890" width="300" height="20" as="geometry" />
        </mxCell>
        <mxCell id="4E65rjWqwYdcSZP7xWTO-11" value="&lt;p&gt;&lt;span style=&quot;font-size: 15.0667px ; background-color: rgb(213 , 232 , 212)&quot;&gt;&lt;font face=&quot;Lucida Console&quot;&gt;refreshRegistry&lt;/font&gt;&lt;/span&gt;&lt;/p&gt;" style="rounded=0;whiteSpace=wrap;html=1;shadow=0;glass=0;sketch=0;fillColor=#d5e8d4;strokeColor=#D5E8D4;fontFamily=JetBrains Mono;fontSource=https%3A%2F%2Ffonts.googleapis.com%2Fcss%3Ffamily%3DJetBrains%2BMono;" vertex="1" parent="1">
          <mxGeometry x="280" y="-845" width="170" height="45" as="geometry" />
        </mxCell>
        <mxCell id="4E65rjWqwYdcSZP7xWTO-12" value="&lt;p style=&quot;color: rgb(38 , 38 , 38) ; font-size: 11.3pt&quot;&gt;&lt;span style=&quot;color: rgb(0 , 0 , 0) ; background-color: rgb(213 , 232 , 212)&quot;&gt;&lt;font face=&quot;Lucida Console&quot;&gt;renew&lt;/font&gt;&lt;/span&gt;&lt;/p&gt;" style="rounded=0;whiteSpace=wrap;html=1;shadow=0;glass=0;sketch=0;fillColor=#d5e8d4;strokeColor=#D5E8D4;fontFamily=JetBrains Mono;fontSource=https%3A%2F%2Ffonts.googleapis.com%2Fcss%3Ffamily%3DJetBrains%2BMono;" vertex="1" parent="1">
          <mxGeometry x="490" y="-845" width="170" height="45" as="geometry" />
        </mxCell>
        <mxCell id="4E65rjWqwYdcSZP7xWTO-16" style="edgeStyle=orthogonalEdgeStyle;rounded=0;orthogonalLoop=1;jettySize=auto;html=1;dashed=1;" edge="1" parent="1" source="4E65rjWqwYdcSZP7xWTO-13" target="4E65rjWqwYdcSZP7xWTO-12">
          <mxGeometry relative="1" as="geometry" />
        </mxCell>
        <mxCell id="4E65rjWqwYdcSZP7xWTO-13" value="心跳检测" style="text;html=1;strokeColor=none;fillColor=none;align=center;verticalAlign=middle;whiteSpace=wrap;rounded=0;shadow=0;glass=0;sketch=0;" vertex="1" parent="1">
          <mxGeometry x="740" y="-840" width="100" height="35" as="geometry" />
        </mxCell>
        <mxCell id="4E65rjWqwYdcSZP7xWTO-17" value="&lt;pre style=&quot;background-color: #fafbfc ; color: #262626 ; font-family: &amp;#34;jetbrains mono&amp;#34; , monospace ; font-size: 11.3pt&quot;&gt;&lt;span style=&quot;color: #000000&quot;&gt;refreshInstanceInfo&lt;/span&gt;&lt;/pre&gt;" style="rounded=0;whiteSpace=wrap;html=1;shadow=0;glass=0;sketch=0;fillColor=#d5e8d4;strokeColor=#D5E8D4;fontFamily=JetBrains Mono;fontSource=https%3A%2F%2Ffonts.googleapis.com%2Fcss%3Ffamily%3DJetBrains%2BMono;" vertex="1" parent="1">
          <mxGeometry x="280" y="-770" width="180" height="40" as="geometry" />
        </mxCell>
        <mxCell id="4E65rjWqwYdcSZP7xWTO-19" value="&lt;pre style=&quot;background-color: #fafbfc ; color: #262626 ; font-family: &amp;#34;jetbrains mono&amp;#34; , monospace ; font-size: 11.3pt&quot;&gt;&lt;span style=&quot;color: #000000&quot;&gt;fetchRegistry&lt;/span&gt;&lt;/pre&gt;" style="rounded=0;whiteSpace=wrap;html=1;shadow=0;glass=0;sketch=0;fillColor=#d5e8d4;strokeColor=#D5E8D4;fontFamily=JetBrains Mono;fontSource=https%3A%2F%2Ffonts.googleapis.com%2Fcss%3Ffamily%3DJetBrains%2BMono;" vertex="1" parent="1">
          <mxGeometry x="490" y="-770" width="170" height="45" as="geometry" />
        </mxCell>
        <mxCell id="4E65rjWqwYdcSZP7xWTO-33" style="edgeStyle=orthogonalEdgeStyle;rounded=0;orthogonalLoop=1;jettySize=auto;html=1;dashed=1;strokeColor=#000000;" edge="1" parent="1" source="4E65rjWqwYdcSZP7xWTO-22" target="4E65rjWqwYdcSZP7xWTO-23">
          <mxGeometry relative="1" as="geometry" />
        </mxCell>
        <mxCell id="4E65rjWqwYdcSZP7xWTO-36" style="edgeStyle=orthogonalEdgeStyle;rounded=0;orthogonalLoop=1;jettySize=auto;html=1;entryX=0;entryY=0.5;entryDx=0;entryDy=0;dashed=1;strokeColor=#000000;" edge="1" parent="1" source="4E65rjWqwYdcSZP7xWTO-22" target="4E65rjWqwYdcSZP7xWTO-26">
          <mxGeometry relative="1" as="geometry">
            <Array as="points">
              <mxPoint x="530" y="-1260" />
              <mxPoint x="530" y="-1380" />
            </Array>
          </mxGeometry>
        </mxCell>
        <mxCell id="4E65rjWqwYdcSZP7xWTO-37" style="edgeStyle=orthogonalEdgeStyle;rounded=0;orthogonalLoop=1;jettySize=auto;html=1;entryX=0;entryY=0.5;entryDx=0;entryDy=0;dashed=1;strokeColor=#000000;" edge="1" parent="1" source="4E65rjWqwYdcSZP7xWTO-22" target="4E65rjWqwYdcSZP7xWTO-27">
          <mxGeometry relative="1" as="geometry">
            <Array as="points">
              <mxPoint x="530" y="-1260" />
              <mxPoint x="530" y="-1480" />
            </Array>
          </mxGeometry>
        </mxCell>
        <mxCell id="4E65rjWqwYdcSZP7xWTO-22" value="&lt;pre style=&quot;text-align: left ; background-color: rgb(250 , 251 , 252) ; color: rgb(38 , 38 , 38) ; font-family: &amp;#34;jetbrains mono&amp;#34; , monospace ; font-size: 11.3pt&quot;&gt;&lt;span style=&quot;color: rgb(0 , 0 , 0)&quot;&gt;CloudEurekaClient&lt;/span&gt;&lt;/pre&gt;" style="text;html=1;strokeColor=#82b366;fillColor=#d5e8d4;align=center;verticalAlign=middle;whiteSpace=wrap;rounded=0;shadow=0;glass=0;sketch=1;" vertex="1" parent="1">
          <mxGeometry x="143" y="-1280" width="210" height="40" as="geometry" />
        </mxCell>
        <mxCell id="4E65rjWqwYdcSZP7xWTO-30" style="edgeStyle=orthogonalEdgeStyle;rounded=0;orthogonalLoop=1;jettySize=auto;html=1;entryX=0;entryY=0.5;entryDx=0;entryDy=0;dashed=1;strokeColor=#000000;" edge="1" parent="1" source="4E65rjWqwYdcSZP7xWTO-23" target="4E65rjWqwYdcSZP7xWTO-29">
          <mxGeometry relative="1" as="geometry" />
        </mxCell>
        <mxCell id="4E65rjWqwYdcSZP7xWTO-32" style="edgeStyle=orthogonalEdgeStyle;rounded=0;orthogonalLoop=1;jettySize=auto;html=1;entryX=0;entryY=0.5;entryDx=0;entryDy=0;dashed=1;strokeColor=#000000;" edge="1" parent="1" source="4E65rjWqwYdcSZP7xWTO-23" target="4E65rjWqwYdcSZP7xWTO-31">
          <mxGeometry relative="1" as="geometry" />
        </mxCell>
        <mxCell id="4E65rjWqwYdcSZP7xWTO-23" value="&lt;pre style=&quot;background-color: #fafbfc ; color: #262626 ; font-family: &amp;#34;jetbrains mono&amp;#34; , monospace ; font-size: 11.3pt&quot;&gt;&lt;span style=&quot;color: #000000&quot;&gt;ApplicationInfoManager&lt;/span&gt;&lt;/pre&gt;" style="text;html=1;strokeColor=#82b366;fillColor=#d5e8d4;align=center;verticalAlign=middle;whiteSpace=wrap;rounded=0;shadow=0;glass=0;sketch=1;" vertex="1" parent="1">
          <mxGeometry x="655" y="-1280" width="210" height="40" as="geometry" />
        </mxCell>
        <mxCell id="4E65rjWqwYdcSZP7xWTO-26" value="&lt;pre style=&quot;background-color: rgb(250 , 251 , 252) ; color: rgb(38 , 38 , 38) ; font-family: &amp;#34;jetbrains mono&amp;#34; , monospace ; font-size: 11.3pt&quot;&gt;&lt;pre style=&quot;font-family: &amp;#34;jetbrains mono&amp;#34; , monospace ; font-size: 11.3pt&quot;&gt;&lt;span style=&quot;color: #000000&quot;&gt;EurekaServiceRegistry&lt;/span&gt;&lt;/pre&gt;&lt;/pre&gt;" style="text;html=1;strokeColor=#82b366;fillColor=#d5e8d4;align=center;verticalAlign=middle;whiteSpace=wrap;rounded=0;shadow=0;glass=0;sketch=1;" vertex="1" parent="1">
          <mxGeometry x="650" y="-1400" width="210" height="40" as="geometry" />
        </mxCell>
        <mxCell id="4E65rjWqwYdcSZP7xWTO-39" style="edgeStyle=orthogonalEdgeStyle;rounded=0;orthogonalLoop=1;jettySize=auto;html=1;dashed=1;strokeColor=#000000;exitX=1;exitY=0.5;exitDx=0;exitDy=0;" edge="1" parent="1" source="4E65rjWqwYdcSZP7xWTO-26" target="4E65rjWqwYdcSZP7xWTO-38">
          <mxGeometry relative="1" as="geometry" />
        </mxCell>
        <mxCell id="4E65rjWqwYdcSZP7xWTO-27" value="&lt;pre style=&quot;background-color: #fafbfc ; color: #262626 ; font-family: &amp;#34;jetbrains mono&amp;#34; , monospace ; font-size: 11.3pt&quot;&gt;&lt;span style=&quot;color: #000000&quot;&gt;EurekaClientConfigBean&lt;/span&gt;&lt;/pre&gt;" style="text;html=1;strokeColor=#82b366;fillColor=#d5e8d4;align=center;verticalAlign=middle;whiteSpace=wrap;rounded=0;shadow=0;glass=0;sketch=1;" vertex="1" parent="1">
          <mxGeometry x="650" y="-1500" width="220" height="40" as="geometry" />
        </mxCell>
        <mxCell id="4E65rjWqwYdcSZP7xWTO-29" value="&lt;pre style=&quot;background-color: #fafbfc ; color: #262626 ; font-family: &amp;#34;jetbrains mono&amp;#34; , monospace ; font-size: 11.3pt&quot;&gt;&lt;pre style=&quot;font-family: &amp;#34;jetbrains mono&amp;#34; , monospace ; font-size: 11.3pt&quot;&gt;&lt;span style=&quot;color: #000000&quot;&gt;EurekaInstanceConfigBean&lt;/span&gt;&lt;/pre&gt;&lt;/pre&gt;" style="text;html=1;strokeColor=#82b366;fillColor=#d5e8d4;align=center;verticalAlign=middle;whiteSpace=wrap;rounded=0;shadow=0;glass=0;sketch=1;" vertex="1" parent="1">
          <mxGeometry x="980" y="-1360" width="220" height="40" as="geometry" />
        </mxCell>
        <mxCell id="4E65rjWqwYdcSZP7xWTO-31" value="&lt;pre style=&quot;background-color: rgb(250 , 251 , 252) ; font-family: &amp;#34;jetbrains mono&amp;#34; , monospace ; font-size: 11.3pt&quot;&gt;&lt;pre style=&quot;font-family: &amp;#34;jetbrains mono&amp;#34; , monospace ; font-size: 11.3pt&quot;&gt;&lt;pre style=&quot;color: rgb(38 , 38 , 38) ; font-family: &amp;#34;jetbrains mono&amp;#34; , monospace ; font-size: 11.3pt&quot;&gt;&lt;pre style=&quot;color: rgb(0 , 0 , 0) ; font-size: 11.3pt ; font-family: &amp;#34;jetbrains mono&amp;#34; , monospace ; line-height: 100%&quot;&gt;&lt;p style=&quot;color: rgb(38 , 38 , 38) ; font-family: &amp;#34;jetbrains mono&amp;#34; , monospace ; font-size: 11.3pt&quot;&gt;&lt;span style=&quot;color: rgb(0 , 0 , 0)&quot;&gt;InstanceInfo &lt;br&gt;&lt;/span&gt;&lt;span style=&quot;color: rgb(0 , 0 , 0)&quot;&gt;注册信息&lt;/span&gt;&lt;/p&gt;&lt;/pre&gt;&lt;/pre&gt;&lt;/pre&gt;&lt;/pre&gt;" style="text;html=1;strokeColor=#82b366;fillColor=#d5e8d4;align=center;verticalAlign=middle;whiteSpace=wrap;rounded=0;shadow=0;glass=0;sketch=1;" vertex="1" parent="1">
          <mxGeometry x="980" y="-1200" width="220" height="50" as="geometry" />
        </mxCell>
        <mxCell id="4E65rjWqwYdcSZP7xWTO-38" value="" style="shape=image;verticalLabelPosition=bottom;labelBackgroundColor=#ffffff;verticalAlign=top;aspect=fixed;imageAspect=0;image=data:image/png,iVBORw0KGgoAAAANSUhEUgAAA0oAAAEUCAYAAAAVwcZDAAAgAElEQVR4AeydZ7scxdGG33+CAWMb2xgwwQYbk2zABIPIGCxyjiJnK2ehjHJGOSOhHI+OEkJCEaGcJUAgkEH+2u91N66ht3dmdsLuOXvO1oe5ekKHqupnZuqZ7q75v/98f8ropjZQDCgGFAOKAcWAYkAxoBhQDCgGFAM/YeD/1Bg/GUNtobZQDCgGFAOKAcWAYkAxoBhQDCgGwIASJR1R0xFFxYBiQDGgGFAMKAYUA4oBxYBiwMNAVRClPcf/YxYdOGHGbD9u3t/ylem28Uu7sc85rpFH2b2ye8WAYkAxoBhQDCgGFAOKAcWAYqAhMNCoRGnjsZNmwJavTKcNXyTayEuZhjCMtqE3oGJAMaAYUAwoBhQDigHFgGKgdjHQKETp8InvzYjtXyciR2EkirLUocCtXeBq32vfKwYUA4oBxYBiQDGgGFAMVBIDDU6Utn910vTc9GVmkiTEiTqoq5LG0br15lMMKAYUA4oBxYBiQDGgGFAM1CYGGpQoQWy6fpqfJAlZoi4lS9UJ3A9nzTZTp00327Ztb3Qy+93J5jH6OGnSFNOxU2ezd9+BRrdpc3lhqE2r8/nRXPCleii+FAOKAcVA08ZAgxElpsqVYyRJSJKk1NkUp+ENGzbCtG7dJtE2aPCQJucY//JXvzKnnXaa6d2nb4PLvv/AQTNg4CDz5FNPmYsvvtj87Gc/M9dcc415/fU3zKTJU0xTJE4rV6629sSm9z/wQIPbNOxBH4dhCB1kedfuvVUha5j81WjTMDn1XNN+yWr/af8pBhQDioGmi4EGI0p51iQJKYpKqTsNCDccWmtGb+pjeq192/Rc86YZsbGnWbV/iTn5nx9S1ZOmTT/vLbfcEji+OL9x2/XXX99gcvlyZj1uLKK0ctUac+6558ba86677jJHj33RpGyKXoKRBx58sCpkT4rhy6+4wkBes2KpUuUqYVNw1b//+3arZpJYKZtqvU3XGdC+075TDCgGFAPFGCggSh9//IlZsHBR2R0aItVFkZxynU8aDW/9oTWmx+rXQ7f6feXXPQp04mT+9re/NQ8/8kjs1q5d+7L3SZRc5TrfGERp7rwFdvRICAV2HTBgoJkydZrp0rWbufKqqwKycdFFF5njX59oUnZlNAw99u2vDtIhGD7nnHPs6B0jeLLddttt5je/+U2BvXfs3FV19i63TTdv2RroXIlnabnuT62n+GWoNlGbKAYUA4oBxYCPgYAoQZLatGEqWGszf8HCsjo0SUKAd/jkiHlmxExz24vvmmvue9Rccfu95roHnzF3vN7ePD92num0/lgs2aINX7mw4zGb+1qSJCNIjCKxD3kavL5zojrC6k17TpzMe++9t8HaTCtjnvwNTZTox0sv/ZN1Un/xi1+axUuWFtn1xLcnzVtvvxM4sqyhyqNjrZctheFvTnxnOnTsFNgb4trcbaZESV+yzR3jqp9iXDGgGKglDFii5JIkyBLH5TICP4otNWrUesUu0+K5Nyw5giCFbXe/1aVkPUl+SttvXVtLir4++U2g44mTJ+2599a8EZwrl/5R9ZRyMqPKVer80WNf2sALX3/zbaQNjhw5ZrZ99rk5fORYyWmK5SJKBw8eNrt27ym5roh8MpL0/PMvROoAWTr//PNtXqbgxdkzjb5h9SSxaVi5vOdo97PtO8yXX6Wbkkq7aXROiuH77rvP2vvss88u2Y9p2vft9O13/7GBLnbs3G3Y969nPYaEg0EwVqqOPESpsfBSSie9rk6RYkAxoBhQDNQqBv6vkiQJoy46cCKW4LRfd9jc8uxrlhz948mX7OjRv5d/bsv8u26Hef6DuebH8/Nj64GM0VapjmRNEqNHfj6Zjuefr9RxUiczrH2c4DPOOMNuH68LJ7U4bJJnw6ebAn1xnuX8zA9n2QX31157bUAyPpozN8hL2ziJLNpnqpoQEdILLrjABkzgepiMcUSJKVgXXnihlYP04KEjBXXs3LXHBiz49a9/HbR51llnmVtvvdXMm7+gIK+0/fmOXUHePn37heaRvETiq1ux0qxbt74oXxZ9k9p09559ge3jAnQw0iV99Mn6T62MOP5nnnmmPT9u/IRQuYcPH2H++MdLAjvQT3+5/HLz5ltvx5KmLDpjy6QY/uCDsYFMmzZvDZU9C8akP7H/O+++a37+858H7Zx++unmpZdetsSvZ6/e1m5gWMqQlrLp+g2fGsg0I5SCfaYTPvrYY+aAR5rmzp1v25B8kko/Llm6LGg7CV5crPTr935Q1pWffe5XaWP1mrWR+fxyeqxOj2JAMaAYUAwoBkpj4P9kul25R5LE+KO3H48lOE8OnfojSXr6VdN+7YHQvB0/ORp63h+poi1pNypl1KipE6Wt2z4LHLco52jjps1BHnG2sckXXx4Pzrdq9WKRc+cTJaKXidMXlnbo0DHU5lFECRIEyaIuSJK/boV1Rq7DG9bmyFGji9rE2WfEgvxXXX211TMKA3Hns+ibxqbXXXedlZE0Sg6i2ol9hIgyEia2GDNmbFFZ+kGuh6UQJkZawtrMojP1JCVKEydODmQLI6dZ20cGIhjefffdQf2+7pdd9hfz2muv2+sE+XD1j7Mpa5cgIFIfxEv2SVlbCJGS+mbNnlNw3c3L/sKFi4O8SfEiWGFtnbTjp088+aRt97zzzis5WueX1ePSL0i1kdpIMaAYUAzUNgb+jzVJlSJJgKvU+iSZcvfS5GWJyJBPjtzjJOuUeqwuJEoykpQ0LdcNk9TJDGuvXEQJBw5yQZQuIoAxCoUTJ22OnzAxcP5YS4WzRyCBRYuXGI7FGRw7bnxQRsqGESWigEGOKMfIx549+wrK4fTKiAjlJ0+Zap17RotGjBxlLrnkUluWcN9hgRgee/zxQCYirU2fPjN2JEVklTSrvq7jW8qmkDyxW1hUNOoSp7xbt+6BfeKcekaSpM6bb77ZzJj5oZ2CtnRZXcGarBtuuCGoL6/OlE+KYQi5yOePHma1ucj/6quvBXUzxY+Rnf0HDpm6uvqAIEnbSYkSI00SiAKSsmHDRjuyyrRARvukf1q2bBnYk/5hlIl7RNr7YOw4e47z7lTApHhxsbL98x1BW6I794B8VIj6YCF5Na3tF732v/a/YkAxoBjIhgE7olTONUl+R3TfGP+D2b/d87AdUYoaTXKJUKl92vLb94/9EaWkBEny+fVlPRYnE+fthRdaxW4bN20p0KtcRImpbWFTodDJddhxvlmY7+rKWiYcb5xCnDX/30Q+UWIqkUzf+/OfLwsNF82UwgcfeshuOPlue+xPmDgpcEJX1K8qun7si6+MO40Q2Ziuduedd5ru3XuY+pWrItdW5dHXdXzjbIoOR45+ETjaYdPvpk2bEei4/fOdgY5RRAmdxTEnmAWy+HZ799//DvLg9Mv1PDpTh2A4LiCJqw+R8KRt0rztMzoput90000GG7n1s+8G70hKlMCJ1OtOmZO6IfDg9KGHHy5qM8kapaR4gZjxUQBZ+vbrX6Qbo78iJ+2KfJpmexmq3dRuigHFgGJAMeBjwK5R8k+W8zgpUWq3Zn/uEaUkRMnXTQhQ0tQvn/VYnExxdOJSf11OuYgSBC1K/lWr1wZOWBSZch1KSI5bl0uU9uzdb3/8io5XXHmlOXT4aEFet1zc/vHj3wQyDRk6LLQOiANTraR9366MaEGavjr+UzAP2syjr+v4xtlUdMPBRq6///3vRTrwjySu3XjjjQXXooiS2wfsSxtuCqnFXoOHDDUu6c6jM/ULhiHAhC2XrXOXrrYPZOoY+jAK46+ny9u+O91ty9bPQnWHwDMtDRmSEiX3/0qEl3dtWWo/LVEqhRfBStj0O0Kxo9fVf/1rKhlL6aDX1VFQDCgGFAOKAcXAjxgIwoNXyiBJp969OHFJbqKUZOqdr2dSgiT5/PJZj8XJJALbG2++Fbv5TmC5iFJYUADRZ+jQ4dYJwxEj8AFOrr/NmvVRkGf6jJkFzpoQlaeffsb84Q9/CPIxoiJtlErJCwFjXQsjTG57AwYOiq0HckCwimeeeTYYyUIX2SAiEByRIY++LlGKs6m0xToskYORNjlPPTKti2lbcp40iigNHDQ4qCtsOqJbh7+fR2fqEgyLLlEpjnzYWrq87UvocUYN/RFNV1fCkiNbUqKEHQkeIvr861//MoyM7d13oKBP3DZkPy1RKoUXFyvu9Dt32h12lPY1VedGMaAYUAwoBhQD5cNAxYlSqWAOTwyabKfe3fR4K9Nu1b5QsvTv5dtNm/rdBdc6rz9m+sz/2AycPMdu7I/+rPTUOx88QoCSpn75rMfiZMZNW4qqu1xECecvqo1nn30ucBTFYYxLcVrduoQouWWYokfELzefvw/BoS4W4btl/f1SRMmvl/DOTHVjEb7UxeiN5Mujr0uU4mwqbUF6RA5GeeQ8a6qQjSACjIzJedIooiSL+f/0pz8X5HfLRu3n0Zk6BcOs5yEAhbtJIASuIXuYDHnbb3n//dZepUZUGOnCrkmJErIy2uVGuxPMQPp79uxlXILr6paWKJXCC7aT9VLu9Ls5c+dZnZial3WE1pVb98v3UlVbqi0VA4oBxUDzwUDFiVKp8OD8aPYfT71iydLfH3zaPDNyliE8OJHu3lq4yTw+aJK59l+P2/8stV97MCBLved/bAaPn1GwTaorDvdcCqxJCZLkK1Vf0uviZFYrURIHHAeRNT5Rm1wnoICrexhRIi/OtERyc/Ozz39qcHrFKSXFMWX9CV/1Xcc6LVGStnAqJeoeowYyEpFH37RECVlk3dD1118f2I11L+j8+BNPBOdE7iiixIgZZQiCIXmTpnl0po04DLdu3SboxylTp4XKlrd9aQNCE4Up5JR20hAlytGvjOyxtkpG+gSbEMEFCxcV6VVuooQchD6nXXf63VNPP23PuQElyKub2kAxoBhQDCgGFAPlw0DFiVKSH85CjP7x9KuWLIX9bJZzLTv2t+RJAjowkgRR6rH8M7uxP2pa4T+AkgBFCFDSNEmdSfLEOZmlyrsjSkyLC8u/cuXqwFGNCg8e9zUbIoJzVmpaU1jbnHOJEuuBcP7FyWSNUFg5ou9Jnvfe61kU2Q5nWK77RIlgE4zC4NyG1e2eE92oC1tyTc5l0TcLUSK0tOhC9D/qkFGYhYuWFOkQRZTc6WulRutcG+TVmfJxGD567IsAA6wLY6Sw3O3LCBx2JDKiXz/HYEYiLaYlSm59yE8kvUcefTToN8gT6+bcfJUgSi5WmH6HLDI1kOmobvu6X76Xo9pSbakYUAwoBhQDFSdKgKzUOiXIDyNLTMMjXPhf73nIXH3XA+b6R58z97bpZV6duSoYSRKiJKNJnTYcM2xynBbUSQmS5Etbf1T+OCczqoycZ62EONmEK5bzbur+5DMLUYKASRtCJtz6S+0LUerR4z0rH2sq+L+R1EkYZ78OfijL9YsvvjgY6XHzELFNyvtEqVPnLvYaZKPUVCRZ20JdEqI7j75ZiBJ68W8jZCDQAmu82P/d735XEEpa9I8iSqz9EZssW14cKZDyhKYmUtukSVMMUxClzjw6U0cpDDNVTGQL+wlw3vZZvyb18y8lGR0U/Ui7duse5MlDlNw6+QGstIsO7jWXKPn/JJN8WfAiU1GxKfcO7XOPhRFQaUdTfcErBhQDigHFgGIgHwYahChtPHayiOgI4cmaCjGS8nKcFhBCgJKmaeuPyl/KyYwqJ+dl3QJfuOWcpDjG4ljhUGUhSowIiDOIrH54cNpas3adjdxG9DbfYRSi1LtP30A+nHTCZ4uT5y5Opz6xCQEu/PYYGXjuuecDmXyi5DqoTGuLmorFf3xk6h2yyP9t8uibxfFFXxnFIsy6RDdr27ZdYC/pT9IoosQokoSQZpqiv7aJsu3atQ/stu6TDUH9eXSmXumvqOmjOPG///3vbdtMj/MJbN726WMJ1ACmmGJH2HhGMCHV/o9skxIlMMtUU9awhdnTDcvt/nQWm7jkzV+3x3W2LHgh+h46Mv1Opt0R3VHq1DTfi1Dtp/ZTDCgGFAOKgTAMNAhRouER278uK1kSYgRRom45DlMy7lxSgiT54upKc02cTEZZWOsQt61Z+3GRQ/TPf/4zcH4ZteFHsDh15OW/R0JySLMQJXR5//0BQT333HOP/ZIN0WAUZviIkcEic0ZB/C/bYUSJOvlZrcgGmXOni7kjEDiBn27cbK+jkxAJKesTJep2/6HUokULwwgLdoFk7Ni520yaPMWO2EgdMtol/ZZV3yyOL23uP3AwsIXI5IbvFrlIo4gS18aMGRvU849//MP+cJafnEJkJZAB9YM5t072s+pMWcFwFFEiDz8jFt1ef/2NsrZP/eCOdV7Shp9C1J5//gV7PSlRkhEb6mKkivsHQk0fgCmJ4sjIp0/IwbPIwJQ//v21Y+cuWxZ52bLgBRxLvZKGPRekDU31ha8YUAwoBhQDioH8GGgwonT4xPem56b4n8/K6FBcKoSoVFrt4BAnU5yeuNRd8C96bfvs84CohJWVRf5cy0qUaMv9YWdYOxAid5RC5IsiSlzni73UReQycTaZUihOqFx3U8iTHIcRJZxJAj9InriUf/1IuyJzVn2zOL7SJgRU5IQ0y3k/jSNK5EUfqScs5We0/gietJG1jwXDcUSJ6XAyxZCRr23bthfpmLV9kZ+RKv4pJCNroj8jQpD6Xr37WNskJUrI7PYL9TGl063/7LPPNgsXLi7SBZkIWCIySOrmzYoXSJvUR/COMPyKTTTN/3JUG6oNFQOKAcWAYqDBiBJg2/7VSdP103xkqRRBkuvVDm4iaYnTUyrF+Q/Th/8LMUWIsNtSB84g/2ZhZELOMQ1JyrtfvGfM/DA4L9f9FGeMUQdZEC91EvTglVdeNQQi8MtwLFMDWc/hX6dOd1G8S3oOHzlmiP7mhmbGKWXqEQ4s7SKDG1bbrZ8v/+3bdwimfIm8pDi6f/3b38yHs2YXySR1ZNE3rU2lLVJZm4R8cf/DQS9x1BmlcetgH7mJPIgD7erMqMeLL74UG+Qii860KRguFXnNHaEJi+iXtX3fBhCQLVu22ZFI9uW6kEimdMo50jibij2F5IlNub+Y7heFe+o9euxLQzASmeJJWTdAR1a8sM5M5OjZq3eBLq5euq8vdsWAYkAxoBhQDJQHAw1KlOg0yFKekSUhQqXSWgIIDh9Ty5gWh4NXCd2pFxKz/fOdNox3pdoR2SFFOKOMMmVtix/WEv2PNSUQR3/dk7QVlja0vmEyZDmH3Ef+10847GnqaGyd07bPKBs/Y2ZjvVOUrjISAwGPyhN3Htzs3LWnaI1VXBmuoQ9BTNhK5U1ynaAfQpSQJ0kZzVOeF6XaUe2oGFAMKAZqEwMNTpQAGtPwsq5ZKkWQ5LoCujYBrf1eO/3O+iT5ce8ll1xqR3L8/p84cXJALogE6V9vKsesPzznnHOsLmEBXJqKHipn7dyf2tfa14oBxUBzwECjECUxHNHwkoQOlzVL5BUiVCqVNjTVG1Ux0Hwx0LNnr4AInXfeeTbyHdM0mZomUwMZhbnooovsiGtTwwLRJAmc4gas2LR5a5MlfE3N/ipv8312aN9q3yoGFANJMNCoREkE5Ke0iw6cMGO2Hzfvb/nKdNv4pd3Y5xzXyEP+UgRJrkvdmuqNoBhovhhg+h3/0JL1WzI1zU2JAsm00aaIA3/NWdj/qJqiXipz870ntW+1bxUDioHmhIGqIEppDCpEqFSapk7Nqze1YqBpY4AgDsOGjTBERiR0PlEfBw0eYurq6gtCcze1fubfYayt4l9YUT8Ubmo6qbxN+17T/tP+UwwoBmoJA0qU/vdvk1rqdNVVH3KKAcWAYkAxoBhQDCgGFAOKgXgMNDmipB0a36FqH7WPYkAxoBhQDCgGFAOKAcWAYiA/BpQo6YhSk1y7oTd//ptfbag2VAwoBhQDigHFgGJAMRCNASVKSpSUKCkGFAOKAcWAYkAxoBhQDCgGFAMeBpQoeQZRVh3NqtU2ahvFgGJAMaAYUAwoBhQDioFawYASJSVK+vVAMaAYUAwoBhQDigHFgGJAMaAY8DCgRMkzSK0wZNVTvwYpBhQDigHFgGJAMaAYUAwoBqIxoERJiZJ+PVAMKAYUA4oBxYBiQDGgGFAMKAY8DChR8gyirDqaVatt1DaKAcWAYkAxoBhQDCgGFAO1ggElSkqU9OuBYkAxoBhQDCgGFAOKAcWAYkAx4GFAiZJnkFphyKqnfg1SDCgGFAOKAcWAYkAxoBhQDERjQImSEiX9eqAYUAwoBhQDigHFgGJAMaAYUAx4GFCi5BlEWXU0q1bbqG0UA4oBxYBiQDGgGFAMKAZqBQNKlJQo6dcDxYBiQDGgGFAMKAYUA4oBxYBiwMOAEiXPILXCkFVP/RqkGFAMKAYUA4oBxYBiQDGgGIjGgBKlEKL0/dHj5oetu8yp+g3m1OI15tTc+h839us32GvkUWBFA0tto7ZRDCgGFAOKAcWAYkAxoBhoyhhQouQQpR/2HrbE6L+zl5skGySKMk0ZACq7PsAUA4oBxYBiQDGgGFAMKAYUA8UYUKIEUTp+wpxasT4ROQojUJSlDgVYMcDUJmoTxYBiQDGgGFAMKAYUA4qBpoiBmidK3x8+Zk7NX5WZJAlxog7qaoogUJn14aUYUAwoBhQDigHFgGJAMaAYKMRATRMliM1/56zITZKELFGXkqVCgJXzhps0aYrp2Kmz2bvvQLMnpBs+3WSmTptu1m/4tNnrKhj5cNZsq/O2bdtrRmfRPU9aS/dFmJ2qTf/Va9ZaHG/d9lmzxHFee2/Zss3aZ/ZHc6rWPie+PVm1soXdA1HnTv7nB7N4yVIzZcpUs2fv/mahU5SuDXFe7Vk5/64h+i9rG7VLlJhuV4aRpIAk/W9dE3XqNLzy30wrV642p512mt3uf+CBZv3A/+r4N+b888+3ui5bXleg67BhI0zr1m0SbYMGDykom/Uh0VDlfvmrX1mde/fp22Byx9kTUg5527V7b4PJk9bWtXRfhNmmGvUHMzyr/vSnP5vm4nCL7cth727dulv7nHvuuWW7r45/fcJ88MFY079/f7Nj5+7U9fLxbfbsj8yIESNMly5dTOvWrU3PXr3M2LHjzJIlS5tsP36yfoPVBX0GD6mO98HcufPMxImTQjcIXV3dCrNr9x4DKRHcVUtajfasFts0ZzlqlijlWZPkkyP/2K5ZcoJElALQhkNrzehNfUyvtW+bnmveNCM29jSr9i+pygdFKV0qdX3lqjX25YoD8sCDD5blAXr02Bemf//37VZNznCHDh2trg8+9FCRnrfccktgByGOUen1119fVL5S/VOOehuDKCW15+VXXGH2HzhYdfZszvdFkvuzEvqXA8stWrSw9ynPl3LUVy11lMPe5SZKkKRBgwYHhKBTp06pyNL69Z+ajh07BuUhFf42YMAAc+jw0SbXl+gmugypEqLUr1+/QCaRLSzt0aNH1c0eqZQ9wdasWbPtBkmslvtd5fjxo39NEiUi1fnkptzHSaPhrT+0xvRY/XroVr9vkd4wDuGcNHmK6dK1m9m3vzwO6+YtWwPSsWBhddj68x27zOmnn27l+mR98bQ7cex/+9vfmocfeSR2a9eufZPCT2MSpXPOOcc8+dRTBdttt91mfvOb3wQYueiii8yOnbuqzqbN9b5Ien+WW/9yOAdLli6zuDnrrLPMgYPNKzJqXnuXkyj5JEkc7k6dOyciS4yQSRnSoUOH2ZGlpUuXmalTp5n33nsvuM5I0xdfNq3fgjAqw4gYuuzdVx1T74Qo8UGQETx3Y0SwQ4cOBTbPMkJYjns4rI5K2ZPp5oLDVavXVN07JswWtXSuJokSYb3LTYz8+mgjCZDGbO5rSZKMIHEjsg95Gry+c6I6krSjeYqnAyZ1xBrSdm+8+ZZ1sP74x0tC+16I0r333ht6vSFlLXdbjUmUouz5zYnvTIeOnQKyBDktt97VVl+13BfVIkeW/vn2u/8YPmYw2tu1W/dmj5k0NioXUbIkafBPI0niaEpaiix9d/J7061bN+ugtmvXzqxZ83FRP339zbdm/PgJgRO7dNnyojxpdNe8p4wQpYEDB4Xakqnnk6dMDWwOeW3udlOiVOyfVVOf1xxR4kexPqmp1HGSn9L2W9fWkqKvT34TPAxOnDxpz7235o3gXGOA5uixLw03MC+LsPaPHDlmtn32uTl85FjqaYI4EswL52sR+2H1ZzkH0WTo+mCCr7hZHLE8OqNPnE2RXdYmde/eI9Qm1UaU4vRB3zT2KidRov/BAc5QHI6S2vO+++6zTu/ZZ59dss40OruyVeqeoI1K3xeiRyk8kC9p32S5P0WOsBTZPtu+w06hzPrMYc3R9s93mC+/+joWV7T/5ltvW8wwbTNMnmo6Vw7b+PpgYwII+PdhOYgS76RBDklauHCRadOGtZutzUdz5gajEpClnRFrlphKK6Rq1KjRkX0EIWM6H3mZgufr6R5znx08dMRi5OChwyWfFW5Z2T985KjF6VfHS2NMyuRNkZt2t3++0xz74stYHf220upciihRP3UOGjTI2rx9+/axa8TStu/Kz4ewPXv3WYyw717Luw/+d+3aY583yBhXX1ai1BhYidOjuV6rOaL0w9ZdoUTpoRtvMWzzuvQxbR563Dx5yx126/TYM+bjfiPMkQmzzPBX3jGv3NPS5nvutrtNn2dfMXs/mBZaH+SLtkoBhzVJjB75+WQ6nn++Ese89M844wy7zfxwll3Afu211wZf0XnxSLvc8CyAZxqSuzbmggsuMAMGDipJmGjrnXffNT//+c+D8kw1e+mll61T3bNXbysH9UubpDx0zjzzTHtt3PgJBde4TnS4u+66y/ziF78M6mXa1KOPPVY09WXu3Pm2Hld+9sUGTJtx286icxqbSltEuhOZ1qwt/rpJvqSOvdQpKQ6i6Pfxuk8K9JM8OKaSB1nkPGkafe+ynWMAACAASURBVLLYizbiiBJT3i688EIrHynOiCsf+zt37TEE+vj1r38d2JGpT7feequZN39BUX7KJLUnC8WlbzZt3lpUV1adkSHrPUHZxrov0uAhbd+kuT9L6U+/DBk6zDBCK/1HyvPnlVdeNfsPHCrqS+kTuRd4JhLJ7s4777TPIKmHYA1EFCN/2DZ/wcKgzVJrIJlye+ToF6H1hNW9e8++4F6NC9pC5EzRw5/Km8U2peyNrMePf2ODzbjPeGTA3qzFyEuUfJI0Y8ZMex8I6Vm7dp3ZuGmzadu2rXW0o8gSzxQpQx+H2VnO8fxc98l6W6+cc1M+yBCkQAJBSL2dO3e2U/nCPthASCB3bMvrVtggBr169QpkWlG/0uzevTfI81FMlEBGuqSuTZu3BLrg/GMHri1ctDg4L7JbuefNN127dg3aRfbuPXqYcePHx5KmLDrTbhKiRD6mw4sdwyJIZm2fuvkwMGHCxAAjtIONxoz5wL5bZsycaY/pT7EVaSl7kgf7Q6gZpRT5mU44bNjwomUD9StX2XYkn6TSl+IHJMEKbbt4IaiMK7u7D7akjQ0bNkbmc8vU8n7NEaVT9RtCiY0Qpaj06RZ3WoLkX3/61rvM/nEzQ+ukrVLgYtSosYkS867l5d+q1Yv2xSrHpC5RIhKYe83fZ95xlM482O6+++7I8pdd9hfz2muv2+t+RCS+5EpbY8aMLWiDOfO8iOW6rPGRY6bAuGG2Z82eE+SVPG66cGHhCyWLzmlsKvaCJIocOKJy3k2TOvZuGfZ50UjdOH3+dY5xLiSP71Sl0SeLvWg/iihBgCDiyAZJClsnNHfeggLyLXq46ciQr8ZJ7Tlx4uTANuvWrS+yX1ad89wT2Kyx7os0eEjbN2nuzzj9sU/btu2CfnOxIPuM9hz74qui/nT1e/uddwvIt5SVdNasj4rK0zYj5pInDHvkYevZs5fNxzMs6t6UvG563XXX2XKk7nl3nw8HyMB9AzFyr2WxTSl70wZBaERvP7300j9ZwsR5/xnvyha1D0kaPHhI4ICOHTfO6gWBEycTokT51avXBOfCyBJlGK2g3Hvv9UxFVH35iNYm7YelkydPKbA95SHGknf06DFFDjPOLPl69ept85H67coxEe2oq3PnLpY0ynnsJW0sWLCwqDxyyfWwFMIUNSKXRWfkSkqUFi9eEsjGu0l0kjRr+5CdAQMGBnX7enfv3t2MHTvWXifIh7RHWsqerAeDgEid7j7nIEwuka1bUR/klTJuCoZpNylWyCt4YX2dK7u7P3w40XNb25HSco+kue00l/3aI0oR65OEAL1z/yNm95hp5vsPl5qdIyebDo88FRCktg89bnaNnmp+8K4NbPVGOFFKsE6px+pCoiQjSUnTcgDRdQp4gTG9iGhNRDhilIHrtDN+wsTgBciaDggFgRUWLV5iOJaX4thx40Nv0FdffS3Iw1QmvhzzRbeurj4gSFKH/xKNekHzspMF91dedZXh6wgva6Y/8TVVSFPLli0DmaiLBdbIL+19MHacPcd56hS7ZtU5qU2lHVJxMCCM7nl3P6lj75Zhv5xEqVIYCSNKfInHyaNNRgX27NlXZBvIhowYUAfz25nSyVf6ESNHmUsuudSW/9nPfmaYRuPaJqk9+YAgWPFHs7JiBDny3BOUb6z7Iim+s/RNmvszSn9sw0iL9Nkdd9xhIDQ8r1atXmsIdCLXwIDvLPj6QdQZdYD8sOFoyccZRr/dZ4aLL4KE0M7LL79SgDs3DyNTIgvkxb0Wtw/5knJhI1boIM8/RnHcurLaJs7e1C+jRch1++23BzZfuqzOvPBCq0BervvPeFe+qH1GbcSR5Ou/2J1UzgtRog4cUXFW+/XvX2ADrg8bPjwoR5S1ZcvqYkdRwuRatGhxUAfrbnBuCZwA6eVY5PJHdFznlzyQNiKfEVmNqVgywshouNQRFhGNfKLjtGnTC3SMc+znzpsf1Nu3bz+zfHmdnSq59uN1BeuyevfpU1AnNsiqM2WTEiXIo+jtj/xmbR/fgNkBUi/T+xjV2bf/gOEDmBAkuZ6GKPEMkUAUkBR8J3DJ+0JG/KiXKaOCI/qHZ5JL6plGyjk2rpM3KVbI6+Ll8x07g7akzS+/Oh6MpIUReMmn6U8zBWqPKM2rDyU1QpQgQu6apUMTZgVE6YA3cnR44mx7rdWd9xWUkfKn5tUXgdQHnz+ilJQgST6/vizHrlPAtKWwqUXuS/fmm28uciy4oW+44Qb7ImTKBQ6SKwujAvJSv+mmm0LnHL/19jtBHv8lGvWC5iEn9fpT5mgfpxkC8tDDDxe1WWoNRB6dk9jUtQ/72AVdnnr66QLbufnEscc+OB5x28ZNP03BKCdRqhRGfKLE9CKZ4vnnP18WGZ6baTH0MRsOmWsv9idMnBRgZEX9qoLrYs+oYA6UnzZtRlCeSHhu/XkwkveeQI7GuC9oNym+8/RNqfszTn9GieS5cMWVV9rpYG6/sd+pc5cgD86Te93Vjw9HrMV0r7Pfvn2HoDxrO/zrHMsIesv77w+9Tp5evfvYeiBeMtUmrC7/HM6TEKGw6Xcubl358tgmCm/IxtozsflfLr/csCjfl5nIkpLHf8b7ecOOZcoQARbcd0wUUaKOlatW22lQON5+nayvdae74cgyVe399weYadNnGP6bI2TML8sxIeyFpEA2/A8xrDOCaEi92E/qcZ1fSFLY9DLyHjp8JGgjbPodTrg49nwckvpJo4jSkaPHgjIEtEAPtxz7TE2TerkX5XoenamjFFGCzLg6EQlP2ibN0z7PXNGpT5++Rf1F/W7wjjREyf3HUth9jH8yZMhQM3To0IAAiV6l1iglxQr1QcxExw9DppRyD8l12hUZNP2JGPm2UKL0vx/FQpQeu/nWUMIjJEoIkJs+fFML8+g/wsslIUp+hwgBSpr65bMcu04BjndYHXyFlRdcGJGijEtacJDcetzpNFu2hv+xnhffeeedZ9vxX6JRL2j3vx585XXbLLVfyhHLo3MSm/ryXXzxxVZ31nD51+RYHHvpi7jUXZdTTqJUKYy4RIlF4GIPHN08/zBhzYTYifUqYktSsSeEjNDzsnXu0tWOcsr0JsrjlPrru/JgJO89gfyNcV/QbhZ8u3aX/bi+KXV/xurv/KB67cfha/J43jAVjL5l/YzIROrqh3PvXpN9pvMKrqLWKj3zzLM2z9///vfQOqQuPgqEOatyPSrlAxAyhNXP/+a4duONNxa07f40Nq1tovCGfEuXLg/sETWFECIh60j9Z3yUjv75MOISR5QoH1ZG6oUsMZLgrikRR5KU6WyQprApmmBA8kYRHdeBdgmr6/yOHh0dTAI5ca5pp3fv4ul3/B+Ja31CRn6iiJIrE/tiCzdl+vecOXPt1Putzjs7j87UL0SJ9T+ELXc3+kGmjqETJHTjxsJpd3nad6e6hX38QD4wLsE70hAl9x9L/LzYtWWp/TREqRRWaEvwEjb9jnDs2LZnz56pZCylQ3O+XntEKWbqHQEcXBIk+6WI0iM3tQgtlzREuAuwpARJ8rlls+67TkFYoATqHTp0ePASrFux0jqMOI3uxtQWcRymz5hZcBNKiGUCMrhfAn2ZCb9MHf5LNOoFzYuXBfvS7r/+9S87AsD0GL9u/7iUI5ZH5yQ29eWRr8OsWfCvybE49kTHI5R43OYS0nISpUphRIjS008/Y/7whz8EfYpDIfonSclvF1+vW29HmFxcEnDErUPsKfiJSq/+619D14/kwUjeewI9GuO+oN0s+KZcmr4pdX/G6T94yNAAPzJ9hfz+Btboc6btutdc/XxyLfmYDiR4iVqnxEcP8vz+978vqF/qyJuy/ktkgGxJfcgvzxOmFct50jy2icIb9TIKI7L4Iytu+3LP+c94N0/a/VJEKUl9EAOCKowcOaooKIMQEf9ZNMeZCmiDPWzcbB17nHvZXOd82fKfRrypi3rZ/Gl5vrzu/55YsC/X3dEVpmzJeUmjiNLsj+YEbYMVyZ8kzaMz9QtREt2jUhz5sEADedqXsOOMGoLlKH0JSY5caYgSdmzrBHDgJ8iMjBFVj1GyqLY4n4YolcIK9bl4caffudPusGOcTHrtp/dF7RGlmGAOZSdKCYI5+GAUApQ09ctnOXadAqZrhNXx7LPPBS9BeRnGpTiBbj1MPSE/Dqd73t/niz75/Jdo3Auar/ryldKVCWcb0uE6EG57pRyxPDonsakrC46FyB7lmJFfnIy4qWJuvbJfTqJUKYwIURI7kDKNMyqwhehGikMA5ljf5Zb396OIEuvcWPjubrIGhWtRL9U8GMl7T6B3Y9wXtJsG31n7ptT9Gac/01fpe0aMyBe19ev3foAX17lPoh/rIAVfUURJ1uywPi5Khjzn6X/5XxMESOqaPn2mlQ0M+yMheWwThzeZVlfK5jLF2n/Gi+xZ0nIQJb9dQjsz1U3WneA4M3rj5hs5alRAOKIcfvc8jrqUd4kSDrWcD0vtPfS/H7G6wZVYU0X9jLwwMuaXjSJKspjfX7vmlw87zqMz9QlRwq4EoXA3mcbINfd+dOXI074EAik1msIoF3ZNQ5SQkdGusJFJogoSndElua5OaYhSKaxQL7YT3LrT7+rrVwV4PXAwPOKnK5fu//juqDmiFBce/Imbbw8dGco6opQkPLgPxKQESfL55bMcJ3EKnnjyycApIExu1IbjwDUexK4srVu3seUhNHFfV6Qd/yUa94KmHXTgyylrSORLqjgxOAuEGnXlYb+UIyayiE5pdE5iU1cebIIzRVusWXCvufvVTJTy2Asdw4gS9oC8xGGGtREQcOlvUkgya74YYXTJTBRRCiOeglnqmzJ1Wmif5NFZ6s96T2CzxrgvaDcpvvP0Tan7M05/IQMESiBf1FZpoiR97D/PouTJcv7df//bYv/6668P9JTAMI8/8URwTurOY5s4vAlRKmVzoghyT5XTJpUgSmIvHErCfOM4M2LgBv4QwsE1RtSiNrlOAAWpNw1RooysGertvB9Y80Ldw4cPD+qV+kmjiBKjZpTDgXfzJ9nPozP1C1EK++HsxImTAkd+qfebDpEtT/tSP2QmbjqmtJGWKCEj/croHmurhPhhazaOV/0vkp3oQ1puokSdghd3+t2IESOtHG5ACVcO3Q9/V9QcUYr64SxkKGqtUSmixDolmabnpkl+OOsDUwhQ0tQvn+U4idODg8nLrdTUuaj25QsndfgLTqUMzrBEOPNfonEvaCkvKS8HIuk98uijgfMMeWI9hOQhLeWI5dE5iU1dWdiXENg4V/41OS4HUWLqpNTnpu7ahbjw4FEjSnnshRwuUWIhOE4eeGGL+gEv5YjQKPkI8+t/iQRXcj0NUWJai8gELsGVay/28+ic956g/ca4L2g3Kb7z9E2p+zNOfzeqW1i/UZZN1hDFTb2LwnuSEaXnn3/BYu+aa64pwo7IkDflK7bgm6iQ9I2Mhi5ctKSo3Ty2icNb0ql3LVq0sPL6z/g8dshClHjGENQgydow1pyIs/vZ9p8Ce8h5pnK5BCqJLmmJEmGlRYbde/YWBDWIWhMWRZTc6Wv8UyiJvJInj87UEUeUWIsqIzKsDQv76W6e9mUEDjuG/WYC+VgaQNvkyUKUxE6kyE80vaHDfpzKR52QpS++LPwlQSWIkosXpt8xM0OmBjId1JVT98MJktil5ogSirN2yCU07EOGoghPFqKUZX0SsiUlSJJPOjJPmsTpwbmWl3HUotU4GVgzIuWJBBW2Tqlrt+5BHv8lGveCjmvX/WLsEwTXEXOnM0h9eXROYlNpR1K+CGOj5557PvIhlpUosWZL7E/YdGnTTd2fqmYhSnnshRxCSnr0+PH/DxCeq66+OpCbcPKuvLLPD2XRjeAPYbhinrvonoYoUX/ffv2Dsn369itqP4/Oee8J5GuM+4J2k+I7T9+Uuj/j9HcDy6QNWJBUvyREiRFNsEdKvZXaiDJHO0zbZX0o+7/73e9Cv5rnsU0c3txgDmFRv9Cde1qmSfvP+Dy2yUKUpkz98d9HOK78FiKufVnbgqPrhuhmXRLn2FwCFVeXXEtLlPjgw3+NaIsgC6x3Yh9nPoqkRRElnoki98cRwU4oS6Q2ApUwDVHkzqMzdcQRJa4zVUxkC/sRcJ72CaYhdRP8CTyLXpISYl3y5CVKUqfVa9bsoF50cK+5REn+n+VeT4sVylq8dO9u28Sm3PfoBRENI6Bue7pf+KyuSaL0w97DRUTJJ055j2kjC9iEACVNs7Thl0ni9PDVTZxNnPWwB/Oatets9CUiMPmkhJtWAjVQD1OWCNXMVz0e2v4PO/2XaNQLunefvnaqHxGe/Ln46AkBErn58urq7jqq/poq8uXROYlNXVnYl59Dxn19zkqUqF/+N8VIm982joa7vicLUcpjL+QRokSfinw4JYQjpw+5vv3zwmiK5BObEODCxyW4g3gKBtISJZwFFuJTHgfPj76XR+e89wS6N8Z9QbtJ8Z2nb0rdn3H6F4XA9v6fRdmk4cHzjCjJKPGLL74UYJq23Y17j48AfkRFN0+pfRnZ5BcNEgkv6p9MeWwThTfkg2zIfcaPfP0RfPLItD/y+c/4UjrGXc9ClFznlGlKYR9ZaJOgHTL1jjDePBNEFp4H4lRDAMJCon/66SYbrY6Ida6DnMX5ldEUQo5LZLNJkyYH8ohckkYRJUaRRG6m34Wtb6JeyeP+aiKPzshViigx8sEPgsWp90lsnvbpYwnUQP1MsaNPuCf4MOP/xDYNUZo580M79ZJ1bIxUSh9I6obldn86y3WXwLnr2KRsFqxQVvDC9DuZdkdkQalX08JncZQ9apIoYYxTK9ZXjCxRd5TBS51PSpAkX6n6klxP6vS4Uyvuuece+3InZj8/Oxw+YmTgiPMl032ZiAyck1ETeaG6KQ6pTFXxX6JRL2gcDKmDkSocfF6a5OeLm0RPY7QBx1RkIeWBLGWZWsX/dhiOp6zky6pzUptKO6TiuLFWKcx+5BHHk5EW1l3Fbf5X3X/+85+Bvoza8EM7XhDk499YYgvSLEQJ+bLai7JhRInz/NBYZIPM+cEd3FGf11573Xy6cbPNg17iNEr5tESJ9vmBspR//fU3AmxwjS2PznnuCdpurPsiKb7z9E2S+zNKf2wzcNDgoN9YX0ikL5xePuh06NAxuBb2X7gk+pUaUcKhE9z4uBPskLo/HQ4b2XbzRu3vP3AwaEvadJ1bv1xW28TZmzYkGA8yYHP0weZ8OHvppZcLZPSf8b6MaY6zECXqd/+h1K9ff8PoCj+L5b7cuXO3WbJkqR2xEcIwfXpxsKNZs38aKRgwcKD9co/OfORhTZIsqsfpdr/kZ3F+mRkgskjqhu72bYYekm/BgoUFzy6O5Vrfvn3tD2d5J0DsJJgB1yE2fr1ZdaaeUkSJPER2E9nGelEbuZ6nfZ4rrPOS+v0UkjZq1Gh7PQ1RkhEb6mO0CjKE/dnAFYSUa4RF90n5sS9+Iq5M++Odx0/TZRp5FqxgJ7Ds67fh041F/Ule3aJtULNE6T/HT5hT81eVnSxRJ3U3JdAlcQpEH4lYJC9jP8XZXfdJ+H8ZqAPngUW/ErhAyjMiBOGSny/6L9GoFzQPHEib1EPK/Hy3fn4YuXDh4tA+kVEct7yfN4vOaWwqtsWxFznCwqKST4iS5ItL3cXdlOW/ETKqFFZO1mtwLStRop0s9qJcFFHiGqNMIjPR4lzSi/MghFjyuCnkSY59h1XsGRbMgXbZwJhMbQJXfImWa5Jm1ZnyWe8JyjbWfZEU33n6Bv1K3Z9R+ku/tGnTNuh7wYCb0q98LJD8kibRrxRR4ufH0lYYZqQtwRZ5IXByPm3qPgf5kFKqfBbblLI396X8v0l0d1M+dAgx9J/xpeSNu56VKOFI8uNR35kMO4Y80I4vBzq7PykNK8t0J5+4ZnV+IWPSBmsy3WehL1scUSKvS4ikTjflZ7RueGmpP6vOlE9ClJgZINMMkYfRZWmbNE/7lCdAh/xPyNWX0SAILqNDnE9DlJDZ7RvK+8EcGJFcHRLMAZmI/ufKwr7kzYoV6oW0Sb2QNZ+kkUe3eBvULlH6/pT5/vAx8985K8pHluassHU2NdC5X25nzPww9qbhAcUXdAm6IC9Bgjzw00YWEyfRH0dky5Zt9us/+1KGH31SJ9Oo5BwpLyghP3zhd68hE0PorsNBHbyIme4XJxNTEHjZyBQZyvkLoLPonMamogsPMCEyfPGV825KVD+xeamUqG9uWfZZWMqXXsJuS3nsxL+ReJHLOZ+opdEni72QTXRnXZkvN3W6wTl8wsPUESJ9yfoH9IAg85LAruCTc24IZdoQe7Zs2bKoTVcGd+QyLJJYVp3dNtLeE5RtrPsiDR6y9g36lbo/4/SnPP1C8AL5ebHgGzwwwsFIjNsHsp9EP2ST+sJGgmSEGBIv9YalrBnkI8Ell1waOrU0rEzYOVmbhEz83yssj3sui21K2Zv6mX7G/6PcZwzPbqYf8lGA5y0ylvPfUujCl3ocwjhS6uov+5CJyZOnBNO9xKmUlFDSdXUrYu2JXRjlkCAAUpYgD6z9JPiCtCepO4qw3Pm/klyPSmVtEm2U+hcOzrvIEvb/HZ6NjHrJaIfkxZajx4yxEdyi5MiiM3URDY52SkVec0dowqL6ZW3f1Yep09s+2259EciIXBMCyY9n5RxpUnu6JA9dIVxM+QvDgdR/+MhRM33GjGCaJ+UkSEdWrFA368ykX2fMLPy/pbStqRKlAqD7gIAslWNkiTqoy6+/uR7zYsIBYm4tIYA5jtOVL5H8AJWNh1NUXqbP8RLF6Y3KE3eeB9nOXXuK1pLEleEa8jPMLUPdYfnT6hxWR6lzL7zQyur/17/9LZP+peqX67xkGNpn6mSpvpMyadOGsJcvEy9+iDEjGZXSy2/TPU6jc0PdE8hXyfvC1T9uP0/fYNdS92dc25RnBIjnFdjA9nH5816jvYsuusjey4zclKoP21CmVL5KXK+UbbAxswT4jx3Pm0rI7taJo+kGWnCvJd0/dPiI+WT9BsN6Eqa0ha05iquLfjx46LCN7AoJ5zguf7Vc+1HuI1Zu7JhGrsbWOU37kGJmVrBB2qP0lFEYwq9H5Sl1HuzgizB6lebeRh9+DOt+QC7VVtx1An8IUUKeuLx6LZww1fSIUgAKpuHlWLNk1yQ1sel2ge4NNOzKA0p+jMiXU77G+jJMnDjZOhYQJb7C+ddr4Zhpi+jP5k83qAX9a0lHvSfCX0rNAQOsg+IeZiQlLABJc9BRdWi++G2ufctIsawZ69q1mwkjhYsXLwmIRdj/F5uSbQgqwXReiBIhypuS7NUkqxIlhygQqS4sdHhUBDzyZo1uV00gaChZevbsFZCA8847z0a+48tNz169gylQOBd8iWWko6HkqrZ2WrV60dqJtTXVJpvKU17nSO+J8tqzWvD56GOP2Xs4yWhStciscjRPLGq/FvbrjBkzAyLE1Dqm7RMdjmlpMi0QYsH0Q4JyNEX7EcmPKZVu0Iosv3VpirpXQmYlSg5REgPzo9gftu4yp+o3WOJ0am69sdviNfYc17L8TFbqr9WUqRjM25e1RjJy4qZEoAoLVVpLNmNKgAQ28BcA15IdakFXvScKnZjm0Of89oBnGmv/+ILdHHRSHZofTmu1T5nCK//Qkilpftq3bz87hbKp2shfcxb2P6qmqltjyK1EKYQoNUZH1FKbBHEYNmyEYcSEkNVEW2PBdV1dfcXXDjQVOxN5r3v3HjZMaFORWeXM7kzpPZHddtWGu1mz59h7d3mJAADVJrfK03wwqH1Zui8J4jB37jzDf4UGDhxoRo4cZT76aI4NeMS06KZsQ8Kbs76Kf2FF/VC4KevX0LIrUVKi1KQfCA19w2h7pV9AaiO1kWJAMaAYUAwoBhQDzQEDSpSUKClRUgwoBhQDigHFgGJAMaAYUAwoBjwMKFHyDNIc2K/qoF9xFAOKAcWAYkAxoBhQDCgGFAP5MKBESYmSfj1QDCgGFAOKAcWAYkAxoBhQDCgGPAwoUfIMosw7H/NW+6n9FAOKAcWAYkAxoBhQDCgGmgMGlCgpUdKvB4oBxYBiQDGgGFAMKAYUA4oBxYCHASVKnkGaA/tVHfQrjmJAMaAYUAwoBhQDigHFgGIgHwaUKClR0q8HigHFgGJAMaAYUAwoBhQDigHFgIcBJUqeQZR552Peaj+1n2JAMaAYUAwoBhQDigHFQHPAgBIlJUr69UAxoBhQDCgGFAOKAcWAYkAxoBjwMKBEyTNIc2C/qoN+xVEMKAYUA4oBxYBiQDGgGFAM5MOAEiUlSvr1QDGgGFAMKAYUA4oBxYBiQDGgGPAwoETJM4gy73zMW+2n9lMMKAYUA4oBxYBiQDGgGGgOGFCipERJvx4oBhQDigHFgGJAMaAYUAwoBhQDHgaUKHkGaQ7sV3XQrziKAcWAYkAxoBhQDCgGFAOKgXwYUKIUQpS+P3rc/LB1lzlVv8GcWrzGnJpb/+PGfv0Ge408Cr584FP7qf0UA4oBxYBiQDGgGFAMKAaqFQNKlByi9MPew5YY/Xf2cpNkg0RRplo7V+XSB49iQDGgGFAMKAYUA4oBxYBiIBsGlChBlI6fMKdWrE9EjsIIFGWpQ0GYDYRqN7WbYkAxoBhQDCgGFAOKAcVAtWGg5onS94ePmVPzV2UmSUKcqIO6qq2DVR596CgGFAOKAcWAYkAxoBhQDCgG0mOgpokSxOa/c1bkJklClqirOZOlLVu2manTppvZH82pOUI4adIU07FTZ7N334Fmr/uGTzfZfl6/4dNmr6v70vhw1myr97Zt22tKb9cGafdr6b4Is0016r96zVqL463bPmuWOM5j86bwDjvx7clm0W8n//ODWbxkqZkyZarZs3d/s9Ap7BnQkOfUpulJTjn6p3aJEtPtyjCSFJCk/61ros7mOg2vW7fu5rTTTjPnnntuK64PugAAIABJREFUTT30Vq5cbfVG9/sfeKBZ6/7V8W/M+eefb/VdtryuQNdhw0aY1q3bJNoGDR5SULYcD6tK1/HLX/3K6t27T98GkT3OnpByiNuu3XsbRJYstq2l+yLMPtWqP7jhWfWnP/3ZNBenW+yf1+aVeIcd//qE+eCDsaZ///5mx87dqe9XPr7Nnv2RGTFihOnSpYtp3bq16dmrlxk7dpxZsmRpk+3DT9ZvsLqgz+Ah1fE+mDt3npk4cVLoBqGrq1thdu3eYyAkgrlqSqvRptVkn0rJUrNEKc+aJJ8c+cd2zZITJKJU5204tNaM3tTH9Fr7tum55k0zYmNPs2r/kqq7WSvxkillm2q4vnLVmoAoPfDgg2V5gB499oXp3/99u1WTM9yhQ0er64MPPVSk5y233BLYAUcsbrv++uuLyldDX8bJ0NBEKak9L7/iCrP/wMGqs2dzvi+S3J+V0D8On2mutWjRwt6fPGPSlKv2vHltXu53GCRp0KDBASHo1KlTKrK0fv2npmPHjkF5SIW/DRgwwBw6fLTJ9SO6iS5DqoQo9evXL5BJZAtLe/ToUZWzRyphU7A1a9Zsu0ESq/0Z0Bjy1SRRIlKdT27KfZw0Gt76Q2tMj9Wvh271+xZVFWjL/ZJpDMBnbXPS5CmmS9duZt/+8jism7dsDYjGgoXV0c+f79hlTj/9dCvXJ+uLp92JY//b3/7WPPzII7Fbu3btqwq7Sfq9sYjSOeecY5586qmC7bbbbjO/+c1vAoxcdNFFZsfOXVVn0+Z6XyS9P8utfxKcJsmzZOkyi52zzjrLHDjYvCKz5rF5Od9hPkkSh7tT586JyBKjY1KGdOjQYXZkaenSZWbq1GnmvffeC64z0vTFl03rlySMyjAihi5791XH1DshSnwQZATP3RgR7NChQ4HNs4wQJrk/s+aphE2Zai44XLV6TdW9Y7LaqpzlapIoEda73MTIr482knTUmM19LUmSESRuBPYhT4PXd05UR5J2ypGnnC+ZcsjTlOtI6og1pI5vvPmWda7++MdLQnEnROnee+8Nvd6QslaircYiSlH2/ObEd6ZDx04BWYKcVkLvaqqzWu6LapEja998+91/DB80GPXt2q17s8dNUjuV6x1mSdLgn0aSxNGUtBRZ+u7k96Zbt27WQW3Xrp1Zs+bjoj76+ptvzfjxEwIndumy5UV5kuqt+X5c2yJEaeDAQaG2ZOr55ClTA5tDXpu77ZQolV73VHNEiR/F+qSmUsdJfkrbb11bS4q+PvlNcEOeOHnSnntvzRvBuYa8WXnJsviSYVge6NJ2mpfMkSPHzLbPPjeHjxzLNIXw6LEvDTcwLwtp30+ztoF+zAvnaxH7fr15jiG62O1gia+4WR2xrDqLTlF2RW5Zm9S9e49Qm1QbUYrSRXQlTWOvchEl+t6/d1yZZD+pPe+77z7r8J599tkF96PU46dpdHbLVuq+SHpPIEvW+4KySfCQtG/yyOHa1N1Hvs+277DTKLM8d1hvtP3zHebLr74OvT/dtth/8623LW6Yuulfq6bjvHYJ0wX75n2HhdXLOd5JgxyStHDhItOmDWs3W5uP5swNRiUgSzsj1iwxlVZI1ahRoyP7B0LGdD7yMgUvSibOc58dPHTEYuTgocOJnhV+fYePHLUY/ep4Moz55bMcIzftbv98pzn2xZexOvr1p9W5FFGifuocNGiQtXn79u1j14ilbd+Xn49he/buszhh37+e9Rj879q1xz5rkDGunjxEqTHwEqdLpa7VHFH6YeuuUKL00I23GLZ5XfqYNg89bp685Q67dXrsGfNxvxHmyIRZZvgr75hX7mlp8z13292mz7OvmL0fTAutD/JFW6U6jjVJjB75+WQ6nn++ksfHj39jF+r//Oc/D75in3HGGeaVV161c6RLESVuSBaoM03IXb9ywQUXmAEDB4USJl76tME288NZdgH7tddeG5TnxePqnKUNKU9b77z7rnH1Y6rZSy+9bB3qnr16WzmQX8qQ8tA588wz7bVx4ycUXJN8RIi76667zC9+8ctAdqZOPfrYYwVTX+bOnW/rce3DvtiAKTNSp6RZdE5rVyLdiUxr1hZ/3USWpI69yO2mOIii48frPinSkbw4p5IHeaR8Wl2y2Iu24ogS094uvPBCKx8pDonIR7pz1x4b6OPXv/51YEemPd16661m3vwFBXmlXFJ7slBc+mbT5q2hdWXVGVkqdV8kvSeQIc19kRYPafomjRxJngv0y5ChwwyjtNKHpDyDeK7uP3CoqD99/Yhid+edd9pnkNRBoAYiigmWwtL5CxYGbcatg2TK7ZGjX8TW5da/e8++4D6NC9pChFS5n/2pvFnsggylbJ73HebqGbbvk6QZM2ZamYT0rF27zmzctNm0bdvWOtpRZInniZThvRfWlpzj2bnuk/W2XjnnpnzMJEiBBIKQejt37myn8rkfO6UchARyx7a8boUNYtCrV69AphX1K83u3XuDPB/FRLplpEvq2rR5S6ALjj924NrCRYuD8yKDlXvefNO1a9egXWTv3qOHGTd+fCxpyqIz7SYhSuRjOrzYMSx6ZNb2RXc+DkyYMDHACW1hpzFjPrDvlhkzZ9pj+lTKkJayKfaHUDNKKfIznXDYsOFFywbqV66ybUg+SaUvXT8gLV4IKOPK7e6DLWljw4aNkfncMo29X3NE6VT9hlBiI0QpKn26xZ2WIPnXn771LrN/3MzQOmmrVAczalQNRIkXFwv45UXsp5de+if7Yud8VNQ7InX55dxj5gX79mDeteRp1epF+2KVY1KfKGVpgzZ5sN19991BW24b7F922V/Ma6+9bq/7+vElV/KPGTO2SAfmzOMQSB5Z5yPHTIGRUNuzZs8J8sl1N124sPiFkkXntHaFJIocOGp+P3Gc1LEPK8vLRurH8QvLg4MheVzHKq0uWeyFPFFECUcbso9skCR/rdDceQsKyLfo4KYjQ74aJ7XnxImTA7usW7c+1HZZda7UfZHmnsD2ae6LNHhI2zdp5Cj1XECvtm3bBX3n4kH2Ge059sVXBX3q6vf2O+8al3xLOUlnzfqooKx7XzFqLvnC8Efenj172Tw8v6LuS7dO2b/uuutsOVI556dECKV97hneL+71LHahfJzNy/EOc2X09yFJgwcPCRzQsePGWb0gb+JkQpQot3r1muBcGFmiDKMVlHvvvZ6piKovF9HapP2wdPLkKQW2pzzEWPKOHj2myGHGmSVfr169bT5Sv105JqIddXXu3MWSRjmPvaSNBQsWFpVHLrkelkKYokbksuiMXEmJ0uLFSwLZeC+JTpJmbZ/ykJ0BAwYG9fu6d+/e3YwdO9ZeJ9CHtEkaZ1PWg0FApD53n3MQJpfI1q2oD/JKGTcFw9J2Wrywvk7K+unw4UTPbW1HSss5iua3U87j2iNKEeuThAC9c/8jZveYaeb7D5eanSMnmw6PPBUQpLYPPW52jZ5qfvCuDWz1RjhRSrBOqcfqQqIkI0lJ03KBQUaLeLHdfvvthhcwgQuWLqszL7zQKnjhct0nEsgwfsLEIA9rLnD4Kb9o8RLDsbywx44bX3ADuU4BeZheRKQmohsxwsB10TFrG5R/9dXXAhmYysSXY77m1tXVBwRJZPT1i3s588KTRfdXXnWV4QsJL2ymP/FFVUhTy5YtrR7UxeJq7CPtfTB2nD3HeeoTfRvKrrQjJBnC6Lbv7id17N0ysl8uolRJjIQRJb7E4+jRLqMCe/bsK7APRENGCyjP/HamdPKVfsTIUeaSSy61ZX/2s58ZptGIPUiT2pMPCIIVfySLeqrtvkh7T6BDmvsi6TMjS9+kkSPuuYBOjLZIv91xxx3BM3XV6rWGYCdyDRy4DoOvHySdUQeIDxtOlnyYYfTbf2bQtmwECqGdl19+JTgn10gZmRI5IC/utbh9iJeUCxutQgd59vFucevKahfqiLN53neYK2PYPqM24kjy5V/sTirnhShRHkdUnNV+/fsX2IDrw4YPD8oRZW3ZsrrYUZQwmRYtWhzUwbobnFsCJ0B6ORa5/BEd1/ElD6SNyGdEVWMqlowwMhoudYRFRCOf6Dht2vQCHeOc+rnz5gf19u3bzyxfXmenSq79eF3BuqzeffoU1IkNsupM2aRECfIoevujvnnaxzdghoDUzRQ/Rnb27T9g+AgmBEmuJyVKPD8kEAUkBd8JXPK+kBE/6mTKqOCI/sFHc0k900g5x8Z1yZsFL5/v2BmUl3q+/Op4MIoWRuAlX7WltUeU5tWHkhohShAhd83SoQmzAqJ0wBs5Ojxxtr3W6s77CspI+VPz6ouA4gPAH1FKSpAkn19flmPm7ctL7y+XX25Y0OjXQ1QuyeMTCfelePPNNxe89KmHG+6GG26w5ZlyggMj9btOAV9Oo6YW5WmDEQGR/aabbgqdc/zW2+8EeXz94l7OPOSk7rBpczjOkJCHHn64oN0kayDy6JzUrtIP2AU9nnr66aBv5Jqk4thjH8hz3LZx009TMChfLqJUKYwgo0+UmGIk00j//OfLQkN0My2G/mXjo4LYStIJEycF+FhRv6rgutgzKpgDdUybNiMoTyQ8qVfSPBip1H2R9Z5Ap6T3hdxzcXjI0zdJ5Ih7LjBKJDJeceWVhilh0meSdurcJciD8yTn3XuXD0es9ZRrkrZv3yEoy9oOOe+nMore8v77Q/P06t3H1gPxcqfa+PX4xzhOQoTCpt+5uHXly2MXZIiyed53mK9f2LFMGSLAgvsOiyJK1LFy1Wo7DQrH26+T9bvudDccWaaqvf/+ADNt+gzDP3OEjPllOSaEvZAUyIb/IYZ1RhANqRfbST2u4wtJCpteRt5Dh48EbYRNv8MJF6eej0NSP2kUUTpy9FhQhoAW6OGWY59paVIv96Jcz6MzdZQiShAZVyci4UnbpHnb55krevXp07eoz2jDDeCRlCi5/1cKu4/xTYYMGWqGDh1aQIBoL8kapaR4gZiJfh+GTCnlHpLrtOvatpr3lSj970exEKXHbr41lPAIiRIC5KYP39TCPPqP8HJJiJIPDiFASVO/fJbjpUuXBy/dqOkXPIRl/Y1PJPhCKk5BFNFxnSccGJHTdQpwvOW8n+Zpw51Os2Vr+N/qefGdd955Vg9fv6iXMzK6//XgS68vd9RxEkcsj85J7SryXXzxxVZ31nDJOT8Vx176Oi711+WUiyhVCiPo6hIlFoKLTXB0s/7HBAdZ7MRaFdemYk/IGKHnZevcpasd5ZTpTZTHKQ1b25UHI5W6L7LeE9gmyX2RFtuuzd39uL5JIkfsc8H5SfXaj8PX5PHMYUoz/ct6JZHN1Y8PVHLeTZnKK7iKW6v0zDPP2nx///vfQ+uhTj4IhDmrbnth+3z8QYawuvnfHNduvPHGgnbdH8amtQsyRNk87zssTL+wc2HEJY4oUUdYGakbssQogrumRBxJUqazQZr86ZmUBwOSN4rouA60S1hdx3f06OhgErSDc007vXsXT7/j/0hc6xMy8hNFlFyZ2BdbuCnTv+fMmWun3m913tl5dKZ+IUqs/SFsubvRDzLVEJ0goRs3Fk67y9u+O90t7AMIMoJxCeCRlCi5/1fi58WuLUvtpyVKSfESNv2OcOzYtmfPnqlkLKVDpa/XHlGKmXpHAAeXBMl+KaL0yE0tQsslDRHudnJSgiT53LJZ9/mCJS9d/6uUW6c4dj6RGDp0eFC+bsVK69Dh1LkbU/mkjekzZgY3iesURAVKQIY8bUiIZQIyuF8CXd3YJ/wyMvr6Rb2cKYO9WLQvuv3rX/+yowBMkfHrd4+TOGJ5dE5qV5FJvg6zZkHO+an0P9HxCCUet/mEtFxEqVIYQVchSk8//Yz5wx/+EPQpToVvi6hj8trF1+vW2xEmF/cENHHLiT0FO1Hp1X/9a+T6kTwYqdR9kfWewDZJ7ou02Babp+mbJHLEPRcGDxka4MedwiKySArW6Hem7co5Vz+fXEsepgMJXuLWKfHhg3y///3vg/qljrwp679EBsiW1If88jxhWrGcJ81jF8pH2TzvO8yVMe1+KaKUpD6IAUEVRo4cVRSUQYiI/xya40wFtMEeNm62jj3OvWyuY75s+U8j3tRFvWz+tDxfXvd/TwR4kOvu6ApTtuS8pFFEafZHc4K2wYrkT5Lm0Zn6hSiJ7lEpjnxYoIG87UvocUYOwXKUzoQlR7akRAk7tnUCOPATZEbGiKjHKFlUO5xPS5TS4MWdfudOu8OOcTJV27XaI0oxwRzKTpQSBHPwASEEKGnql89yLNPq+LoZV16mp/lE4tlnnwtemPLijEtx0KQd1ylguoac99M8bTDtBHlwOP163WO+6JPP1y/q5Sxl+aovo22u3jjbEA/XiZAySRyxPDontSvy4NiK3FGOGfnEsY+bKib6+Wm5iFKlMIK8QpTEFqRMFY0KbiE64hCAadZ3uWX9/SiixBo3Fr67m6xB4VrcCzUPRip5X2S5J7BnkvsiDbaz9k0SOeKeC0xhpf9LPVP79Xs/wIx8pEqiH2sgBV9xREnW7bBGTvBarhT95V9NECCpd/r0mVY2MOyPhOSxC/VH2TzvO0xkz5KWgyj57RLamalusu4Ep5nRGzffyFGjAsIR5fC753HSpbxLlHCo5XxYau+h//2I1Q2uxJoq6mfkhZExv2wUUZLF/P7aNb982HEenalPiBJ2JQiFu8k0Rq7JvejLkLd9CQZSakSFkS5sm5QoISejXWEjk0QVJDqjS3JdvdISpVJ4wXaCW3f6XX39qgCvBw4WR/t0Zaq2/ZojSnHhwZ+4+fbQkaGsI0pJwoP7gEhKkCSfXz7LsbxkWNgbV54ITLycfSLxxJNPBi9twthGbZTlGg9KaSeJU0DePG20bt3GygeZifu6Im34+kW9nEUHUvTg6ynrSORrqjgyOAyEG3XzJ3HERB6xWyXsikzYBEeKdliz4Mrp7lc7UcpjL/QMI0rYBAIThRvWRkDApa9JIcis+WJ00SUyUUQpjHgKZqlvytRpkX2SR2dpo1L3Rdp7gj5Icl8kfWbk6ZskcsQ9F4QQlHqmVpooSR/7zzT3vs6z/+6//22xf/311wcYlcAwjz/xRHBO2shjF+qIsnned5jIlyWtBFESOXAoCfON08yIgRv0QwgH1xhRi9rkOgEUpN40RIkysmaot/N+YM0LdQ8fPjyoV+onjSJKjJpRDgfezZ9kP4/O1C9EKeyHsxMnTgoc+aUhv+mgfN72pQ0ITdyUTGknDVFCPvqV0T3WVgnxw9ZsHK9yItmJvctNlKhX8OJOvxsxYqSVww0oITJUe1pzRCnqh7OQoai1RqWIEuuUZJqemyb54awPECFASVO/fJbjpNMWWrRoYV+K/ksXBxCHrtTUtjDZkjo9edqQL5zI6C84FZlwhCW6ma9f1MtZyvopLwii6T3y6KOBAw15chd0J3HE8uic1K4iu4S/xrGSc35aLqLE9Ey/bo7d9QtR4cHjRpTy2Iv2XaJEQBMcPTDDFvUTXiI0Sh7C/PpfIsGVXEc+V+84ezKtReQBl2DKLSv7eXRuyPsiyT2BTknui6TYztM3SeSIey64kd2i+g59ZQ1R1NS7KLwnHVF6/vkXLP6uueaaUPwIjrKmfMUWfBMRkr6R0dCFi5YUtZnHLsgYZfO877Cs+lMuC1Hi+UJQgyRrw1hzIs7uZ9t/Cuwh55nG5RKoJLqkJUqElRYZdu/ZWxDUIGpdM7iXMm54cHf6Gv8TSiKv5MmjM3XEESXWocqIDGvDwn66m7d9GYXDLv5vJkRHlgfQPnnSEiWpgxT5iaQ3dNiP0/ioD7L0xZeFvyOoBFFy8cL0O2ZlyNRApoO6cjaF/ZojSnQKa4dcQsM+ZCiK8GQhSlnWJyFbUoIk+coBMnchbFjEFNrAAZTpZT6RwPGVl2XUotIoOZM6PXnaYM2IyEcUqLB1Sl27dQ/y+PpFvZyjdHLPu1+MXYLgOmLudAa3bB6dk9pV2uOLMDZ67rnnIx9icY691BOVsmZL+oCw6WH53B+rZiFKeeyFPEJMevT48R8QYP6qq68O5CakvC83P5RFLwI/hOGKee6idxqiRDt9+/UPyvbp26+obfLk0bmx7ouoewJ9ktwXSbGdp2+SyBH3XHCD16QNWpBEv6REiVFN8EfqY7dcx0RKpQ2m7bL+lP3f/e53oV/M89gFeaNsnvcdlscWWYjSlKk//vsIx5XfQsS1L+tacHTdEN2sS+Icm0ug4uqSa2mJEh98+K8RbRFkgfVO7OPIR5G0KKLEM1Hk/jgi0AllidRGoBKmIYrceXSmjjiixHWmiolsYT8Czts+ATWkfoI/gWfRTVLCrEuePERJ6rN6zZod1IkO7jWXKMn/s9zr7GfCS/futk1syn2PThDRMALqt1dtxzVJlH7Ye7iIKPnEKe8xbWTpbCFASdMsbfhleFCLM8cPEN2RD8krUybI5xMJvopJeZzpsAfnmrXrbHQkIiS5hCGJU4AMedrgIS+BGpCT6UqEauarHg9t/2edvn5RL2fk6t2nr51OSJQnfz4+1yFBYhu+voo9XSfVXbMl10nz6JzUrtKe/Bwy7stzHqJEO/K/KUbapF1JcTbcNT5ZiFIeeyGHECX6VOTCMZEffnJ9++c/RWwkj9iEABc+7sEdxFP6Py1RwllgET7l+UgRFnkvj86Vui+y3hPYM8l9kRTbefomiRxxz4WiMNjeP7TQNUl48LwjSjJS/OKLLwWYFmyTct/xASAsoqKbL25fRjX5BYREwov6J1MeuyBDlM3zvsPi9Ct1LQtRcp1TpimFfWShXYJ2yNQ7wnjzTBB5eB6IQw0BCPutx6efbrLR6ohY5zrIaR1f2pTRFEKOSyS8SZMmB/KIXJJGESVGkURupt+FrW+iXsnj/moij87IVYooMfLBD4LFqfdJbN726WcJ1EAbTLGjX7gv+Djj/8g2KVGaOfNDO/WSdWyMVEofSOqG5XZ/Ost1l7y569ikLGkevDD9TqbdEVnQrbep7NckUaJzTq1YXzGyRN1ZAZCUIEm+rO345SSQAU4Za2Fw8O0PWVesNC+99HLg7HHdJxLU5U59uOeee+zLl5j6/Ixw+IiRgZPMl0b3YZ/U6cnTBmVpU0ZNxHF1UxxSmabi6xf1cqZenAyph9EqHHxenJThq5tET2PEAceUMmw8kKUcU6v43w5D8ZSTPKQNYVfaEaeNtUpu/7iyiOPJKAtrruK2sJHJf/7zn4HOjNrwUzteEOTl/1tiD9IsRCmPvSgbRpQ4z0+TRTbInBvcwR31ee21182nGzfb6+gkTqOUTUuUaJsfNEv5119/owAbXGfLihHKVuK+yHpPIE+S+yLpMyNP3ySRI+65gC4DBw0O+o5nKtG+eKby0ahDh47BNf/fc0n0SzKihFMn2PGxh3xs7o+4o0a2JW9Uuv/AwaAdac91bv1yWe1CPXE2z/sO8+VMepyFKFG3+w+lfv36G0ZX+Fks9+TOnbvNkiVL7YiNEIbp04uDHc2a/dNIwYCBA+2XezDGBx7WJMmiehxu90t+FseXWQEii6Ru6G7fXugh+dypd+TjWK717dvX/nCW9wHETgIZcB1i49ebVWfqKUWUyENUN5FtrBe1ket52qc8zxbWekkbfgpRGzVqtL2elCjJiA11MVIFGcL+bOAKQso1wqL7pPzYFz8RV6b88b7jp+nuNPJseNlfpOOGTzcW9Sc2qfatZonSf46fMKfmryo7WaJO6q72jvflw4mXf1/Iy85NcRDlpeoTCalLouK55dx9HNF1nxT+NyGJUyD1k2ZpQ8rjOLDoVwIXiGzoDaGTny/6+sW9nHnoQAylLlLm6Ltt8NPIhQsXF2FCRnHcsmH5suic1q449iJHWFhUbChESfLFpe7ibrE//42QUaWwsrJeg2tZiVIejEQRJepklERkJlqckF6cByHDct1NIU9y7DurYs+wYA5iM/AlU5vAFF+i5ZqbZsGIlC/3fZHnnkCmUvdFUmzn6ZskcsQ9F8S2bdq0DfpfcOCm9C0fCyQ/aRL9khAlfoAsbUXhRrBFPsibK0eaffcZyIeUUmWz2IU642xejndYKbnDrmclSpAifjrqO8phx5AH2vHbR2f3B6VhZZnu5BPXLI4vbUPGpA3WZMpz0JeL4ziixHWXEEmdbsrPaN3w0tJGVp0pn4QoMTNAphkiD6PL0jZpnvalHoJ0yD+FXJ0ZEYLkMkLE+aRECZndvqGsH8yBEcnVIcEckInof64c7Lt5M+NlwE94gaz5JE3sUe1p7RKl70+Z7w8fM/+ds6J8ZGnOCltntXd6lHwM3fPfDUIiywsW54xpGzhTPBg5H/VPDh4gfN2WoAhSB0Ee+KEii339tt0vtzNmflh03c+fpQ2/DhyRLVu22a//7Mt1fvSJzEyjknOkvKCE+PCF373GPjIxhO46HdQD4WLKX5jelGMKAjaV6TGUCVsAnUXntHblASYkhi++vo4cE9FP+rRUStS3sDpYXMrXdRdj2In/I/Eyl3pdspZWlyz2QlbRnzU0vuzU6QbncEkPU0eI9CVr+NABcsyXPewK/jnnhlB27dmyZcui9tz23RGasEhi5M2qs9tOOe8L5MlyTyBPqfsiDR6y9k0SOUo9F6RfCGAgPy8WfIMJRuoZjXH7gP0k+mEjqStqJEhGiSHyfhtyzHpBPhBccsmlRdNKJU+SVNYmIRP/9ipVBnyktQt1lrJ53ndYKbnDrqMLX+pxLqMIaVg5zkEmJk+eEkz38p1VwkjX1a2ItSc2YZRDAgBIHQR5YN0nwRf89t1RhOXO/5X8fP6xrE2ijVL/wsF5F1nC/r3Ds5FRLxntkLzYcvSYMXa6l9++HGfRmbJEg6OdUpHX3BGasKh+WdsX+SVl6vS2z7ZbfwQyIueFRPLjWTlHGmdTsadL8tAVssV0vzAcSN2Hjxw102fMCKZ5Us4N0pEVL6wzk36dMfOn/2f65ovaAAAgAElEQVRKu00lrWmiRCdBlsoxskQd1NVUOj5OTr7aMcLC/394IMTlDbvGiwMHhbmvhOjlOCxfnnNp2kAffoDKxoMpql2mzvGix+mNylPqPA+ynbv2hK4niSqLLgxzu0PdYXnT6BxWvtS5F15oZfX/69/+lln/Um3IdXDF8D7TMyuBD9qptL1EF0l5UUGKGcmolE7SVlSaRueGui+y3BPohy5J7osoW7jn8/RNOeSgDkaBeCaCD2zvylfufdq76KKL7P3M6E1c/diG/HF5KnWtUnbJ+w5Lqy+OphtoIW158h86fMR8sn6DYT0JU9rC1hzF1Us/Hjx02EZ2hYBzHJe/Wq79KPcRKzd2TCNXY+uctn2IMTMr2Pj4HKUrH9kgGIRgj8oTdx7s4IcwcpXm3kYffgzrfkCOa6fUNQJ/CFFCnlL5q/V6zRMl2zFMw8uxZsmuSWqC0+2qFZTllouHk/wYkS+nfI3125g4cXLwhZavcP71WjhmWqR8pfanG9SC/rWmo94X1T83PismWQfFvcxIuB+AJGudWq754kX7tmH6ltFiWTfWtWs3E0YMFy9eEpAL//+LTamfCCrBdF6IEiHKm5LsvqxKlJyFZESqCwsdHhUBj7xZo9v5HaHHlX1Q9ezZKyAB5513no18x1ebnr16F0wp4yssoxy12h+tWr1o7cTamlq1QS3prfdFZZ87jYWlRx97zN7HpUaTGks+bbd54k77tXS/zpgxMyBCTK1jijIRBZmaJlMDIRdMQSQwR1OzKVH8mFLpBqxI+9uYatNZiZJDlKRz+FHsD1t3mVP1GyxxOjW33tht8Rp7jmtZfiYr9Wta+mFSbhsxFYM5+7LWSEZO3JToU2GhSsstSzXXx3QACWrgLwCuZrlVtmz3lN4X2exWzXjj1wc811j7xxfsapZVZWt++NM+je9TphPLf7RkWpqf9u3bz06jbIq29Nechf2PqqnppUQphCg1tU5UeeMfTK59COIwbNgIw4gJ4aqJtMai4rq6+oqvG3DlqOZ9Iu91797DhgmtZjlVtuS4L2UrvS/KZ8tStq709Vmz59j7d3mJIACVlkPrbz6Y0r4sf18SxGHu3HmGfwsNHDjQjBw5ynz00RxDwCOmRTdVmxPanLVV/Asr6ofCTU03JUpKlJrsDdnUbjaVt/wvG7Wp2lQxoBhQDCgGFAOKgUphQImSEiUlSooBxYBiQDGgGFAMKAYUA4oBxYCHASVKnkEqxUi1Xv3aoRhQDCgGFAOKAcWAYkAxoBhoOhhQoqRESb8eKAYUA4oBxYBiQDGgGFAMKAYUAx4GlCh5BlGW33RYvvaV9pViQDGgGFAMKAYUA4oBxUClMKBESYmSfj1QDCgGFAOKAcWAYkAxoBhQDCgGPAwoUfIMUilGqvXq1w7FgGJAMaAYUAwoBhQDigHFQNPBgBIlJUr69UAxoBhQDCgGFAOKAcWAYkAxoBjwMKBEyTOIsvymw/K1r7SvFAOKAcWAYkAxoBhQDCgGKoUBJUpKlPTrgWJAMaAYUAwoBhQDigHFgGJAMeBhQImSZ5BKMVKtV792KAYUA4oBxYBiQDGgGFAMKAaaDgaUKClR0q8HigHFgGJAMaAYUAwoBhQDigHFgIcBJUqeQZTlNx2Wr32lfaUYUAwoBhQDigHFgGJAMVApDChRUqKkXw8UA4oBxYBiQDGgGFAMKAYUA4oBDwNKlDyDVIqRar36tUMxoBhQDCgGFAOKAcWAYkAx0HQwoEQphCh9f/S4+WHrLnOqfoM5tXiNOTW3/seN/foN9hp5FOhNB+jaV9pXigHFgGJAMaAYUAwoBhQDaTCgRMkhSj/sPWyJ0X9nLzdJNkgUZdIYXPPqDaoYUAwoBhQDigHFgGJAMaAYqH4MKFGCKB0/YU6tWJ+IHIURKMpShwK++gGvfaR9pBhQDCgGFAOKAcWAYkAxkAQDNU+Uvj98zJyavyozSRLiRB3UlcTomkdvTsWAYkAxoBhQDCgGFAOKAcVAdWOgpokSxOa/c1bkJklClqhLyVLDAf67k98rMXWmjiZ52G74dJOZOm26Wb/h05qy3YezZlu9t23bXlN6J8FEVJ5Jk6aYjp06m737DtSkzWpF/8Z8jlajjVevWWufFVu3fdYscZ/H5lu2bLO2mf3RnKq2zYlvT1a1fFHPXPf8yf/8YBYvWWqmTJlq9uzd3+T1cXVrrP2sNq1dosR0uzKMJAUk6X/rmqhTp+FVhiztP3DQDBg4yDz51FPm4osvNj/72c/MNddcY15//Q0zafIU05gv/Ma68dO0+9Xxb8z5559vTjvtNLNseV3Bg3fYsBGmdes2ibZBg4cUlE0jQ2Pl/eWvfmX17t2nb4PJHmdTCAjkbdfuvQ0mTxrbr1y52toLrNz/wANVKWMafdLmbc76V8tztFptzH0J7v/0pz+b5uBwu9jPa/Nu3bpb25x77rlleyYc//qE+eCDsaZ///5mx87dmerlY87s2R+ZESNGmC5dupjWrVubnr16mbFjx5klS5Y2yX78ZP0Gqwe6DB5SHe/cuXPnmYkTJ4VuELq6uhVm1+49BkLi4q5a9rPatGaJUp41ST458o/tmqUUX/o3HFprRm/qY3qtfdv0XPOmGbGxp1m1f0nVgq1coD967AvTv//7divlMK5ctcbwcOYFFrXdddddhjp9+dK045dNclzp+pPIkCRPhw4dre0efOihIhvdcsstkXb17X399dcXlU/SfmPmaQyilNSml19xhcF5bUz7+G1zv0m/P/Dgg2WTrVrulVJyVEp/384NfZznOYqspeyWRp9qtnGLFi0s/nk/pdGp2vPmtXm5iRIkadCgwQEh6NSpU2qytH79p6Zjx45BHRALfxswYIA5dPhok+pL9BI9hlQJUerXr18gk8gWlvbo0aMqZyJktWlNEiUi1fnkptzHSaPhrT+0xvRY/XroVr9vUZO6sdO+JDZv2Ro4YwsWRus6d94CO3okjtvDjzxiBgwYaKZMnWa6dO1mrrzqqqCeiy66yPDwdWVJ2o5bJs1+petPI0tU3s937DKnn366tdMn64un3YlT/9vf/tZg37itXbv2BfaNarOazjcmUTrnnHPsKCgjobLddttt5je/+U0Bbnfs3FVVdmWUlvtr3/7ykbhquVeSyFEJ/Rvznsj7HEX2JHZLo2O12njJ0mX23jzrrLPMgYPNK7JtHpuXkyj5JEkc7k6dOycmS4yQSTnSoUOH2ZGlpUuXmalTp5n33nsvuM5I0xdfNp3fujAqw2gYeuzdVx1T74Qo8dGV0Tt3Y0SwQ4cOBfbOOkKY5hmSJm9Wm9YkUSKsd7mJkV8fbSTpwDGb+1qSJCNIdCT7kKfB6zsnqiNJO9WYJ8lLF3tceumf7EvrF7/4pZ2z6+vC9Ii33n4ncDpZg+PmSdKOmz/tfqXrTytPWP433nzL2uePf7ykwDaSV4jSvffeG3pd8jXVtDGJUpRNvznxnenQsVOAW8hpU7VvUrmr5V6pFjmS2i1vvnI8R5GhVuz27Xf/MXw04uNc127dm/19mRRf5SJKliQN/mkkySU77CchS0y179atm3XM27VrZ9as+bion77+5lszfvyEwHlfumx5UZ6kumu+U0aI0sCBg0LtyPT+yVOmBvaGuDYHu9UcUeJHsT6pqdRxkp/S9lvX1pKir09+EwDqxMmT9tx7a94IzjUk2HipMs/0YIYvaUeOHDPbPvvcHD5yrOTUwSQvXWSQkaTnn38h0h6QJVl/wxQ8115J2nHzyz5tY4dSa5+y1i/tpE3T9g/5xTbdu/cosI20XW1E6eixLw2BF3jRiYx+mgZr5SJKSTGBrEltet9991mMn3322SWxlkZn1144fszj5wsf++61vPtp8Jj1XkmChzR9k1WOKFsh32fbd9gplFntyzNs++c7zJdffV3W/kHmcjxHqSeP3ZL0YZR9OZ/VPlmx/+Zbb9v7kqmxcXI19rVyYM/XAZsRQMB//5WDKPFMH+SQpIULF5k2bVgf29p8NGduMCoBWdoZs2aJ6cpCsEaNGh3ZR5AypvSRlyl4vq7uMc+yg4eO2Pvw4KHDJZ/HblnZP3zkqH0WfHW8/PextOGnyE272z/faY598WWsjm7ZtPqWIkrUTZ2DBg2y9m7fvn3J9WFpZXDl52Pjnr37LE7Yd6/l2Qf/u3btsc9z5Ks5ovTD1l2hROmhG28xbPO69DFtHnrcPHnLHXbr9Ngz5uN+I8yRCbPM8FfeMa/c09Lme+62u02fZ18xez+YFlof5Iu2SnUWa5IYPfLzyXQ8/3wlj4mEBslg5EbICdODHn3ssdjpBwCJhetMe5NypBdccIENvsB1V+65c+ebM844oyAv+TnHxrQHyc+UMamzT99+wXm57qY41nUrVpp169bbfGnakXp27tpjF6//+te/Dtpl+sWtt95q5s1fUNB+mvpxokS/j9d9UlCPtI0TInmITifnJc3aP9QlNlyztvirG/UndepFFjfNoxtOoeg888NZNsDBtddeG8jLi9NtKy3WpGwcUWLK24UXXmjlIOVFKeVI02DCLZfUpixklv7ZtHlrQdvUl1VnymLfd9591/z85z8P2mAK5ksvvWwgXT179bZ6c++6svOiOPPMM+21ceMnFFyTfGnwmPReSYuHtH2TVI4k+tMvQ4YOM4zSSv+RYutXXnnV7D9wKNRuvo5EWbvzzjutvaUeAgkQ8UpsnTfN8xyl7aR2I6+vH8ERwu7pKBv75bPah3qyYF9sPX/BwqBf49bQYtsjR4vXxko9frp7z77gmRcXGIeZEfJs9KdLZ8VelM1FxuPHv7EBfdznBTKAZ9b45CVKPkmaMWOm/XAjhGft2nVm46bNpm3bttbRjiNLPLelHO8O0SEs5R217pP1tu6w63wMJVCBBIKQejt37myn8oV9LIWQQPDYltetsIEMevXqFci0on6l2b17b5Dno5hIgYx0SV2bNm+xuuD4YwfOL1y0OFQ/K/e8+aZr165Bu8jevUcPM278+EjSlEVf7JaEKJGPpRRiw6jokVlloH4+DkyYMDHACW1hpzFjPrDv7xkzZ9pj+tPt71I2xfaQaUYoRX6mE9YcUTpVvyGU2AhRikqfbnGnJUj+9advvcvsHzcztE7acjspbJ9Ro2ogSsxb5oEoL2pZzyLHTEOICilNBC/JF5Yyn9XVfdbsObH5Fy786aHAC4Ev7dR71dVXp5pjnKYd5GMOv/uCCNNlpPPlKk39PCykPl78rj1knxeE5PFfjHn6B2dY6sV5kPbcNKlT75aR/Ty6MWdcZGvV6sUCDHLeJ0ppsSYyRhElHG0IPW1Bkvx1QmkxIe2RJrXpxImTAxsIyXfryaozL6K77747qFvsLOlll/3FvPba6/a6H8WKr/eSb8yYsUWYSYvHpPdKGjxk6ZukcpTSn/5p27ZdYCOxlZsyEnHsi6+KbOfq+PY77xr3o4xbnv1Zsz4qKu9iI+l+nucobSS1G3ld/eLu6Sgbu+Wz2icP9sWmjMBKf7jPfblO2rNnL5uHd2fUc93NL/vXXXedLUcq5/yUaJO0z3OJ/nOvZ8VelM2pmzYI9CM6+ylT4CFMnPefF65sUfuQpMGDhwQO6Nhx42ybkDdxSiFKlF+9ek1wLoosUY4RC8q+917PVGTVl5GIbSJDWDp58pQC+1Mecix5R48eYx1zOSaFKJGvV6/eNh+p364cE9WOMp07dwlG/LGX1LdgwcLQssglecJSCFPYqFwWfZE1KVFavHhJIBd+jejpplllgOywRj1MX851797djB071l4nyIfbZpxNWQ8G2ZJ63f3aI0oR65OEAL1z/yNm95hp5vsPl5qdIyebDo88FRCktg89bnaNnmp+8K4NbPVGOFFKsE6px+pCoiQjSUlTFwRZ93ngyMJyAiNs2LDRPsD44sxXLSFNLVu2LAAd7Y2fMDF4sLIWA5LD4u9Fi5cYjuVhO3bc+KAsD2sWyJJXrn8wdpw9x3nkcXV57PHHg3w4H9Onz0w0PSVNO7xY5cswTjXzbJmmxNfCESNHmUsuudTKQEhyCRaRpv48ZCJP/2BHefnhGLt2dfeTOvVuGdnPo5vrFIEFSDGRpojOxAgb16WdLFiTsmFEia/EOCG0S9/v2bMvaItyWTAh7ZEmtSnOpNwH/mhWHp1fffW1oF6m9zEqwChHXV19QJCkXd/xiXOosuAx6b2SFA9Z+yapHHH607eMBIjt7rjjDktoeO6tWr3WEOxEroEBf0qIryNEnS/iOOZsOAHy0YqRPv956GIszX7W5yhtJLUbeX39ou7pKBv75bPYJw/2XZsSiIW+fPnlVwqeDZKHkT/pa8iLnC+VQrykXNhoFTaQ9y6jOG59ebAXZXPql9Ei5Lr99tsDTC9dVmdeeKFVIC/X/eeFK1/UPiM24oTy5V9wTSrnhShRR92K+sBx7de/f4ENpI1hw4cHZYm0tmxZXeQoipTx00WLFgd1sPYGkkbwBIgvxyKbP6rjEiXyQNpmzZptiKzG7BYZZWQmitTBVEa/ffKJUz7NWV8d59RTx9x584N6+/btZ5Yvr7PTJdd+vK5gXVbvPn0K2syqL20mJUoQR9E5bGQ9qwyQeWZgSN1M8atfucrs23/AziQSgiTXkxIlntESiIIAIPge4JL3MaN9tUeU5tWHkhohShAhd83SoQmzAqJ0wBs5Ojxxtr3W6s77CspI+VPz6gsA6t8gHPsjSkkJkuQLqzPtOYAmD2132pvUA2nA2X7o4YcL5pu6D/Obb765yCHgRr/hhhts3YzU4NxInaRJ57vzVdaduoGsTAtiugprbpDf/+KWth2G5tGRjReDW579CRMnBTZaUb+q4HoSPfKQiaz9IzrcdNNNVvannn66QG65TipOPS9AXopx28ZNP04NkPJ5dHOdIr6sh009o528WPOJEtNfZKron/98WWh47jyYcG0aFcyBPNOmzQhwRSQ8sWlenRkpk3ua/sdBcutm3w2A4js+cQ5VHjyWuleS4iFv35SSI05/nkdi2yuuvNIwXcm3bafOXYI8vNjd666OkAjWdLrX2W/fvkNQnnUH/vUsx3mfo7RZym7kcfWLu6ejbOyWz2KfvNh3bSsjsi3vvz+0D3r17mP7CWIbNa3ZrU/2cY6FCIVNv3OfC27/58VelM3dNWx/ufxyw6J8kVVSInYK7v3nheSJSxlhgRAQXMH1BaKIEnWtXLXaToPC8Q6rm7XQ7nQ3HGSmq73//gAzbfoMw39zhJCFlSfcvZAUyIZ8BJW8rDOCaEi92E+uuUQJksR7UK656aHDR4I2wqbf4YiLY8+HWSkbR5SOHD0WlCGgBXpIOUmZmib1ct9yPo++lC9FlPDDXH2IhCfySJpHBu5t0alPn75F/UUbbvCOpETJ/b9S2H2sROl/P4qFKD12862hhEdIlBAgN334phbm0X+El0tClAQ8kgoBSppKuTyp+28FvmYmrYuvp//f3nn/71FUe/xPsd97vSpiv+i1l6sIQiwoFlQEBCmCiIKKQiAQUkg3vRMghRRSISQhhRRCQuiQBmmEoihC/HXv673w2ZzvPLPl2X2+ybecH57X7LM7c2bmzGd3z2fnzBk9OPMMXGtUYdxY2VVeusrPCwI3IRm8qlcpMwOQptgDvp16VF+YYgypLtYl2OtV5DchE3XHR21kc17ajr++zoWpiJL6WJSGa7Wa9M0aRZCzsF363xRrwg0bzrJIWTrB0K27v0YRJmi3dAohI8y2foNvG5JiWe436BqjKVy71qTP1lXqiSfjL3CMlVNPPTXFRmj45BlU9KsJHsvulap4EC7y0rKxKWtHYf/NZrzbHo6vN0S3itaJu5Jtp+0jxqe9pmPcnHUPdnKtUpPnKG0r0xt5bP+K7uk8HdvydfTTFPsaA9LLLrs8HYdvfOMb0XEiDx9dYoaqlRM75sMjYxyTzd5lXDvjjDO61Gs3jK2DvTydr1u3PsNbngshJELrl8PnRax/sXMx0lJElJARK2NlQ5aYSbDrSmRMk+LOBmkC+7Ycx9xnyptHdKwRbUmrJUqzZuUHk6CeKVOmpPWMGtXqfsceSbRhdDDzU0SUbJs4DvvFf9zsV6xYmbqvP/n2O6BJf5EposTaH8KW2x9jIDdD+gMB3bWr1e2uSRuYZdR4xT4w0UYwruAdVYmS3V+JjYtDffY/olTgekcAB0uCdFxGlC44c0C0XNUQ4XZQqhIk5bNl6x7zACRggV7MP/nJT9Iv3biBFMmcMmVaVoYgChh64Q8fe8ldtHhJF3lVXrph/Tw8cFPhBaYZAcnXi4UXrS1Xpx4eghA71owww2T7MT4IjVlFfhMyUXd8pAN9ucSfXufCVEY90fEIJV70Cw3vJn2zRlFe0ADa2hRrIkqXXnpZ8qlPfSrDJOMc6iLvfzuYQIZ0avEZO/7yV74SXd/QpM8KO87Mq/16G/aNkOS0KTR88gwqyjfBY9m9UhUPYT/aHZuydhT1f9LkKRl+eB6FbdF/sIZucWfWOVLbx/Cji/LhriKsdGqdkmST1nmOUq5Mb+Sx/Su6p/N0bMvX0U9T7Fs98XGJcfjoRz/aZQxtnrrHrLHTGEO2JIf+65mNS7rOkzbFXp7OmYFRW7i/bZ32WM+08Hlh87R7XEaUqsqDGBBUYcaMmS1BGUREwuf9CuMOmAZ72PV4atxj4OtnjfMH1x/3NkGWjPbQLS9ss93viQAPum5nV4j+p/OkRURp2fIVWd3gxZYrOm7SX+SKKKnfeemIESPSJRyxtjRpg0KPM2sIlmPyOUdYctpWlSihw4EmgAObIDMzRkQ9Zsn6H1EqCObQcaJUIZhDONAiQFXTsHzd/3y91tciPTBJMSoxsO2DXHVcfvkV2cPVlsk75gWmsqRVXro2f+wYn19cF7TnBXXzNc7mrVoPDybayFqevD5w/kQTJfpSZ3wox0tPfckzOsinF2CRm5jVqT3uFFHC3cTKtcdNsSaiJF2Q4g6aF9xCddfFBOWlU9b/sTDb/rQGhWt5D/wmfcZViD5CwtSXWMosF/lCwyfPoJKMungsuxetkVyEB9rRZGzK2lHUf1xY0RkzRtJHLB079q/ZvWeNzyp9ZH0odfDrDqIUtrfKc5QyZXojT5X+kS9Px1XKF+mnKfatbrRuh7Wp9nwnjum/3lsQIMlkDS7jzjMinAVpir08ncutrgzTctcNnxdqe520U0QprJvwzri6ae0JhjOzNzbfjJkzM8KRZ/Tb8xjqKm+JEka1zsfS9Fn19masNkARa6qQz+wLM2O2LGVUdxjMYdq06em1cP2aLR87btJf5IkooVMCUNifXBi5Zp93YTuatEHBQCBioVz7n5kudFeVKFGWma7YrCQRBfsdUSoKD37xWd+NzgzVnVGqEh7cDi7HVQmS8oXlm/znBcUXLNZK6IuWXtY8tAn5aOVffMkl2cuc9UJ5P2RwjZvblq/y0rX5i45xn1L0MmbH7Ff0KvXgo41Rqf6SQhJZ38EMmzVaTwZRou/tjg9l+BrCS57+4E+fp0MZ9T2VKDXFWowooRPIS976tiaYQM9FOr3hhhszrC24Z2F0XJr0WfL5+JHXP9qoOkLDJ8+gsvipg8eye7GKkUwbmo5NWTuK+i9jlYX8Vh/hcW8iSmp70XOUPGV6I0/VMczTcZXyRUSpKfalC1LJCu8Pm6fJ8Z//8pf0OXD66adnWFLwnV9efHF2TnU0xV6ezkWUyjBNFEKem53UR3cRJenswMFDCWG+MZyZNbDBVUQ4uMasWt5P1wmgILntECXKaM3QKPMenjz5LZe8adOmZXIlv4goMWtGmzDilb9K2qS/yBdRim04O3fuvLRNtGud2eIlbFeTNqgOCE2RS6bqaIco0U7GlJk91laJ+NGffkeU8jachQzlrTUqI0qsU5Kbnk2rbDgbgkgEqGoalu/Uf25SomNdcOGFmUEHebILlyEMPDTL3Hvy2lTlpctDja9qvDzz5Oi82kObrL9xlXqItEY5foQaDb+IYGzqelOihJui2mxT638ehge3+TiuMj4qIwLJS1/nwrTIqA/zhv/tjFK7fatiFFGfxrYu1ixRYh0bRojGM28T3iaYoM1FOsXlQm1ifR3jGeq1SZ/1VZo+2gXCtg4wrah/oeGTZ1DZ8va4Kh7L7sWqeGg6NmXtKOq/jToWGzfpRetbilzv8mbNioiA5LeTduI5Sn1leiNP1THM03GV8kX6aYp9q1c2Oece+trXvtZyf9p8dY/5iq3nEFE36btmm1c/sLalzqbYy9N5Vde7AQMGpO0Nnxd1+0+5ukSJ5zhBDaqsD2PdCQYvv6efOR48Redx5bIEqkp/2iVK7NGjNuzdt79LYIXYujCeLcofzihZ9zX2FKrSXvI06S/li4gSH1k0I8O6sLwNd5u0QTNw6CXcykM64CM59ZOnXaIkGaS0n6UXU6ZO7X9ECQWwdsgSGo4hQ3mEpw5RqrM+ibZVJUjKZwe2u47tl1FrCHOsh7wlJlXbYV+6djrallf0KF4eZYvu5ZtOm2zI1Sr1sKEs5Vjkb2ej1BZCpquvRUQprx+s91J5Qq5Lrk3txqNlRMmWyxsf5eFrJXVfccWvo/WSr8iol5y8tEnfqhhF1NsUayIlw4ffnuoAIsy+XBoTQmeH/WuCCWSV6XTM2HFZ/bHNlJv0mfV16huRu2KYHjJ0WJYnNHzyDKpQR7H/RXgsuxer4qHp2JS1o6j/NkBNnQX1VfpYRARiOi8714nnKHWU6Y08VfpHvjwdVylfpJ+m2Le6xJuA+4jUnu/kMVHmqAPXaNbxcnzKKadEv5g3xV6ezm0wh1jUL/rLM1Pu+eHzook+6hKlBfe8tfcRX/7ZVqSoDVrbgvFsQ3SzLklkxBKoIlm61i5R4sMU+xpRH0EWWO8kYz5G0oqIEvaI2v1wTkAZyhPFmGAwuCHS7ib9pXwRUeL6vfcuzdqVtwlwkzYQTIStHKcAACAASURBVEP9JvAYeNZ4KCXEuvI0IUqSR9rvZpTo9Jv7D7cQpZA4Nf1PHVbRVY9FgKqmVeUW5SMSGK5xrO0JfaIph/Evo4svYJLFlxydxyiM3exbt21Po/oQ2ceSLGTYF1q4fkl12Bczbgp5bkTEu9fMCSFp7bRslXpk1BLMIOwHdUIy1NeQKFWRT3+0VxWzdOqfUtpr10ZZolR3fCRbGxcWfRVV/+u43jXpWxWjCPlNsSaihC6lF16Y2uyT68882zUqo3RSBxPUofJ5OuVFxiJxcIUBEn4IaNJnMKtADcjHxY6w9nyF5SUbbmIbGj55BhX9aoLHsnulKh6k27pjU9aOov7zjNSzIA0PHln8LmJCvqLw4CdqRqkTz1HGvkxv5Kk6hnk6rlK+iCg1xT590E/vlN/85ursnK6R8tzmI0sYsdLmKTvWzDFbaSgSXt6eTE2xl6dziIYwzV6F1nNE7ZfbH/nC54Xy1EnrEiX2KpJBjFtb7GMQ7SEwilzvCOPNc1ft5JkrGZCAWNTcRx99LCFaHT+MfJVtlyhRTrMphBxXJLx58+ZnMiWbtIgoMYukduN+F65vojxylUdbejTpLzLLiBJrftkgmHqZXYoR2CZtYIwVqIE6cLFjTLgveMaFm9hWJUpLltybul2yho1ZSjsOHPdLokTHj23c0W1kCdmhoqv+r0qQlK+q3KJ8POj1kOTrM0Y6Dy8eqnz1UJQwZltComKn7M8999z0pQFpYUZn2vQZGTngC5l9QNEebirViwsQexUxnUq9tr12DyWm/mkTmzuSj01h581fkH6BkyzNGkhGlXrs133CkD+66/G0fXxd08tL8kOiVEU+bfnhD3+Y9Zc20gducOpgHyrJJ7VEqcn4UK+MNtYqhWMgHcnwZJaFtWhFv9gXx7p9q2IUqY1NsBYjSshlY2TpHaLKWKq+JphAhnSaR5TIw0bMqv/aa6/L6lYbmvSZsdZsouqwKSRNrkWh4ZNnUNGuJngsu1eq4qHp2JS1o6j/6GDCxEnZuPGRiShUGGR8GBo06JbsWmx/uSp9LCICzNhxn/KzM+fCTF7a9DmK3DK9kadK/8iXp+Mq5Yv0g+wm2Kc8Pww63S/hM1957Ma2ed4EypuXvnDgYFaP6pNhGyvTBHt5OqceBXahDWCa/oBpPnBeffVvu7QxfF7E2ln1XF2ihHy7h9LYseMSZlfYLJbx3717b7J27brU/UqEYdGi1oBBS5ctywjF+AkT0n0Z6Tcf0liTpGAQGN3WnawOUcL7Qm1RqtDdob7og/KErnfk5ZyujxkzJt1wFpsCYqdgBlyH3FjZdfuLjDKiRB4iAKpdc4KojWpHkzbwDGKdl+oIU4jazJmz0utViRIztZLDTBVukuifH5jqt0TpX6++lhy7b3PHyRIykS1A9IYUlg7J0UOaFFc3BQHgPxv/rV69JtovRcKx5e0xRur2R+Kx/jXbYfOH9XDza9NUmy92zB41IZljDMrq4QEmQhiTC3nS+dhLs0w+bSDuv2aVJMumWtPAOUuUmo4PxEb1MJsQw6SMeuUrSu3CY8mq27cqRpHqIK2LtTyihExmSNRfImYJP00xIZ0WESXGVq433G98JbX9bdJnymLssVDb3sv0ldljjGxtmBkaPkUGVVM8Ft0rVfHQdGzQTVE7ivqv8bnxxoEZboQfmzKufAhRfqVV+lhEBBTVjdlQxkJyy9JOPEepo0hvXK/SP/Ll6bhK+SL9SA91sa/ybAuh8Yzdl+TTvUs+CLLKtpva9y8EuKx8Xezl6Zz6eO5p/yb126Z8SBIxDJ8XZe0tut6EKEGK2HhURm5RCnmgrrAt9NtuUhqTwexISF7rECXqhoypDtZD630TtquMKJHfEiLJtCmb0T77XNcNq+v2l/qqECU8cuRiSFuYhQ771qQNyCJAx/Tpb0X+s/1lRgiCywwR56sSJdpsx4Wy/TqYgx2wNw4fTf69YmPnyNKKjQkybR295RjgMo1pH/w8JHkg4sLDQtO8vlCWL99aGK6HKwvv2WyxqCxTyDws5OJA2dgiVh5w7FYvVyXVQYoR+JWvfjW5d+my3DZWqYfpayIOyQ8b2RBEvjBgkNAfztlQrtJJFfnkZXEgX+sITa0+oGP2G+FBrHMhoWkyPrRdBI2vkWqzTYl0qLrLUkirLavjOn2zX6gXL7k3KlfySetiTf3na7yVJ5k2aIklwk0wIZ2ed955LXXaNtgZmlikq7p9tnVgfD7xxFPpTCnHusaHBcYbFzadI+V+E7li1ste47gJHovulXbw0GRs6ENRO8r6Lx2wuF6bF+u+4TnBF3hmCkK98b9KH2mb5IUzFaoPV6iY/KJzTZ+jyC7SW9X+kS9Px031E/a/XeyrvGbi+YCmc2HKelM+wpx22qdbXHfDvEX/tTaJMWf/tKK8XOP+q4O9PJ2rPlzP2DvKvp94DuB6CPHkXU0bO7mvFH1hA1OM0zxCqvbFUgjF/PkLMpcvazhzTCjpDRs2FuoUvTDLoSAAkkGQB1xnCb4Q1n30pePub+vN/kphvvC/1iZRB0EZwuv6j/GuduTt08S7nVkv3O+UlxR9zpo9O43iJnk2rdNfyhMNDvkTJ8XtCNVhZ2hiEf3IV7cNqoMU9/Snnn4mfbdBXHVNBJKNZ3WOtEin0qUlefQVstV/Z5Tenl6H2HRiZgkZvZUkWSAJTLv37GtZMxHmC//zwMN4YcEd4Xv5H+bJ+09eFouG0eZi+bkhiBCHAQG5APyxfLFzVerhhoHc8dW6nT5QXxX55OMhgdsgbort1kF/2x2fK6+8Kn3BQShjeunkuSZ9q9oOdFYXa1XrsPmaYMLKaXLcTp/5cszGwPx4meTVi6sthg8fCPLylJ2vg0dkVr1XyupvOjZN20F5Zjh47vHMQPdlba57HaNQBGrevAWN6mnyHO3k+NXVRV65TmCfMdWG5sze5NXFefBH/qI83XWtu7CHDplxZv9Enufd1X7JPXzkxS5BFnS+3fTQ4SPJIzt2Jhs3PZTg0hZbc1Qkk7E8eOhwGimUDx38L8rfU6691e4jabvRZdV29YT+ttMGnn94r/CDuOf1k4/bkBzCr+flKToPbrCxmLniHuv3RClVFm54DdYspWuSepm7XRFI/Nrxxbx9RRe4PsrAik2F95V+ej/ewi4vFG1mydduZgFC3cydOz/DRBhwIMzr/3vGM4Ev7rqPIWU+Lq3j0gnss9YMPTObEgZ5cZ236tx14jo5ERhgtllrxoYMGZrESOGaNWuz2bVw78+6bXSiZCLcEKkuFjo8LwIeeetGt6s7YF7OH0h1MXDVVb9JX/6st6orw8v1HvyNGDEyM6pPPfXUNPIdX9pGjByVbiotg5sv58xs+tj2/LFduer+dExxkfbxyh+vpti/8KKLUj2XzSb5GOSPgevGddMdGFi8eElGhHCtY8kI0QQXL1mSuQbK/ZCgHJ1ogxMlQ5SkUDaKffPJPcmxTTtT4nRs5aYk/a3Zmp7jWp3NZCXfU3+AnAwMMFWtoAbhwtST0R6vs3vvA9xnWGehtUYiRjYlKhsujD4W3TsWndIvRJfxu+mmm33MIu9u6bkJ9gmjj45ZO8oXbMn0tHfcIz5OfXucWJ6hPbQgRLHfmDFjUxfKTmHBiVLBw7ZTSnY5ffvG7U3jS0TBYcOGp2Gxe1O7va317yGCOEydOj1hJpEw7kRXZCH4hg2bunU9jY9Z/THL0x0Ba7R9QV4eP39c73Wwv3TZivQZub4kAIDr+bieXReuixONAYI4rFy5KpkzZ04yYcKEZMaMmcny5SvSgFm433ayPU6UnCh1FFCdBKfL8oevY8Ax4BhwDDgGHAOOAcfAycKAEyUnSk6UHAOOAceAY8Ax4BhwDDgGHAOOgQADTpQChZwsxur1+tcSx4BjwDHgGHAMOAYcA44Bx0DPwYATJSdK/vXAMeAYcAw4BhwDjgHHgGPAMeAYCDDgRClQiLP4nsPifSx8LBwDjgHHgGPAMeAYcAw4Bk4WBpwoOVHyrweOAceAY8Ax4BhwDDgGHAOOAcdAgAEnSoFCThZj9Xr9a4ljwDHgGHAMOAYcA44Bx4BjoOdgwImSEyX/euAYcAw4BhwDjgHHgGPAMeAYcAwEGHCiFCjEWXzPYfE+Fj4WjgHHgGPAMeAYcAw4BhwDJwsDTpScKPnXA8eAY8Ax4BhwDDgGHAOOAceAYyDAgBOlQCEni7F6vf61xDHgGHAMOAYcA44Bx4BjwDHQczDgRMmJkn89cAw4BhwDjgHHgGPAMeAYcAw4BgIMOFEKFOIsvueweB8LHwvHgGPAMeAYcAw4BhwDjoGThQEnSk6U/OuBY8Ax4BhwDDgGHAOOAceAY8AxEGDAiVKgkJPFWL1e/1riGHAMOAYcA44Bx4BjwDHgGOg5GHCiFCFKb7z4avLmk3uSY5t2JsfWbE2Ordz01o/jTTvTa+RxIPccIPtY+Fg4BhwDjgHHgGPAMeAYcAx0EgNOlAxRenP/4ZQY/XvZ+qTKDxJFmU4OiMvyG9wx4BhwDDgGHAOOAceAY8AxcPIx4EQJovTqa8mxjTsqkaMYgaIsMhzQJx/QPgY+Bo4Bx4BjwDHgGHAMOAYcA53AQL8nSm8cPpocu29zbZIk4oQMZHViUFyG39yOAceAY8Ax4BhwDDgGHAOOgZOLgX5NlCA2/16xsTFJEllClpOlEw/of77+hhNU40Ja5aG689HHknsWLkp27Hy0X+nu3qXL0n4/9dQz/arfVTCRl2fevAXJLbcOTvY/f6Df6qyn6WDL1m0pjp986umTOiav/+vNhF8edmLnm9yD1HXX3XOTWwfflrxw4FBb9cba0h/PvfaP1/uE3sDCmrXrkgUL7kn27X+hT/TpZOPRdRq3X/svUcLdrgMzSRlJentdEzLdDS8Otk49BF44cDAZP2FicsmvfpV88pOfTN75zncmX/va15Jrr70umTd/QeLEqVj/r7z69+QjH/lI8o53vCN5cP2GlhfM1KnTkxtuuLHSb+KkyS3lOzXO3SHnP//rv9J+jxo95oS1u0ifEBAMxz1795+w9rSj14ce2pLqC6z89Gc/65FtbKc/dfL2RB2AGcbkM5/53+REGr4YUqsfWJtccOGFyWc/+7nk3e9+d/Kud70rbcfPfv7zZPmKlaXP3yb34LoHN2R4vOiXv+wXeHz1b68ld9wxJxk3blzy3O69bfeZDxzLli1Ppk+fntx2223JDTfckIwYOTKZM+fOZO3adScUP3Xuv7wyj+zYmfaF/kya3DPeQytXrkrmzp0X/UHoNmzYmOzZu6/tjwt5Ouj0+Z6o0073sY68fkuUmqxJCslR+D9ds9TGF/6dh7Ylsx4bnYzc9qdkxNY/JNN3jUg2v7C2x95MdYBWVObFoy8l48b9Nf2VGYwPbd6afPjDH85elhgL4e/73/9+gsxYne3UFStfdq675ZfVX+X6oEG3pDr7+fnnR3V09tlnt+g01LH+n3766VEZVdpxMvI0MdLqtreqPj//hS8kfASoW093lON+01hjCHeqjp5yn1RpR3fpoKkuBwwYkI4Nz86msqqU37vv+eSLX/pShgfhIkxPO+3TyVNPP5vbpib34PoNG7P6exJRqoKjKjoO80CSJk6clBGCW2+9tS2ytGPHo8ktt9ySlYdUhL/x48cnhw6/mDteYZt6yn/6pr5M7iFEaezYsVmb1LZYOnz48B45Q98dOgVbS5cuS3+QxJ6Cn3ba0S+JEpHqQnLT6f9Vo+HtOLQ1Gb7l2uhv0/MP9EpQtQNA8j7+xJPZy+/+1fl9Xrnq/nT2SC/mX1xwQTJ+/IRkwT0Lk9uGDO3yEv/EJz6R8JIJ21K1rrBc1f/dLb9qO/LyPfvcnvQLMDp8ZEfc7U6G/Qc/+MEEHRf9brrp5hYd59XdE843MdLqtl/6/NCHPpTOgjITqt93vvOd5AMf+ECGf3D73O49PUqnzNJyfz3/QudIXE+5T6q2ozt0UBdPKrd23YMpbt73vvclBw52b/TVJ554KgG/evbybBg48KbUDW7u3Pmpa+app56aXec+2/bwI1EcN7kHmdG6e+68ZOjQYT3K9a4qjjR2VdKQJMngvnXw4EpkiZlQlSGdMmVqOrO0bt2DyT33LExuv/327DozTS+93Lu2PAELzIjRl/3P9wzXOxElPkYyg2d/zAgOGjSoi87rzBBWwU7dPN2hU9zchcPNW7ZGnwl123uiyvVLokRY704To1AedVQZxNmPj0lJkmaQACrHkKdJOwZXklGlnp6cp8pLBr18+tOfSV/E//Ef/5n6Jod9wgXlj3+6PntZswYnzFOlrrBMO/+7W347bYnlve4Pf0z18z//c1qLbpRfhv2PfvSj3DzK29vSJkZa3b6W6fPvr/0zGXTLrRluIaZ16+ot5XrKfdJT2lFn3P7xz38lEBbIy5Chw7oNM9Tz5a98JcMnLpixj1Dg+PLLr8jyMbP0t7//o6VdJ+MerKPfdsp0GkcpSZp0fCZJhqbSMrKE+/nQoUNTA/Wmm25Ktm59uGUcGJu77ro7M2LXPbi+JU87OvC8xxIRpQkTJkZ1idv7/AX3ZDqHvPZ1vTlRasO9rKeAgY1iQ1LTXf+rbEo7dvvAlBT97fW/ZzfMa6+/np67fet12bkTqT9ejPg187WD4zp1HzlyNHW/OHzkaKkLYZWXzMGDh7MX8K9/fWVumyBLWn+DC17Y9ip1hWWomynjKmuf6sgP62vnPwSSttHGsnLklW6GDRuem7/MsC+rp9PXXzz6csLDNmZ0UVc7WOukkVYVF1X1+eMf/zjF+Pvf//5SrLXTZzsenbi3rTx73A4Wm9wnZXioOi60vUk7bN91TNuefua51IWy7rOTZ9gzzz6XvPzK33LvUdX3hz/+KcUMbps61+l0ypRp2bOXejD28uqALOGOq5mn228f0ZI3dg+iq9179qXvnSrP2bz6w/N17xPkaCyrjEMnccRzbqIhSatXP5DceCNrRm9I14BpVgKytDtnzRIuvCJVM2fOahkD6QlChjsfeXHB0/lYyv198NCRFJsHDx0ufUbFZBw+8mJ6f7zyajm2Y+XrnKPd1PvMs7uToy+9XNjHUH67fS4jSshH5sSJE1Od33zzzYVrxNqtP2w/9+O+/c+nOOE4vF73P/frnj370uccbSyS04QonQy8xPrS72aU3nxyT5QonX/G2Qm/VbeNTm48/5fJJWd/L/3detFlycNjpydH7l6aTLvm+uSac89L813xnR8koy+/Jtl/x8KoPMgXdcWUbs+xJonZI3uOY7njhee78z8vhOv//Ofkve99b/aiY6Hu1Vf/NjVGR4wclS7exT0o1g5uGBauc10vStKPfexjafCF8IZaufK+VJ7NyzELhPnhWqJ6cBlTvtFjxmbndd2m3JgbNj6UbN++I8vXTl3I4qXNl9P//u//zurFxeXb3/52suq++zO5qreqfIwo9e/h7XHXFF66ykN0OtVhU6LVQQSZXZNecOG68KKLct1wkKW8W7e1fmGU/KqGvfIrbdo38Kd+L7l3aRrk4P/+7/+yNrNQXHW1izWVixlpuobL28c//vG0DaQYBbqmtF1cUK6qPlmwrfF57PEnW+qu22faUPfe5oX4nve8J9XJnXfd3dImZLeDxar3idpcFQ/tjks77SjTAeMyecrUhFlajR8pz9FrrvldrotYiHci2Z1zzjmpviWHYA1E9kIfsd9996/O6ixa38nz88iL8XWbMbn2HIFyaA/3ThVXIaLRnXLKKWmZ2My1vQchtVdd9ZvMHZh6eM7i0hv7MAKJFB5x+bPt1HGT+4Sy06ZNbxnLz33+8wmklDFTPaTt4MiWyzsOSdLixUvSj5UiPdu2bU92PfZ4MnDgwNTQziNLPMtUhmdpXn2c57m9/ZEdqdxYPogrQQoUCEJyBw8enLryxYgthARyx491ZQQxGDlyZNamjZseSvbu3Z/lWb58RW4bmemSrMcefyLLh+GPHri2+oE12Xn1IW33qvuSIUOGZPXS9mHDhyd33nVXIWmq02fqrUKUyMcSA+kxFrmybv3qOyT/7rvnZjihLvQ0e/Yd6Xtt8ZIl6X/GVGVIy3SK/iHUzFKq/RD3qVOntbhmb3poc1qH8inVWFobpF28EMzGttsegy3VsXPnrtx8tkzZcb8jSsc27YwSGxGlvPTSAeekBCm8fum3v5+8cOeSqEzqKhsAZo16AlHixvzBD36QvXT1olZKhKPf//7a9DrBFGL9IoKX8sdS/HZtuaXLVhTmX736+MOPFxhf2pH7pS9/uW1/6nbqYi2UJYuxvswIvtJVlc9DUfIwjKw+dMyLUHli64hYL4EBqTyQWR2T4o4TC/sN0VW+8IWvukmrGva2DMdN+4aPvNqH8WT7yHlLlNrFmtpqjTSdI8XQhtBTDyQptk6oDi6QXVWfGH7qvyX5amfdPje5tzFM1abZs+e04LVdLFa9T+hzVTzUGZd22lGmA9bqSEexlFmYoy+90qI7278/Xf/nLh9lQjlLly5vKY+OmPlX3vCZJNyMGDEyzcP9lPfMUd4wJYCD5LfjEvrb316TlePDj5Wre/Da6/6QfOpTn8ryqR6lv7z44hZvBAw5XZ9z511d5KqOuvcJ5RXoRnWEKYTJksV2cKT25aWQpEmTJmcG6Jw770z7D1GXkQlRovyWLVuzczGyRBlmKyjHrF5dkkxdRGtT/bF0/vwFLeNAfco7a9bsFoMZYxbZI0eOSvOR5umFiHbIGjz4ti4eLuhLddx//+qW8rRL12MphClvRq5On2l/VaK0Zs3arG2878O+160fOdwjrN2O9Zlzw4YNS+bMmZNeJ9CHrbtIp6wHg4BIrj3mHITJEtkNGzdleVXGpmBYdbeLF9bXqWyY8qGDepgpRRfh9Tr/+x9RylmfJAJ0/U8vSPbOXpi8ce+6ZPeM+cmgC36VEaSB5/8y2TPrnuTN4NqEq66LE6UK65SGb+lKlDSTVDWtM+ixMr/73e+zFxAuQHwp48vghg2bMoKkl0aMKLG3ha6ztgWSw+LvB9asTfiva/blhgHCImTy6vodc+5Mz3Geh71tK1GOlA/jY9GiJS1f+Gx+e1y1LoxKfRnmhY4/MS9GvshOnzEzwe+eNhCS3PrpV5XflEygEy3+JwIVX0wgkbiYsCZLpOm8887rojt0QZQ72g7ptboJj6sa9mG5pn2zhiPthBgT0YuoYxhbXKfOOlhTW2Wk2fDgfImHHFEnY79v3/Mt+qmLC+qtqk/IIW3gF85mNelzk3u7iCTUwWLV+wS9VcFD3XFppx1FOiA8vsbse9/7XgKh4bm3ecu2dFZE18BA+NIO+wdR5+s/5Icfxo4+FjBLHz4PhWkFWYCc6JxNmZVSOyB19lrZsQJGUH7kqNGVy06bPiOrM/z6q3tQbaLdvGfoM/1XND+u2/uUtpYRpSb3CQaW2nTWWWcli5fcm7aJkOR27es3v/nNTA/t4KhM18zayJDky7/Gm1TnRZSQhSEqY3XsuHFZm1TP1GnTsnJEWXvwwQ2FsygqZ9MHHliTyWDdDcYtgRMg3PxXu8IZHWv4kgfSRuQzoqrh8SHihneGZMQiopFPfVwYrDkuMupXrrovkztmzNhk/foN6V5L2x7e3mVd1qjRrZiu22f0VpUoQR7V73A/sCb1YwvgmSDZuPgxs/P8CwdSDxsRJF2vSpS47+TyCUnhfQwueU9pxg+ZuIwKP4wPz0JL6nEj5Rw/ritvHbw8+9zurLzkvPzKq9ksWozAK1+7af8jSqs2RUmNiBJEyK5ZOnT30owoHQhmjg7PXZZeu+qcH3cpo/LHVm1qGchwgMIZpaoESflCeXX+8zVdL4gzzzwz6jNrXxQhUeKFLwOdF0xoEHBD8HKhDmZqMG5sO7npVH9R1Du+ylpXLMrghoG7CmtueCDwoLCyw+OyunBDgFDw4wUZlifiktq6cdPmlutl8puSCfqo+q1rotoJsaPt5//iFy3jyNhS9leXXtrSbpUnlWHPOF955VWFv12PHXeFaNo3azji8hhzP2uKNRlpMsD4Yi5X0f/938/mhuduggvpsyg4xsKFi7NxJRKeHY8mfW56bxeRhCZYLLtP6H8VPDQZF+qo0o48HfA80r34hS9+MXk1snaHjVGVBwMmHFdd46NALKT2zTcPysqzxsKW17E8Ac776U+j1yE41APpsu4uKl+UMmOoNuLmV5TXXrMh1SEg9pruQeTG1psy7grcQx5Cb6t8EVFqcp/YsaRuZKlOpX/+y18yXYQuPVVwJDl5qVyGCLBg35F5RAk5D23ekrpBYXiHclkfbN3dMGRxVfvrX8cnCxctTtgzR2QsLMt/9C6SAtmwHwa5zjojiIbkcp9IjjV8IUm8G3TNpocOH8nqiLnfYYTLqOdjpS2bR5SOvHg0K0NAC4sflcctTXIZO51v0mdklBEl7BPbJyLhqW7SpvXzvFe/Ro8e0zJm1GEDeFQlSnZ/pdgzBFtk8uQpyZQpU7oQIOqrskapKl4gZurfvRGXUu4hXadeq9smx06U3t4oFqJ00VnfjhIekSgRIJv+4swByYXfiperQpTCwRMBqpqG5ev8t+4DTzwZf6Dx4Fb415Ao8fVUL9OYcUubrFGFcWPb2c5LhhcaLoD2Zau6SZkZgDTlLThupy7bRh1jDKk+1iXovNIy+U3JhDVA+OKsequkbM5L21mHVpRfhr36WZTa9VpN+2YNYwharI1NsSbcQJTYzV06wdBtspdIES6kTwgZYbb1G3zbkBTLX//61zNM8cEhXLvWpM9N7+08ksDYNMFi2X2C/Cp4iGHEnisaF/JVaUeeDuxGtHmhsHluyuhnvZJtm+0f4eLtNR3jQqv7L2+t0mWXXZ7m+cY3vhGVgSw+CMQMRtWTl06YOCmrP+aOmlcOg0btJpS3zad7kJnx8KOa8jHDpPLoWeeLiFKT+8S+nzhWcHaCpgAAIABJREFUfTbFMOeZP2nylMR+ICJPFRxZWXnHMeJSRJSQEysj+ZAlZhHsmhIZkqS4s0GaeK+qjFKwp7x5RMca0JbIW8N31qz8YBLUhXFNPaNGtbrfsT8S10ZHZn7yiJJtE8fqj01xPV+xYmXqzv2ksXma9Bn5Ikqs/SFsuf0xDnI1pE+Q0F27urrdNa3furvFPrzQRp5nCuBRlSjZ/ZXYvNjqsuy4XaJUFS8x9zvCsaPbESNag8iUtbPoev8jSgWudwRwsCRIx2VE6YIzB0TLVQ0RbgeoKkFSPlu27rFCEzM7Y79khfLwUeflFRIlGxWJIAoYeuEPlxS9+BYtXtLlRqvzkuEhiZsGRoJmBCSf9Iwzzoh+FWy3Lh74EDvWjDDDZPsxPhICtEx+UzLBVz0WO6uvP/nJTxJmI3BbCccr/K9ZP9YshNfsfxn2RMgjnHjRzxLrpn2zhmNe4ICmWJORdumll3VZH8E4Wx2UHbeDC+lTY5aXEoI5toakSZ+b3tt5JAH9NMFi2X2C/Cp4CMepnXGhbJV25OkAg1ljyfMobIv+gzXy4Sqrc6S2f7GPLuTBLUd15K1T4sMHeT760Y92kW/rqnvMujTVH/uSnCfX6pUZDJtP9yAzYfa8Pba6IUCQrhURpSb3iSWE4cyJ6i5KbX+LvCKKZORdKyNKeeXseYgBQRVmzJjZEpRBRCR8Bq4wroBpsIddj6eGPca9ftYwf3D9cQ8MZCGXX+iWZ9vFsd3viQAPum5nV3DZ0nmleURp2fIVWd3gSPmrpE36jHwRJfU9L8WQD2clKd+0foUeZ+aQ51ZenwlLTtuqEiX0ONAEcGATZGbGiKhX5sXTLlFqBy/W/c663aHHvL7XOd//iFJBMIeOE6UKwRzCQRMBqpqG5ev8x2WDlyGGWlF5voSTLyRKdu8MvVSLUow3W08nXjL4N7NeQPuKUP/Pfv7zLvVQZ5W6eADTRtbyFPXjZBAl+sCXUxvtTm1kYTQkiK/HVr8c8/JXvjyjTGVk2Be5iimvTTtJlCB/VraOm2JNRpp0QYo7aFFwC9VdFxfSJ1/QiaRof1qDwrW8F1uTPje9t/NIgnRSB4uUrXIfWmM5Dw/IqjsuVduRpwNcWMEPM0bSRywdO/av2b1njfAq/WPtobCaR5SYsSEP6yZj9Tc5x1pV1T9r9h2V5bNeUuVw37Nt0D1Ytlm1gquwdk/li4hSk/vk4ksuSdvLei7V1U5aBc/tyLN5O0GUrDyOCe2Mq5vWnWA0M3tj882YOTMjHHkGvz2Pka7ylihhUOt8LE3v37c3YrUBe1hThXxmXpgZC8tSTvXbYA5azB/OZIblY/+b9Bl5IkrolSAU9ic3Rq7Z54BtR9P6FQykbEaFmS50V5Uo0UZmu2Izk0QVJDqjJbm2T+0SpTK8oDvh1rrfbdq0OcPDgYOHWvBi29Tucb8jSkXhwS8+67vRmaG6M0pVwoOHA1aVIClfWL7O/xtuuDF9SWB8F30d0MskJEo6z4uR9UJ5P10PfdY7+ZLBfUovWGZewhmysroIV2s3V6TNEBDW9zB7Y1/GJ4soMcYYWQS+YD2LZopkmGB8h181GVcMKfKULcqWYd8TiVJTrMlIk66UQl6KsN8EF0X61L1HOxbcszD6cG/SZ8mve2/nkQT7nGkXi5Qtuw+FcY1PHlFqMi5V25GnAxGlMuO6u4mSxjh8LtsxqnuMcaQxuPba6vv62bVVuNHZ+nUPViVK1g23iCg1uU/kvhgLZ27bnndcBc95ZcvOdwdRUp0YlIT5xmhmxgD96poIB9eYFcz76ToBFFS2HaJEGa0ZGmUChrDmBdnTpk3L5Eo+aR5RYtaMchjwNn+V4yZ9Rr6IUmzD2blz52WG/Dqz9YltV9P6VQeEpsglU/W0Q5RoJ+PK7B5rq0T80DU//m82kezUr04TJeQKL9b9bvr0GWk7bEAJtaFp2u+IUt6Gs5ChvLVGZUSJdUpy07NplQ1nwwEUAaqahuXr/Cd6nF6G4YJJycOIVGSw8IUMYaB8meueZIVplZcMD3D8qDHKwvLhf7WHNoW+1WV1EWVNuiCsavjlBz3oelOihJti2Hb+27UPsfDgYRleGBgjF1x4YdY2yFO4uFwEEsMqlGH/Fxn2Nl94bGeU6vStyhd2jW1drMlIYwxZx0YIYo1n0Sa8TXBRpE/cS9Qm7i/GMtRrkz43vbfzSELYRv2visWy+xB5VfDQZFyoo0o78nRgI97Fxk06kRFe5HqXRwSrzCgREAEMs9+R6uxUyocmRdUjNHaR8aU6KaOgO3ysCnUjvFd1vcOlTrKLiFKT+8S67VWZXVZ7lFbBkfK2m9YhSjzbCGpQZV0aa05k7D79zLOZrnUeNy5LoKq0v12iRFhptWHvvv1dghrE3JFpA7hSGTujZN3X2E+oSnuVp0mfkVFElPiIqxkZ1obFNt1tWr9m4dBL3ppC7k/qJ0+7REl6IqX9LEmYMvUtNz7kQZZeernrerfuIEoWL7jfcc/KNRB3UNvOThz3O6KE0lg7ZAkNx5ChPMJThyjVWZ9E26oSJOXrBAhYgyNjkZdXOAtDHUPedu8gX0iUMIpVPiQmVdpnXzJ26t2WVfQoZkvKFt1rXQZtCjdhLKuLDWUpxyL/mB7wK1Zfy4hSrC+sJVJ53FNsH3VsNx6tQpRUjtR+vQ7Jyumnn57WfcUVv47WKzlFhr3yxNKmfatiGDfFmoy04cPf2ocBIsy+XBoTXI1ifWuCizJ9jhk7Lqs/tplykz43vbfzSEJMR+G5IiyW3YfIqoKHJuNCHVXakacDGwCgaTCHJkSJmW7wSxqOQSf+M5Ok+4NNV8tk2tmkWIRN3YOFwRzMO8UGVygiSk3uE4xx9dGutbF9hbDgXjZv3oIkDGVdBUdWVjvHdYjSgnve2vsIw5WtNorq07oWDF3bL9YlcY6fJVBFsnStXaLEB0j2NaIugiwwBhxjyOeRtDyixDta7X744fim7pQlUhsBUnBDVLub9BkZRUSJ67iKqW2xjYCb1k9ADckn2BPPLvVNKWHWlacJUZK8tF9Ll2Uy6YO9ZomS9s+y1zmuhZdhw9I60SnPCPoEEY0R0LC+dv/3S6L05v7DLUQpJE5N/1NHu4NBfhGgqmmdOsIyPKQUqIGXBS4MhL7mqxQPnXADv5Ao8dVKLxmMwtiDbeu27QlRmfiFBrw15sL1S2qrfRERppU265pNibakmRNCTIdfQMvqklFLIIOwH9QJyVBfY0SpTD5txUBABjNAtu0c0167NiokSkRrw7WR9VexSEWQM7UPtxkrH/cyrpV9eZYO2nW9a9q3KoZxU6zJSFN4cNqMcQBW0A3Xn3m2a1RG8kgndXChsnn65KXNQnzqx0Uu/BDQpM9N7+08koBOmmCxyn1SBQ/SbZ1xoQ9V2pGnA+4/3WtpePC/vdblfkO+PvCQryg8eBOipOfdb35zdUv9tIFnCh8AwmiKXKvyY18xuwE3WyTklWPvIemEWe1Y5C3dg+Sz648kk6/Ddu8nOytSRJSa3CfUKddkXK1jz1ZcBdW37Y90jaZWBUfqX7tpHaJkjVPclGIf/WgHwULkekcYb55Fah/PIRnUEIBYJNlHH30sjVZHxDprILdr+FKnZlMIOa5IePPmzc/ao3YpzSNKzCKp3bjfxdY3IVd5bATDJn2mXWVECZyxQbCM+pDENq2fcVagBurAxY5xAc/YUOFGtlWJ0pIl96aul6xjY6ZSY6DUhuW2m85y3ZI3u45NZUmb4AX3O7ndEVnQyu3Ucb8kSijv2MYd3UaWkF13gKoSJOWrW09YjoeOZhz0MrAphpxcPEKihCz8l5X/3HPPTV/MkBZmdNh8UOTglFNO6fIwpiwPD5XF/YgXMdPG4dcQuXOQl00J+erExmXkY1NYFg0jX7I0a2D7WlaX/bpPGPJHdz2eto+IT+xNJNmkMaJUJp+2/PCHP8zk0Eb6wIOMOtiHytYREiW7uJrZP67zIkUH6EM73TMjFpJJGW0YBPaFaPXDsYxPZlpY61T0CyNhNelbFcOY9jXBmow0S5SQycbI0jtElXG0emmCC+kzjyhRDxsxq/7YWpAmfW5yb+eRBNrcBItV7pMqeGgyLvShSjuKdGCjpfEBg4hbGJ98GBo06JZsTGP7y1XpX5nrHYaVcBN7HtFHu+FwbJabPGU/65rGrP6frv9zQsRLZmTBF4b5jTcOTN2v1Z68tZC6B5WP5yxfhNEb4exZd6lroYwiokQfmtwnNsLft771rXTDWQxZxlKBjGgX93Ooryo4CstU/V+HKCHb7qE0duy4hNkVNotlvHbv3pusXbsunbERYVi0qDWAztJlx2cKxk+YkI0TH5dYk6RF9Rjc9kt+HcMXjwS1RakN3R3qi34on3W9Ix//dW3MmDHphrO8ZyF2CmTAdYhNKLdun5FTRpTIQ1Q3tW3OnDs7Wj/ywSJrvVRHmELUZs6clV6vSpQ0Y4MsZqogQ+ifH7iCkHKNsOghKT/60nHiissf71rsNbusoR5eXmjp485Hd7XoMxzfOv/7LVH616uvJcfu29xxsoRMZNcZjJNdhpcu+3noy5peVsxeQHi0cWGMKNF2uymtytqUF2T4JU591myHzb969ZoueuRBp01Tbb7YMXvUhEShSl08rEU2YnJ5qet8nmFS1he+soo4SpZNtaaBcyFR4iEEEbX5MVzsmLF5Zag7+g6pUblYaFLpR4a98halkGuVI23StyqGo+qqizUZaSFRQi7n1FeixVn8NMGF9FlElBhX1oBQP2OJ4am+Kq3bZ8rXvbeLSEITLNKmsvukCh6ajIv0WtaOIh0gA4Ig3MRSxjU2Q1Glf2VEiS0LVGcMM7RPuCIf5E39bje1pFB15qUjRrbuiaP6dA+y7cBpp306a38o68KLLupyD1K+jCiRp8l9wnsjbIf9T4TD2Iwz9ZbhSP1vN61LlCBFbDoaGsqx/5AH6gnbxjPQblAaK4u7k52VQUYdw5dykDHVwRph+wwO21ZElMhrCZFk2pTNaG14acmv22fKVyFKYFhuhrSH2UjVTdqkfskhSIf2FLJ9ZkYIkssMEeerEiXabMeGsmEwB2Ykt0SCOdAmov/ZdnBs89bGy/jjeIGshSRN+mia9l+i9Max5I3DR5N/r9jYObK0YmMqs+mgnOzyvMCfeOKpdDaFY7VHLxHcXHTOptzgfNFT0Ae9YFh4z2aLuHDY/PaY6XIejHIjoezqB9a25Odhjg+8XJVUBykG5le++tXk3qXLWsq1UxdT9T8///wuIbghH3xJ4UakP9THPipWro6r9IVFkHyBti4tEFD2D+Klo37FCA16ZkrdGkDkpzwulHl6pu0iaBg9am+Y2i+6akdeCnENy9ftm/0qiwtPKNf+r4s19Z/1M1Yex8i0ATFCIlwXF9Lneeed11KnbYOdoSHIhL2m9tW9vySr3Xub+00knFkvyVFaF4uUL7tPquKh7rioD2XtqKIDAjto82LdKzwnrr76t8kLBw626I26q/SPtklebDZIs8R83FF/wpS1kJATSEmekR+WyfvP7Eo4s672kfKBwa4pismx9yBRC3FnFsaQwTORgDP2i7PkVCFKdZ8N1CE8E/3O9ouxxbXRvg/VJqVlOFK+dlPaxJd6jMs8MpwnEzIxf/6CzN0rNFYJI71hw8Zc7CAX/DPLogAAkkGQB9xJCb4Q1m9nEdab/ZXCfOF/rU2ijrK9cMCC2hLbe4f3HbNemu1QXnQ5a/bslMyF9et/nT5Tlmhw1FMWec3O0MSi+tWtX+1XijvqU08/k9pzkBGdF4lk41mdIy3SqfRpSR59hWzh7hfDgWQfPvJismjx4szNk3I2SEddvLDOTOO6eEnX/TlVdyfSfk2UUCBkqRMzS8hAVicG5UTL4IspbhT8rD942A5cvXh5QCLCa/Y/D3aMF3xTeRHy314vOiYvL8jYSzIsx41PhDgMCMgFN3mYp+h/WV08GCAdfLVupw+qs0w++XggMg2Nm2KdOujz7j37Wta1qA1hSqhdxhBCGV7r9P+mfavSHnRWF2tV5MfyNMVFTGY759rpc6fv7aJ2totFyapynyhvUdp0XJq2g/LMAPHc45mB7ova2/Qa9WmzbWa1iuShG/IX5WnnGv1kthtjlh8fR5i1bEeGzYuu8FpgDzieG/aaPbbEMUbcbV76W/fZYMeSOq3csmPKVn2HlcnSdQxNG2hB59tJDx0+kjyyY2fCehJc2mJrjorkgaGDhw4nRMaF/PO/KH9PufZWu4+k7UaP7bTrZPe53fohxnh18Cu6H/noC8EgBHs7+lBesIPdwcxVO88V+sPGsEUfHFRHlZTAHyJKtKdKmTp5+j1RSpWGG16DNUvpmqRe6m5H/7m5tFErXx1jL4a5c+dnX9jCRcl1gOdlytcFdIeOcH3Ul9Jwyr876nOZJ2ecpXe/t0+u/jUO3ZEyu8O9zGxM05mi7mhfd8iElOn5FXMv7o46XWbfvYf62tgyS611Y0OGDE1ixHDNmrUZuQj3W+xN+iCoBK7EECVClHdn250omYWsRKqLhQ7Pi4BH3rrR7bpzUOvIHjFiZPYCOvXUU9PId3x1wNdcrkO8oPiCyexHnTq8TM944RBpirFkvZWPSc8Yk+4cB7+3++YYs4aH+7hsNqk7sXWiZBOxC7dYokLSZ8hhnkvjiWqT19M376vePq6LFy/JiBCudbjpE1EQ1zS5BkIucEEkgEpv6y9R/HCptAEr6mxL006/nSgZoiTFsVHsm0/uSY5t2pkSp2MrNyXpb83W9BzX6mwmK/k9McX1AX936yvOC8n+iNyEK0NPbL+3qfpLiyl5LagOF+G6Hqvrsbfoyu/tvjembN/As5l1iXxF7i1YrNtOIprad1EsGEtd2V6u790f/XlMcfvUPlpySwvTMWPGpm6UvVFP4Zqz2H5Une6XE6UIUeq0knuTPII4TJ06PZ1tINQzEdhYqLxhw6Zu97nvTXrq7W3FbWXYsOFpqM7e3hdvfzVDx+/tanrqDXgijDb37/qShfi9oS9V2vjQ5q3Jtdf9ISEcPFs2VCnjefoO3n0s2x9LgjisXLkqYW+hCRMmJDNmzEyWL1+RrifEJbu36pTQ5qytYi+svA2FO903J0pOlHrtDdPpm8Hltf8wdp25zhwDjgHHgGPAMeAY6KsYcKLkRMmJkmPAMeAYcAw4BhwDjgHHgGPAMRBgwIlSoJC+yoi9X/61xzHgGHAMOAYcA44Bx4BjwDFQHQNOlJwo+dcDx4BjwDHgGHAMOAYcA44Bx4BjIMCAE6VAIc6yq7Ns15XryjHgGHAMOAYcA44Bx4BjoK9iwImSEyX/euAYcAw4BhwDjgHHgGPAMeAYcAwEGHCiFCikrzJi75d/7XEMOAYcA44Bx4BjwDHgGHAMVMeAEyUnSv71wDHgGHAMOAYcA44Bx4BjwDHgGAgw4EQpUIiz7Oos23XlunIMOAYcA44Bx4BjwDHgGOirGHCi5ETJvx44BhwDjgHHgGPAMeAYcAw4BhwDAQacKAUK6auM2PvlX3scA44Bx4BjwDHgGHAMOAYcA9Ux4ETJiZJ/PXAMOAYcA44Bx4BjwDHgGHAMOAYCDDhRChTiLLs6y3Zdua4cA44Bx4BjwDHgGHAMOAb6KgacKDlR8q8HjgHHgGPAMeAYcAw4BhwDjgHHQIABJ0qBQvoqI/Z++dcex4BjwDHgGHAMOAYcA44Bx0B1DDhRihClN158NXnzyT3JsU07k2NrtibHVm5668fxpp3pNfI40KoDzXXlunIMOAYcA44Bx4BjwDHgGOhNGHCiZIjSm/sPp8To38vWJ1V+kCjK9KYB97b6A8ox4BhwDDgGHAOOAceAY8AxUI4BJ0oQpVdfS45t3FGJHMUIFGWR4YArB5zryHXkGHAMOAYcA44Bx4BjwDHQGzDQ74nSG4ePJsfu21ybJIk4IQNZvWHQvY3+cHIMOAYcA44Bx4BjwDHgGHAMFGOgXxMliM2/V2xsTJJElpDVH8nSvUuXJfcsXJQ89dQzfY4o7nz0sbRvO3Y+mvVty9Zt6bknn3o6O9eXHjTz5i1Ibrl1cLL/+QO1+vfEE0+l+lm2fEWt8idCl6/94/Ue27aq/X/9X28ma9auSxYsuCfZt/+FXt+fqv3uznyu02KDoTt177Jd944Bx0BPxED/JUq423VgJikjSW+va0Jmf3PD+8//+q/kHe94RzJq9Jg+Zay98urfk4985CNp3x5cvyHrG8SQ/n7mM/+b9AWD2z6YHnpoS9o3+vfTn/0s67PNU3Y8dOiwVMaHP/zhWuVj8l/922vJHXfMScaNG5c8t3tv23IhfcuWLU+mT5+e3HbbbckNN9yQjBg5Mpkz585k7dp1vXIcH9mxM+0HfZk0eXLbOonpuRPnVq5clcydOy/6g9Rt2LAx2bN3XwIp6UR9nZTRU3XayT66LDdGHQOOAcdAdQz0W6LUZE1SSI7C/+maJRMkogyQOw9tS2Y9NjoZue1PyYitf0im7xqRbH5hbY80JGJ96atEadCgW1KD/+fnn99i0A0YMCC9Nm7cX1uuxXTUW849tHlrRpR+9vOf1+pbp4kSJGnixEkZKbj11lvbIks7djya3HLLLVl5iEX4Gz9+fHLo8Iu1+nuyxpZ+qR+TexBRGjt2bNYutS+WDh8+vPasZXfpvLt0CraWLl2W/iCJ3dV+l1vd+HFdua4cA46BKhjol0SJSHUhuen0/6rR8HYc2poM33Jt9Lfp+Qd6xQu1LxKlZ5/bk7zrXe9KScMjO4673emmWrvuwfTa+973vuTAwb4V+XDe/AXJbUOGJs+/cLAW/jpJlEKSJIP71sGDK5ElZshUhnTKlKnpzNK6dQ8m99yzMLn99tuz68w0vfRy7wn7z4wMs2H0Y//zPcf1TkSJDw3M4NkfM4KDBg3qovM6M4S6DzuddpdOcUsWDjdv2Vrrvup0X12eG4mOAceAY6AcA/2SKBHWu9PEKJRHHVUAOPvxMSlJ0gwSL2qOIU+TdgyuJKNKPd2Zpy8Spev+8MeUCP3P/5wWHYN//PNfyQc/+ME0z5Chw6J5ulPnPVl2p4hSSpImHZ9JkqGptIws/fP1N5KhQ4emBupNN92UbN36cMs4/e3v/0juuuvuzIhd9+D6ljw9Wdc9sW0iShMmTIzqEpfW+QvuyXQOee2J/ehkm5wolRsjndS3y3J9OwYcA53CQL8jSmwUG5Ka7vpfZVPasdsHpqTob6//PTMWXnv99fTc7Vuvy851asCrynnx6MvJ0888l7z8yt9K29AOUZLcFw4cTCAbVdsDgcRl5WCN2ZsjR44mTz39bHL4yNFK7ozUpbVJw4YNz23jH/74p5Qoff4LX8jNU7V/3Z2vrt6L2sX4EUSAcYGUKG8niBIEZqIhSatXP5DceOONqXG9fMXKbFYCsrQ7Z80SGBOpmjlzVtY+tVMphAx3PvLigqfzsRRsHDx0JHnm2eeSg4cOd+l3LH/s3OEjL6b31iuvlt9bsfJ1ztFu6n3m2d3J0ZdeLuxjKL/dPpcRJeQjc+LEianOb7755sI1Yu3Wb9v/99f+mezb/3yKEY7ttabH4H/Pnn0JOKONRfLqEqWTgZWifvg1Nz4dA46B/oaBfkeU3nxyT5QonX/G2Qm/VbeNTm48/5fJJWd/L/3detFlycNjpydH7l6aTLvm+uSac89L813xnR8koy+/Jtl/x8KoPMgXdZUBijVJzB6F+eSOF57vzv+87KdNm54wi8Jifv0+9/nPJ5CCPNJURpSQO3nK1Ba5733ve5Nrrvld8sKBQy39Vz+JNvf9738/+Y//+M+sPR/4wAeSCy+6qNDljTqnTp2efOITn8jK0Z+PfexjyfgJEwsNGyLdqe9bt7XOQqht992/Osu3Z+/+3D7gxnfkxZdyr0ueTffuez5597vfnf4mTspfqE+0QeULXQTr6B3j7z3veU8q88677o62+dVX/57ccMONCeMnPdEGxpK1GE2JUkiSFi9ekpJqkZ5t27Ynux57PBk4cGBqaOeRped278mI0pJ7l0b7Ip3zUWD7IztSuTpnU4ggQQoUCEJtGTx4cOrKZ4miykFIIHf81m/YmAYxGDlyZNamjZseSvbu3Z/lWV4QJZCZLsl67PEn0r5g+KMDzq9+YE20f2m7V92XDBkyJKuXtg8bPjy58667CklTnT7T9ypEiXz3r34ga1MsgmTd+pHNh4G7756bYYQ+o6fZs+9Iie7iJUvS/4ynxou0ik7RP4SaWUrhAHfCqVOntbirbnpoc1qP8inVWOr50i5WCChj222PwZXk79y5KzefLePHbvw6BhwDjoE4BvodUTq2aWeU2Igo5aWXDjgnJUjh9Uu//f3khTuXRGVSVxnwmDXqKURJwQtk/IYphCm2nqCMKA0ceFNmUIcy+c+MzNGXXmnRFWtlMMBVRmuG9B/XNxu22+qa8NbKF0vpq81vj0eMHJWVzSOH5CeSmmTPyJmxGDFiZJqHfhBW3NZTdvz1r389LUual5fIdLTh4x//eAv5q6N3ovipT7Nnz2mpF/JFcAvlCdNPf/ozKWHifJ2od5CkSZMmZwbonDvvTPsFgZORCVFCH1u2bM3OxcgSZZitoNztt49om6xanROtTfXH0vnzF7ToCnKsvLNmzW4xmDFoqWPkyFFpPlJbpz0mqh2yBg++LZuJRVeSf//9q6NlaZfyxFIIU96MXJ0+0+aqRGnNmrVZ2yC+tr8c160fsjN+/IRMdtjvYcOGJXPmzEmvE+TD1lumU9aEQUIk0x5zDsIkIovcDRs3ZXlVxqZgmHztYoW1dbbd9piPXdTBLGmnZ9FsPX4cN6pcL64Xx0DfwkD/I0o565NEgK7/6QXJ3tkLkzfuXZfsnjE/GXTBrzKCNPD8XyZ7Zt2TvBlcm3DVdXGiVGGd0vAtXYmSZpKqpp26IXm5yug966yzksVL7k29+nfPAAAVS0lEQVSJwLoHNyR//NP12bVvfvObLS/oIqLEbIjkfu9730uWLl2efnXdvGVbctNNN2fXzj777C4vdYxcZo4o+8UvfSnhyyhGOm50zKKINJ133nkt7bnr7rmZ3B/96EfJ6tVr0jofWLM24b/aM+fOu1rKok8Rgc9+9nPR61bnH/rQh1J5v/3tNdG8hBBXfRAXW7bsGPKlsrEZKwIPSA/M4lh5dfVeRpQ0W0S7vvvd72bjCU6uvPKqrL1cr0OUmLWRIcnXf3BAv2JEifMYojJWx44b10UHXJ86bVomjyhrDz64oXAWxepQxw88sCaTwbobjFuCJ0B8+a/2hrM61vglD6SNyGdEVsMVS7OMq+67P5MRi4hGPvVx4cJFWR/LjPqVq+7L5I4ZMzZZv35D6iq57eHtXdZljRo9OpPZtM+Ur0qUII/SXTirXFfnPCMIIy+5uPcxq/P8CweS7dt3ZARJ19shSpAOBaKAqDz+xJMpLnHF1IwfcnEZlR4ZI4KiWFKPGynn+HGdvHWw8uxzu7N6VN/Lr7yazaLFyLvyedq3DDkfTx9Px0D3YaD/EaVVm6KkRkQJImTXLB26e2lGlA4EM0eH5y5Lr111zo+7lFH5Y6s2tbzIQjCHM0pVCZLyhfLq/Gc2RwY5MwKxyF9//stfsjyhO0ceUbJyv/DFLya4bIXtu3XwbZlcDBxdx7hRm4gwp/NKWQwOoTn/F7/osr7BkgcIX/hFFcMEsodsXMdiLlNnnnlmev1Xl17aUq/qV/qDH/wgzXveT38azTty1Oj0OjNKcrNR2bIU40lEKOZ+t3Dh4lQ2fWHtieQ10XsRUWJ9mMaE2UUW5atOpZf86ldZnjpESW5DBFiwY5NHlKj3oc1bUjcoDG+1Qynr0qy7G4Ys7mp//ev4ZOGixQn75oiMqYxNXzx6nKRANljPZK+zzgiiIbl2Xy1r/EKSYu5lyDp0+EhGhGLudxjhMuxx41T9RUTpyItHszIEtKAfKqcU1zTJxejX+SZ9RkYZUYLM2D4RCU91kzapf/eefVmfRo8e0zJeyLfBO9ohSnaPpdi9zHNq8uQpyZQpUzICpH6VrVGqihVImcbs3og7KfePrlOn6ve0+4wo163r1jHQtzHgROntjWIhShed9e0o4RGJEgGy6S/OHJBc+K14uSpEKbzBRICqpmH5Ov8tKeE4JgOjjHVGkyZPSXY99tYaCeXLI0p289JtDz8SlYsxDDnDAGeNi2Ta/Xxwo9H5spSZKhnzjz1+3Piz5Wx/WZtir3H8yU9+MpVx/Z//3HItzHvZZZeneb/xjW/k5mW9UcxQDWXF/kME6U9MPvscce2MM87oUncTvRcRpXXr1qf1UWeeGyFEQuvJ6hAldBAjLkVEKa+M9AlZwtXKrimRMUmKOxukKeb+iWun8uYRHWtAW8Jqjd9Zs/KDSdBOjGvqGTWq1f2OPZK4NjqY+SkiSrZNHEsXNsWtdMWKlQnBMZ588uksT5M+I19EifU/hC63P8ZBrob0iZmyXbu6ut01qd+6uhHAxfZXx2BcwTvaIUp2jyU2L5a8Kmk7RKkqVmLud4RiR68jRoxoq31V+uB5+rYx6OPr4+sYiGOg/xGlAtc7AjhYEqTjMqJ0wZkDouWqhgi34KxKkJTPlq17PGHipMwADr+YV5GZR5QgVSItGHV5si699LI0Hy52ykM72KNI5X/yk58kzKCwLkh5YumUKdOyMhs2PpQ8vP2Rlh/uf5K7aPGSFnmaxWF9UawOew4yhayPfvSjpXltuarHK1fdn7UVwqVydubsjjl3Zue53kTvRUSJWRjprQgnuFGSry5RUh9tWkaUbN68Y4gBQRVmzJjZEpRBRARyY8uvMK6AabCHXY+nhj3GvX7WOH9w/YasvCVKoVuerYNju98TAR503c6u4LKl86RFRGnZ8hUZwYvNEFs54XGTPiNLRAmdFv0w5sPZaco3qV9hx5k1tLN7YR8JSU7b2iFK6HGgCeDAJsjMjBFVj1mysA77vx2i1A5WrPuddbtDh7Z+P44bQK4X14tjwDFQhoH+R5QKgjl0nChVCOYQDpAIUNU0LF/n/8WXXJIatqynqVM+jyjhuobBzIxRkdyxY/8aNcCZHdLshAx00k996lMJJMYSB8m//PIrMlm2TN7xoFtu7dI2CIDyMoMmuXmp1uy8853vLM2bJ6PoPMae9muCACnvokVL0nbi0hfOhDTRexFRkltd2XhqTVtPI0rSnVJCO+PqpnUnGM7M3ug66YyZMwuN/ZAIYKirvCVKGNQ6H0shPWoHMzzKw5oq6mDmhZkxnSctIkpa0B+uXbPl846b9BmZIkr0hyAU9qe1VlzLI9tN6lcgkLIZFWa52iVK9I3ZrtjMJFEFic5oSa7VbztEqQwr6E1Yse53mzZtzrB64GB+JFHbLj92I9Ex4BhwDBRjoN8RpaLw4Bef9d3ozFDdGaUq4cFDgFYlSMoXlq/zX+5jeZurlsksI0plBCyPKFEvX3GZMfnOd76TrdcRkYEkEGLYtk+kjzznnHNO7k/XMShteb4MQ3q4zvoiey12TJhs8naSFIT1aH3Y6aefnrVHASd+efHF2TmVE1Gqo/cqRKlM7p+uf2uWrZM66cSMkvQTphiVhPnGcGbGwK5rE+HgGjNqeT9dJ4CC5LdDlCijNUOjDO5Y84LsadOmZXIlv4goMWtGOQx45a+aNukzdYgoxTacnTt3XmbMr4usPaR8k/olHzITc+GUDlRHOzNKKsu4MrvH2ioRP3TNj/+b345kp/yknSRKyBNWrPvd9Okz0jbYYBK2DX5cbAy5flw/jgHHQAwD/Y4o5W04CxnKW2tURpRYpyQ3PZtW2XA2HBQRoKppWL7Of+uuVhQOO092HlGykdcw6vLKi6hZ17tYXmRs2LApueDCC7NZH9zkbJAI9kiCuLAXkA0GEJOXd469lpABCcrLo/O//vWVad6vfe1rpXlVpt2Ur9i0h9++fc+n5BGSyP/VD6xtqbeJ3ouIUlXXuwEDBqRtO9lEiWATBDWosj6MNScydp9+5vjaFp3HlcsSqCpj2C5RIqy02rB33/4uQQ1ia8KKiJJ1X2NPoSrtVZ4mfUZGEVFiny3NyLA2LLbpbpP6NQOHHtlHS32yKc8F6iZPHaJkZdF+oulNmfqWKx8yIUsvvdx1u4NOEyWLFdzveG7LLRBXUNtGP3bjzzHgGHAM1MdAvyNKgIW1Q5bQcAwZyiM8dYhSnfVJtK0qQVK+ToAfI0yGuF1jYWXzdRa3onnzFiRhCOM8omSDJrQbzMHWHTu2s1CsRVIejtWXvMX3ypuXMnODjCuu+HUmNy8va6fIS5qXpxPniTJHPbgDsq6K41NOOSX61byJ3ouIkg3mEIv6RT9xC5K75MkmSgvueWvvIwzXAwcPF46P1rZg6Fp8sy6Jc/wsgaoypu0SJWYz2deIugiywL3IMcZ8jKQVESXW/qjdD+cEUqE8kdrWrF2X4IaoPjXpMzKKiBLXcRdT22IbATepn2Aakk0QGPCsfiklxLryNCVKkpn2a+myTC59sNcsUdL+WfZ6LawMG5bWhz655+kTJDRGPm1dflzfYHLdue4cA/0PA/2SKL25/3ALUQqJU9P/1FHnhhIBqprWqSMsw9dIuZux/idc80J+u+fR9ke6RtHKI0otYaqD0MrIzQsPPmr0mNRtjshusfawjgOywI8ZF/WJ2QOdD/dmUp6t27anUeSIJGdJlq5rE9cqs0SaffrNb67O2iA5pBDMlSvvSwNK2PPtHmumjNDmioSXty9TE70XESXIhnTLJsF2Jk/9kdsf+U42UbLGKa5KeTOM7OEj1zvCeEMg1B9mQGRUQwBiIdEfffSxNFodEeusgdyu8Uudmk0h5Lgi4c2bNz9rj9pFWkSUmEVSu3G/C9c3UR65ymMjWTbpM3LLiBLPGzYIlmEfktgm9TPGCtSAfFzsGBPuCUKgh5vYtkOUliy5N3W9ZB0bM5V2LDi2obntprNcswTOrmOTjCZYwf1ObndEFZRMT/ufQedj7mPuGOg8BvolUQJIxzbu6DayhOy6YK1KkJSvbj1hudmz52RG8Le+9a10w1kMGEjFbUOGZtcgH2HZPKJEPhtRjzVDROPCMEXuoEG3ZHLDPY8gFzLK2avokR2PpqQDQ54v7RA6rhPKO4w4ZV3Ezj333JSosP8Im7ZOmz4j28iWGRlrFKtfIm+Qx9h15cOgUxshMjpv09/97vdZHrtI3+apcvzCgYOZHNVpjdtQRl29FxEl6rBYYDzpE+MJ4bz66t92aePJJkq01+6hNHbsuITZFTaLZVx3796brF27Lp2xEWFYtGhxyzguXXZ8pmD8hAnp13v6zMwTa5K0sB6j237Nr2P8EtVRbVFqQ3fbcS4iSuS7//7VmawxY8akG86yySnETsEMqANiY+VyXLfPlC0jSuQhspv6NyeI2ti0fogY67wkP0whaTNnzkqvt0OUNGuDPGarIEOMAT9wBSHlGmHRQ1J+9KXjxBW3Pza/fm733iygRT2svNDSx52P7moZS/TpP9eBY8Ax4Bioh4F+S5T+9eprybH7NnecLCET2b0RkINvG9LF0JVBrpRoZ88827rvUBFRQg833jiwUC5uZeGsEYYGJEd1k7IuRzNf/H//+9+frF69JqprRV6z5e0xbQ5nxjRmuJUpbyx8sfKte3BDlo/ZC523qVzmkAcxtNfaPbb6+NKXv1wqq47ey4gSpFT7N0lHNv3sZz+XiBz2BKIEKWLj0dBYjv2HPMQCANBnu0lprCwuTyFxrWP8ggnImOq4/fYRLR8ChJsyokQ+S4gk06ZsRmtDTEt23T5TvgpRwpVQboa0J9zPrEn9tIEAHdpTyPaX2SAILrNDnG+HKNFmOzaUD4M5MCO5JRLMgTYR/c+2hWPlrY2V8cexAlELCZrG09N6BpLrzfXmGHAM9F+i9Max5I3DR5N/r9jYObK0YmMqs7feWBgnuKoQ/c4av8za4FqWtx/LBz7wgTQ/64ZifUcuAQa0katkE3CBWQhmS/LK0R5LNiiLAf6LCy5IAxvEynGOOplZ+vjHP96lL9TJxrYERcgri7GhPjEzk5dPM0/MbuXluWfhogRSdtppn46SzLxysfNam4QOCMARy2PP1dE7REFkdM6dd0XrwP2M/aPe+973ZrqlDBhhlg3jnjZ2cm8p+sKXeozLPFJq+26PIRTz5y/I3L1CY5VQ0hs2bIz2VXLQC7MsCgIgGQR5uOOOOQnBF5RXqZ1FWG/2V9L1vFRrk6ijaD8cDHe1I2/vHbDMrJdmO5QfXc6aPTvBQM9rR50+I4tocNRTFn3NztDEovrVrd/2B1fcp55+Jnniiae69FUEko1nbf4ynUqfluTRVwgXLn8xHEj+4SMvJosWL87cPCmnIB11scIaM43p4iWte8Kpbk/d2HMMOAYcA/Uw0K+JEqCBLHViZgkZyOoLQMQoPXLkaOpX327ErKL+W7m4GDF7UZTfXsOA2b1nX2qI2/Nlx9TJ+gzWCBw8eDj363wo58orr0qN/a989avRNiL3E5/4RJqHmZuwvP2PcUV+e+5EHjfRe1E7GT/cGdnPCqO2KG8nrmFo2kALdWQeOnwkeWTHznQ9CS5tsTVHRXIZy4OHDifPPrcnJfj8L8rfU6691e4jabvRYzvtOtl9bqd+SPFTTz+b/iDtef3EdQ6CQfj1vDxl58EOzyRmr9q5v+kPm8PmfXgqq9deJ+iHiBJtsdf8uJ5R5HpzvTkGHAMWA/2eKKXKwA2vwZqldE1SL3W3s2Dw4+MPB9zyNPMVugWhJ9ZYcZ2ZlJg7ouvyuC5dF66LE4UB1idpzdiQIUOTGClcs2ZtRi7CfdhOVDs7UQ8BJXDnhSgRnrwTMl2G36uOAceAY6ArBpwomYWuRKqLhQ7Pi4BH3rrR7RyIXYHYE/Vx1VW/ScnQ739/bYsRcuFFF1WaTeqJ/fI29Xzs+RjVH6PFi5dkRAjXOtx3iSaIa5rcAiEXuB8SlKO36ZoofrhT2oAVdbdC6G199/bWvy9cd647x0A9DDhRMkRJIGKj2Def3JMc27QzJU7HVm5K0t+arek5rtXZTFbyPa0H1hOtN1x3FKjCLtTfuGlzSpJYK8UX7BPdLq+vd+DHx+nkjBN7eWkPLbmlhemYMWNTF8reOEbherPYXlS9sV/e5pNzv7jeXe+OgWIMOFGKECUHTTFo+pN+iKo3bNjwNJyv+r102Yr03PqSAADK76njyTFw4jFAEIeVK1cl7C00YcKEZMaMmcny5SuS7dt3FIb97+ljRWhz1laxD1beZsI9vQ/evhN/P7jOXeeOgXoYcKLkRMlnRBwDjgHHgGPAMeAYcAw4BhwDjoEAA06UAoU4467HuF1vrjfHgGPAMeAYcAw4BhwDjoG+hAEnSk6U/OuBY8Ax4BhwDDgGHAOOAceAY8AxEGDAiVKgkL7Egr0v/lXHMeAYcAw4BhwDjgHHgGPAMVAPA06UnCj51wPHgGPAMeAYcAw4BhwDjgHHgGMgwIATpUAhzrjrMW7Xm+vNMeAYcAw4BhwDjgHHgGOgL2HAiZITJf964BhwDDgGHAOOAceAY8Ax4BhwDAQYcKIUKKQvsWDvi3/VcQw4BhwDjgHHgGPAMeAYcAzUw4ATJSdK/vXAMeAYcAw4BhwDjgHHgGPAMeAYCDDgRClQiDPueozb9eZ6cww4BhwDjgHHgGPAMeAY6EsYcKLkRMm/HjgGHAOOAceAY8Ax4BhwDDgGHAMBBpwoBQrpSyzY++JfdRwDjgHHgGPAMeAYcAw4BhwD9TDgRMmJkn89cAw4BhwDjgHHgGPAMeAYcAw4BgIMOFEKFOKMux7jdr253hwDjgHHgGPAMeAYcAw4BvoSBpwoOVHyrweOAceAY8Ax4BhwDDgGHAOOAcdAgAEnSoFC+hIL9r74Vx3HgGPAMeAYcAw4BhwDjgHHQD0MOFFyouRfDxwDjgHHgGPAMeAYcAw4BhwDjoEAA06UAoU4467HuF1vrjfHgGPAMeAYcAw4BhwDjoG+hAEnSk6U/OuBY8Ax4BhwDDgGHAOOAceAY8AxEGDAiVKgkL7Egr0v/lXHMeAYcAw4BhwDjgHHgGPAMVAPA06UnCj51wPHgGPAMeAYcAw4BhwDjgHHgGMgwIATpUAhzrjrMW7Xm+vNMeAYcAw4BhwDjgHHgGOgL2HAiZITJf964BhwDDgGHAOOAceAY8Ax4BhwDAQYcKIUKKQvsWDvi3/VcQw4BhwDjgHHgGPAMeAYcAzUw8D/AzjPW91cx+7fAAAAAElFTkSuQmCC;" vertex="1" parent="1">
          <mxGeometry x="930" y="-1896" width="842" height="276" as="geometry" />
        </mxCell>
        <mxCell id="4E65rjWqwYdcSZP7xWTO-41" style="edgeStyle=orthogonalEdgeStyle;rounded=0;orthogonalLoop=1;jettySize=auto;html=1;entryX=0.5;entryY=0;entryDx=0;entryDy=0;strokeColor=#000000;" edge="1" parent="1" source="4E65rjWqwYdcSZP7xWTO-40" target="4E65rjWqwYdcSZP7xWTO-26">
          <mxGeometry relative="1" as="geometry">
            <Array as="points">
              <mxPoint x="290" y="-1420" />
              <mxPoint x="755" y="-1420" />
            </Array>
          </mxGeometry>
        </mxCell>
        <mxCell id="4E65rjWqwYdcSZP7xWTO-42" value="触发注册操作" style="edgeLabel;html=1;align=center;verticalAlign=middle;resizable=0;points=[];" vertex="1" connectable="0" parent="4E65rjWqwYdcSZP7xWTO-41">
          <mxGeometry x="-0.2013" y="-1" relative="1" as="geometry">
            <mxPoint as="offset" />
          </mxGeometry>
        </mxCell>
        <mxCell id="4E65rjWqwYdcSZP7xWTO-40" value="&lt;pre style=&quot;background-color: #fafbfc ; color: #262626 ; font-family: &amp;#34;jetbrains mono&amp;#34; , monospace ; font-size: 11.3pt&quot;&gt;&lt;span style=&quot;color: #000000&quot;&gt;EurekaAutoServiceRegistration&lt;/span&gt;&lt;/pre&gt;" style="rounded=0;whiteSpace=wrap;html=1;shadow=0;glass=0;sketch=1;strokeColor=#d79b00;fillColor=#ffe6cc;" vertex="1" parent="1">
          <mxGeometry x="143" y="-1390" width="307" height="40" as="geometry" />
        </mxCell>
        <mxCell id="4E65rjWqwYdcSZP7xWTO-43" value="&lt;pre style=&quot;background-color: #fafbfc ; color: #262626 ; font-family: &amp;#34;jetbrains mono&amp;#34; , monospace ; font-size: 11.3pt&quot;&gt;&lt;span style=&quot;color: #000000&quot;&gt;register&lt;/span&gt;&lt;/pre&gt;" style="rounded=0;whiteSpace=wrap;html=1;shadow=0;glass=0;sketch=0;fillColor=#d5e8d4;strokeColor=#D5E8D4;fontFamily=JetBrains Mono;fontSource=https%3A%2F%2Ffonts.googleapis.com%2Fcss%3Ffamily%3DJetBrains%2BMono;" vertex="1" parent="1">
          <mxGeometry x="285" y="-690" width="170" height="45" as="geometry" />
        </mxCell>
      </root>
    </mxGraphModel>
  </diagram>
</mxfile>
